<?xml version="1.0" encoding="UTF-8"?>
<svg width="160px" height="123px" viewBox="0 0 160 123" version="1.1" xmlns="http://www.w3.org/2000/svg" xmlns:xlink="http://www.w3.org/1999/xlink">
    <title>Concepts/Digital Channel/Design future</title>
    <g id="-↳-💡-Concepts-&amp;-infographics" stroke="none" stroke-width="1" fill="none" fill-rule="evenodd">
        <g id="documentation-/-concepts-/-01" transform="translate(-621.000000, -2141.000000)">
            <g id="design-future" transform="translate(621.000000, 2138.000000)">
                <path d="M60.7112717,107.930839 C52.5781419,99.2780547 41.8029499,93.6306949 30.1255934,91.5081057 C23.0378482,90.2197898 16.2559103,86.8336625 10.7758021,81.3494879 C-3.57783012,66.9856961 -3.59412662,43.8220121 10.7401388,29.4384546 C17.0635077,23.0935742 25.1264914,19.5480448 33.3943387,18.8009207 C40.4724948,18.1611366 47.1227385,15.0700288 52.0335084,9.92716703 C52.0968051,9.86096616 52.1605738,9.79523815 52.2243428,9.72998301 C60.6016836,1.17541211 74.1532782,1.09076958 82.6321767,9.54367484 C82.68083,9.59190692 82.729011,9.64061182 82.7767193,9.68931676 C85.0416956,11.9902698 88.3109129,12.9951045 91.478573,12.3794363 C109.538863,8.86889883 128.961445,14.114372 142.949503,28.1168016 C165.300257,50.490804 165.300257,86.8320549 142.949503,109.206293 C120.580798,131.598028 84.3152025,131.597886 61.9469705,109.205963 C61.5270407,108.785729 61.115141,108.360672 60.7112717,107.930839 Z" id="Primary-color" fill="#DEEDF2" transform="translate(79.856284, 64.629310) scale(-1, 1) rotate(-180.000000) translate(-79.856284, -64.629310) "></path>
                <g id="Group" transform="translate(23.529412, 36.931034)">
                    <path d="M89.7502965,80.1403448 C89.2154548,79.4353966 89.0210657,78.3817759 88.7197082,77.63175 C88.6632376,77.4927155 88.6029662,77.3553103 88.5464956,77.2162759 C88.5247761,77.3563966 88.490568,77.4921724 88.4400702,77.621431 C88.569301,78.1069655 88.5416087,78.6163966 88.2359073,79.1415776 C87.6912919,80.0708276 88.5177173,81.5893448 88.5177173,82.5805086 C88.5177173,83.2751379 88.4731924,84.1174914 88.2663146,84.8990172 C88.7403417,83.5331121 89.2442331,81.9450776 89.7502965,80.1403448" id="Fill-4" fill="#9F9F8D" fill-rule="nonzero"></path>
                    <path d="M99.4838711,80.6432586 L13.8131018,80.6432586 C10.8777172,80.6432586 11.1676719,79.0883534 12.0565407,77.5568017 L21.0201606,65.6709828 C22.1430565,64.1997155 22.3716538,63.7766379 23.4804321,63.7766379 L90.6793462,63.7766379 C91.8467671,63.7766379 92.0313824,63.9102414 93.0809752,65.6519741 L100.813645,77.5568017 C101.809482,79.0584828 102.179799,80.6432586 99.4838711,80.6432586 Z M46.2722874,86.0330172 L66.7374458,86.0330172 L66.7374458,82.0129655 L46.2722874,82.0129655 L46.2722874,86.0330172 Z M19.1734638,53.7270517 L93.7542784,53.7270517 L93.7542784,5.418 L19.1734638,5.418 L19.1734638,53.7270517 Z M56.4641426,0.406241379 C57.2292105,0.406241379 57.849301,1.02700862 57.849301,1.78626724 C57.849301,2.54878448 57.2292105,3.17172414 56.4641426,3.17172414 C55.7055906,3.17172414 55.0800702,2.54878448 55.0800702,1.78626724 C55.0800702,1.02700862 55.7055906,0.406241379 56.4641426,0.406241379 Z M112.922785,82.3958534 C112.870115,81.6360517 112.435726,80.7388448 111.85636,79.8573879 L100.656722,63.4866207 C99.1379888,60.9644483 98.8730114,60.7700172 97.1788938,60.7700172 L94.7935544,60.7700172 L94.7935544,59.1472241 L96.3459526,59.1472241 C98.8116539,59.1472241 100.813645,57.1469741 100.813645,54.6763966 L100.813645,4.47082759 C100.813645,2.00133621 98.8116539,0 96.3459526,0 L16.5904774,0 C14.1198891,0 12.1151832,2.00133621 12.1151832,4.47082759 L12.1151832,54.6763966 C12.1151832,57.1469741 14.1198891,59.1472241 16.5904774,59.1472241 L18.1379887,59.1472241 L18.1379887,60.7700172 L17.4201606,60.7700172 C15.8178077,60.7700172 15.4893009,61.3864397 13.8684864,63.5154052 L0.88568097,79.8573879 C0.370386852,80.7475345 -0.00590273991,81.642569 -6.8485709e-05,82.3958534 L-6.8485709e-05,85.2091293 C-6.8485709e-05,87.1914569 1.28911988,88.8006724 3.16730993,88.8006724 L109.770206,88.8006724 C111.646224,88.8006724 112.929301,87.1914569 112.929301,85.2091293 L112.929301,82.3958534 L112.922785,82.3958534 L112.922785,82.3958534 Z" id="Fill-9" fill="#767676"></path>
                    <path d="M56.4266766,0.406241379 C57.1933734,0.406241379 57.8118349,1.02700862 57.8118349,1.78626724 C57.8118349,2.54878448 57.1933734,3.17172414 56.4266766,3.17172414 C55.6648666,3.17172414 55.0453191,2.54878448 55.0453191,1.78626724 C55.0453191,1.02700862 55.6648666,0.406241379 56.4266766,0.406241379" id="Fill-10" fill="#444444" fill-rule="nonzero"></path>
                    <polygon id="Fill-11" fill="#444444" points="46.2386223 86.0330172 66.7010657 86.0330172 66.7010657 82.0129655 46.2386223 82.0129655"></polygon>
                    <path d="M13.7756357,80.6432586 C10.8397081,80.6432586 11.1312918,79.0883534 12.0185317,77.5568017 L20.9837805,65.6709828 C22.1093914,64.1997155 22.3363597,63.7766379 23.443509,63.7766379 L90.6386223,63.7766379 C91.810387,63.7766379 91.9960883,63.9102414 93.0456811,65.6519741 L100.776722,77.5568017 C101.771473,79.0584828 102.143419,80.6432586 99.447491,80.6432586 L13.7756357,80.6432586 Z" id="Fill-13" fill="#444444"></path>
                </g>
                <g id="Group-2" transform="translate(112.883156, 38.656308) rotate(10.000000) translate(-112.883156, -38.656308) translate(74.883156, 6.149303)">
                    <polyline id="Fill-171" fill="#990000" points="60.7013647 55.6148069 61.4524235 55.6183088 61.536 36.9699612 60.7860706 36.9665723 60.7013647 55.6148069"></polyline>
                    <path d="M61.0672941,55.0267084 L61.0672941,55.0228676 L61.0797176,55.024901 L61.0910118,55.0229806 L61.0910118,55.0267084 C62.8585412,55.1178716 62.6134588,64.2145328 62.6134588,64.2145328 L61.0503529,64.207529 L61.0266353,64.207416 L59.4635294,64.2002992 C59.4635294,64.2002992 59.2997647,55.1017175 61.0672941,55.0267084" id="Fill-172" fill="#990000"></path>
                    <polyline id="Fill-173" fill="#EC0000" points="17.1738353 30.0460788 5.1442008e-15 19.8670949 36.0350118 10.1033723 75.8388706 38.9465189 54.1315765 43.4271832 17.1738353 30.0460788 54.2328471 -1.31205391e-13"></polyline>
                    <path d="M16.6091294,34.8166126 C16.6091294,34.8166126 33.7716706,34.6921246 52.2149647,46.7993168 L55.8042353,40.4835277 C55.8042353,40.4835277 43.4450824,24.4864808 17.1241412,28.1554879 L16.6091294,34.8166126" id="Fill-174" fill="#990000"></path>
                </g>
            </g>
        </g>
    </g>
</svg>