<?xml version="1.0" encoding="UTF-8"?>
<svg width="159px" height="152px" viewBox="0 0 159 152" version="1.1" xmlns="http://www.w3.org/2000/svg" xmlns:xlink="http://www.w3.org/1999/xlink">
    <title>Concepts/Investments/Invest sem risco</title>
    <defs>
        <filter id="filter-1">
            <feColorMatrix in="SourceGraphic" type="matrix" values="0 0 0 0 0.807843 0 0 0 0 0.870588 0 0 0 0 0.905882 0 0 0 1.000000 0"></feColorMatrix>
        </filter>
    </defs>
    <g id="-↳-💡-Concepts-&amp;-infographics" stroke="none" stroke-width="1" fill="none" fill-rule="evenodd">
        <g id="documentation-/-concepts-/-01" transform="translate(-660.000000, -2890.000000)">
            <g id="investir-sem-risco" transform="translate(660.000000, 2890.000000)">
                <path d="M149.281668,68.400111 C147.112006,60.6102077 154.009397,60.3096886 154.161281,50.2722739 C154.223117,46.1671135 151.97616,41.9861466 146.569011,40.0681619 C143.911619,39.125994 141.263117,38.4781568 138.898673,36.9794291 C133.51046,33.5642637 133.607851,27.0657801 132.137706,21.5260957 C128.90988,9.35913383 116.486305,-0.306983222 103.910846,0.0074595257 C94.8453392,0.233719068 86.6493972,0.511805582 78.3846629,8.21236538 C72.7293972,13.4816987 69.0540348,19.9650982 63.8037933,25.3972611 C58.2436001,31.1496682 51.4683344,33.9096479 43.8606049,35.7580143 C36.665629,37.5058209 28.838769,39.5854749 23.3319091,44.8269609 C18.1566434,49.7524571 18.9110395,54.9042128 21.1297835,60.952111 C23.5769332,67.6211593 18.2710395,72.15834 12.7386724,74.7554901 C8.08050812,76.9418922 0.283020193,81.3893426 0.0279477295,89.589994 C-0.760844541,114.990625 15.3608946,115.092345 21.3717158,117.506554 C76.6660155,139.715572 97.8861121,122.585597 121.331909,122.932142 C144.704276,123.277139 158.102151,94.9904418 157.29017,86.660223 C156.259832,76.0832662 150.79703,73.8396225 149.281668,68.400111" id="Fill-5" fill="#DEEDF2" transform="translate(78.662534, 64.456087) scale(-1, 1) translate(-78.662534, -64.456087) "></path>
                <g filter="url(#filter-1)" id="g.-illustration/Backgrounds/Shapes/Bubble-02">
                    <g transform="translate(80.475578, 125.797790) scale(-1, 1) rotate(4.000000) translate(-80.475578, -125.797790) translate(2.475578, 104.781759)">
                        <path d="M57.4389967,7.06209884 C51.49423,9.1086982 49.8612112,12.8662728 43.6426682,13.8831825 C31.1534781,15.9254716 5.124881,13.6107489 1.24772982,19.5393321 C-2.57455228,25.3840145 2.42069336,35.8996236 24.6737133,32.7915014 C24.1809765,33.1971742 35.5986504,39.1880123 53.9958628,40.8617628 C61.2754763,41.5240593 73.4857704,40.8641743 78.1685766,39.4167251 C85.3662682,37.1918394 92.8425546,35.9958297 100.373958,35.8251089 C127.160947,35.2180617 148.166412,32.174054 148.412479,27.5717976 C148.495004,26.0335928 146.948424,23.9011809 144.525702,22.6611647 C143.016168,21.8885207 145.23258,21.2372862 145.747303,21.0518263 C152.06855,18.7750674 155.614387,16.2329438 155.743595,14.2145266 C156.148687,7.88103999 132.816577,1.60319438 105.52631,0.140734852 C86.9345326,-0.855437598 67.3617994,3.64557396 57.4389967,7.06209884 Z" id="Primary-color" fill="#C3DEE7" fill-rule="nonzero"></path>
                    </g>
                </g>
                <g id="Group" transform="translate(23.188406, 55.694656)">
                    <path d="M5.41062802,22.6240483 C5.41062802,22.6240483 5.60263749,20.8356041 11.0090368,21.0080226 C16.4158225,21.1806182 24.2447476,19.8409224 29.3065343,19.7354178 C35.1599255,19.6136273 40.9661836,20.6198153 40.9661836,20.6198153 L32.2139131,32.4885496 L13.7854473,32.4885496 L5.41062802,22.6240483 Z" id="Fill-4" fill="#767676"></path>
                    <path d="M40.1932367,8.1277365 C34.9781965,16.4105067 29.9000831,24.791479 27.0574228,33.648855 C22.4288029,32.3833144 17.8074298,31.1174219 13.1400966,29.8471296 C15.5380311,20.8989431 16.2695784,11.8361874 18.3366383,2.32061069 C25.9721162,3.43832005 33.1317832,5.42348172 40.1932367,8.1277365" id="Fill-5" fill="#63BA68"></path>
                    <path d="M40.3615583,7.87583529 C35.0218471,16.149517 29.7839935,24.5645676 26.8328592,33.5261276 L27.7283072,33.7646109 L27.9934878,32.9590715 C23.2577017,31.6960587 18.5287451,30.4328704 13.7523721,29.1651161 L13.4881671,29.9710067 L14.3945423,30.1727867 C15.6336129,25.6632061 16.4377404,21.1432642 17.1969882,16.5737994 C17.9560408,12.0039833 18.6702138,7.38429293 19.7205944,2.66854199 L18.8052432,2.50328963 L18.6588963,3.33323932 C26.3914769,4.43732177 33.6422836,6.39699349 40.8109407,9.07422224 L41.1688077,8.2980103 L40.3615583,7.87583529 L41.1688077,8.2980103 L41.5266748,7.52179836 C34.2448426,4.80207114 26.8441767,2.79990094 18.9515901,1.67333994 L18.0658986,1.54707379 L17.8896969,2.33821288 C16.825267,7.11753595 16.1075818,11.7672562 15.3502853,16.3251306 C14.5931839,20.8835317 13.7962761,25.3497358 12.5817919,29.7694023 L12.3671498,30.5496534 L13.2239622,30.7770729 C17.998579,32.0443004 22.7267551,33.3073131 27.4629315,34.5703259 L28.3581843,34.8091603 L28.6233649,34.0032697 C30.5961738,28.004595 33.6528501,22.197436 37.1055344,16.4677259 C38.6691834,13.8728593 40.3140533,11.2938775 41.9762524,8.72018531 L42.5120773,7.88988438 L41.5266748,7.52179836 L41.1688077,8.2980103 L40.3615583,7.87583529 Z" id="Fill-6" fill="#3A8340"></path>
                    <path d="M26.6848353,13.0904711 C30.9237546,14.2069028 33.0779691,17.5335786 31.6250996,20.3005127 C30.1616863,23.0818083 26.4368654,24.6193928 23.0693554,23.7250266 C19.7188323,22.8207869 17.3387113,19.7124068 17.8459758,16.7241252 C18.3649554,13.7502052 22.4427919,11.9982744 26.6848353,13.0904711" id="Fill-7" fill="#165E34" fill-rule="nonzero"></path>
                    <path d="M13.1400966,29.9717207 C14.3854552,30.2955903 15.624696,30.6179433 16.8625985,30.9414758 C17.4479974,29.1384559 16.1739615,27.2324785 14.0038562,26.6870229 C13.7453784,27.786191 13.4608998,28.881315 13.1400966,29.9717207" id="Fill-8" fill="#165E34" fill-rule="nonzero"></path>
                    <path d="M23.0859615,16.5466025 C22.5304299,16.4465064 22.1462453,16.7606819 21.9377963,17.4806522 C21.7253578,18.2053117 21.870574,18.6276991 22.3626733,18.7514214 C22.6646751,18.8259073 22.9192023,18.7663907 23.1256566,18.5681825 C23.3378957,18.3705152 23.6406953,17.9439797 24.0508113,17.2869527 C24.4591321,16.6304668 24.9346752,16.1898637 25.4794353,15.9705541 C26.0218017,15.7521463 26.6447552,15.7314057 27.3345321,15.9139232 C28.1362131,16.1269204 28.6498555,16.5563416 28.8567088,17.1888406 C29.067352,17.8207985 29.0160875,18.4659221 28.7288467,19.1283597 C28.0316894,20.724847 26.8789362,21.423716 25.2556269,21.2449859 C25.3725179,20.785085 25.4912042,20.3260859 25.6092921,19.8665457 C26.4765997,19.9863003 27.0776111,19.6212653 27.42609,18.7672925 C27.7528264,17.9672453 27.5519574,17.4658632 26.8155039,17.2714423 C26.4905627,17.1861353 26.2116998,17.220222 25.9805109,17.376408 C25.7503193,17.5315118 25.4060293,17.9486689 24.9679871,18.6276991 C24.5287481,19.3052863 24.0735512,19.7579731 23.6006013,19.9868414 C23.1264545,20.2148079 22.6229852,20.2597159 22.0750335,20.1222867 C21.4923736,19.9734952 21.0511398,19.6402024 20.7521301,19.1191617 C20.452522,18.5990229 20.3996618,17.9378477 20.6111029,17.1356363 C21.0230141,15.5432972 21.9838745,14.8687759 23.4494009,15.1438147 C23.3275231,15.6116511 23.2070415,16.0791268 23.0859615,16.5466025" id="Fill-9" fill="#85BF43" fill-rule="nonzero"></path>
                    <path d="M21.2560386,16.9768109 C21.1377263,17.377855 21.0188083,17.778733 20.9027169,18.178117 C20.3789931,18.0635805 19.8530484,17.9498738 19.3236715,17.8374952 C19.4286586,17.4357872 19.5336456,17.0342452 19.6364117,16.6310433 C20.1817386,16.7459118 20.7216143,16.8609464 21.2560386,16.9768109" id="Fill-10" fill="#85BF43" fill-rule="nonzero"></path>
                    <path d="M30.1449275,18.9576055 C29.965151,19.3425011 29.787034,19.7270637 29.6107608,20.1119593 C29.1431574,19.9834388 28.6777667,19.8574154 28.2125604,19.7327239 C28.3762953,19.3433335 28.5426116,18.954276 28.711325,18.5648855 C29.1875945,18.6947378 29.6653391,18.8250895 30.1449275,18.9576055" id="Fill-11" fill="#85BF43" fill-rule="nonzero"></path>
                    <path d="M27.3596224,33.648855 C27.7455692,32.4090073 28.1592931,31.1768785 28.5990338,29.9522756 C26.4525594,29.3233785 24.1941937,30.4821778 23.5748792,32.5415793 C24.835417,32.9107355 26.0973241,33.2800847 27.3596224,33.648855" id="Fill-12" fill="#165E34" fill-rule="nonzero"></path>
                    <path d="M41.352657,7.87519739 C39.1394879,7.12891139 36.9249736,6.43762653 34.6940886,5.80152672 C33.6163209,7.80879138 35.5518626,10.1493738 39.0567382,11.216285 C39.8227919,10.1013628 40.5935552,8.98772825 41.352657,7.87519739" id="Fill-13" fill="#3A8340"></path>
                    <path d="M18.5195879,2.32061069 C18.2595292,3.57288927 18.0123251,4.81539999 17.7777778,6.05031343 C21.0446297,6.59206909 24.0595311,5.50204587 24.7342995,3.42076356 C22.6902181,2.9920621 20.6178565,2.62395767 18.5195879,2.32061069" id="Fill-14" fill="#165E34" fill-rule="nonzero"></path>
                    <path d="M22.3411115,25.9645708 C22.9675603,26.1538954 23.3225751,26.8016644 23.1409131,27.4124756 C22.9577847,28.0226148 22.3215604,28.3691779 21.7133592,28.1843891 C21.1049952,28.0001042 20.746396,27.3535111 20.9085069,26.7378282 C21.0735505,26.1229853 21.7146626,25.7767581 22.3411115,25.9645708" id="Fill-15" fill="#165E34" fill-rule="nonzero"></path>
                    <path d="M28.2997746,8.97730739 C29.3627293,9.21830583 29.9753437,9.90427305 29.6874767,10.4937143 C29.3960214,11.0820479 28.355195,11.3635555 27.3494548,11.1394887 C26.3475024,10.914156 25.7105668,10.2544565 25.9408205,9.64966605 C26.1776529,9.04756566 27.2370192,8.73678371 28.2997746,8.97730739" id="Fill-16" fill="#165E34" fill-rule="nonzero"></path>
                    <path d="M28.382682,30.9414758 C23.5704197,30.3013717 18.7641129,29.6602141 13.9130435,29.0223923 C14.9043515,19.8720279 14.2165835,10.8271772 14.7904279,1.16030534 C22.5766142,1.25598739 30.0252563,2.27320173 37.4879227,4.01075268 C33.5857042,12.8765288 29.8323739,21.8209572 28.382682,30.9414758 Z" id="Fill-17" fill="#63BA68"></path>
                    <path d="M36.5437805,3.36019856 C32.6283299,12.1629575 28.8317454,21.0910971 27.3558417,30.2637286 L28.2682396,30.3835367 L28.4009765,29.5588113 C23.5754399,28.9240723 18.7552976,28.2881144 13.8893042,27.6552909 L13.7581085,28.4800163 L14.6755153,28.5622102 C15.1773726,23.9783324 15.252892,19.4395567 15.2767808,14.8579426 C15.300477,10.2761545 15.2725425,5.65117973 15.5584374,0.88898288 L14.6379482,0.843880713 L14.6254259,1.67713891 C19.7773142,1.73982918 27.0834324,2.30084906 36.5437805,3.36019856 L37.3989608,3.67121196 L37.6264823,2.86372644 C30.084366,1.12650935 22.5385892,0.106399322 14.6502779,0.0107966579 L13.7650439,0 L13.7172664,0.798778546 C13.4279037,5.6252329 13.4569941,10.2801597 13.4331053,14.8501064 C13.4096018,19.4205755 13.3329265,23.905542 12.8407017,28.3979965 L12.7536232,29.1913767 L13.6269128,29.3049158 C18.490209,29.9373909 23.3093881,30.5731748 28.13531,31.2080879 L29.0479005,31.3282443 L29.1804448,30.5031706 C30.6120386,21.5828674 34.3431216,12.7673963 38.2541411,3.98205121 L38.647343,3.09864081 L37.6264823,2.86372644 L37.3989608,3.67121196 L36.5437805,3.36019856 Z" id="Fill-18" fill="#3A8340"></path>
                    <path d="M13.9130435,28.9028563 C15.1932298,29.0667613 16.4694113,29.230497 17.7442579,29.394402 C18.0295489,27.5284585 16.462546,25.7945871 14.2326609,25.5267176 C14.1556171,26.651702 14.0528284,27.7770252 13.9130435,28.9028563" id="Fill-20" fill="#165E34" fill-rule="nonzero"></path>
                    <path d="M27.9600048,30.9414758 C28.1483483,29.6630738 28.360574,28.3881368 28.5990338,27.1174348 C26.5496901,26.7986524 24.6376688,28.2605083 24.3478261,30.3814891 C25.5515238,30.5678305 26.7572117,30.7539794 27.9600048,30.9414758" id="Fill-24" fill="#165E34" fill-rule="nonzero"></path>
                    <path d="M37.4879227,3.25144203 C35.3349805,2.75517092 33.1893202,2.31482575 31.0382505,1.93384224 C30.372894,4.12812402 32.5299973,6.29434742 35.9212765,6.96183206 C36.4443241,5.72306304 36.9707006,4.48582098 37.4879227,3.25144203" id="Fill-25" fill="#3A8340"></path>
                    <path d="M14.4532562,0.386768448 C14.3884288,1.68522424 14.3380521,2.97169316 14.2995169,4.24875699 C17.6675322,4.35903627 20.5213436,2.85735675 20.8695652,0.66744587 C18.7483237,0.507743736 16.608216,0.412033103 14.4532562,0.386768448" id="Fill-26" fill="#3A8340"></path>
                    <path d="M21.412472,23.6052703 C22.057467,23.7002787 22.4981377,24.2905433 22.4023963,24.9237639 C22.3061671,25.5556368 21.7271672,25.9942924 21.099565,25.9009686 C20.474401,25.8088239 20.0303168,25.2200754 20.1047643,24.5850018 C20.1827879,23.950939 20.7676397,23.5124519 21.412472,23.6052703" id="Fill-27" fill="#165E34" fill-rule="nonzero"></path>
                    <path d="M5.41062802,22.6154188 C5.41062802,22.6154188 5.60263749,19.5596649 11.0090368,19.7322342 C16.4158225,19.905158 22.1791971,22.038711 27.2367341,22.2555744 C34.4830632,22.5659867 40.9661836,20.6094325 40.9661836,20.6094325 L32.2139131,32.4885496 L13.7854473,32.4885496 L5.41062802,22.6154188 Z" id="Fill-30" fill="#9BC3D3"></path>
                    <path d="M42.7252928,50.4645508 C40.045544,44.4552965 35.9249249,38.1756539 32.1261451,32.4885496 L13.7740006,32.4885496 C10.0169656,38.1756539 6.22684251,44.5346057 3.25891954,50.4645508 C-3.07244431,63.1170064 0.535694377,67.2870583 7.96569758,70.2760691 C13.4771698,72.4932188 32.5062731,72.4932188 38.0177454,70.2760691 C45.4489028,67.2870583 47.3224186,60.7733482 42.7252928,50.4645508" id="Fill-31" fill="#9BC3D3"></path>
                    <path d="M34.0096618,32.7138532 C34.0096618,33.0164309 33.6421752,33.2620865 33.1897951,33.2620865 L12.8015056,33.2620865 C12.3475855,33.2620865 11.9806763,33.0164309 11.9806763,32.7138532 L11.9806763,32.2632461 C11.9806763,31.9606683 12.3475855,31.7150127 12.8015056,31.7150127 L33.1897951,31.7150127 C33.6421752,31.7150127 34.0096618,31.9606683 34.0096618,32.2632461 L34.0096618,32.7138532" id="Fill-35" fill="#DEEDF2"></path>
                </g>
                <path d="M99.4769175,13.7938336 C100.111537,8.63513841 104.504848,4.64122137 109.829596,4.64122137 C115.590333,4.64122137 120.260591,9.31618648 120.260591,15.0832978 C120.260591,16.0294435 120.134971,16.946196 119.899212,17.8177028 C119.98778,17.8188714 120.075587,17.8220215 120.162887,17.8271279 L120.261098,17.8190238 L120.261098,17.8336569 C123.248815,18.0583611 125.603865,20.5566805 125.603865,23.6053919 C125.603865,26.6541032 123.248815,29.1524227 120.261098,29.3771269 L120.261098,29.394402 L82.2829952,29.394402 L82.2829952,29.3938177 L82.282868,29.3938177 C79.954972,29.3938177 78.0676329,27.5042193 78.0676329,25.173596 C78.0676329,22.8429727 79.954972,20.9536283 82.282868,20.9536283 L82.2829952,20.9536283 L82.2829952,20.9534505 L91.9049233,20.1593263 C91.8609693,19.8716439 91.8381801,19.5770007 91.8381801,19.2770479 C91.8381801,16.0803798 94.4267049,13.4888507 97.6199807,13.4888507 C98.2695478,13.4888507 98.8940931,13.5960838 99.4769175,13.7938336 Z" id="Primary-color-Copy-2" fill="#9BC3D3" transform="translate(101.835749, 17.017812) scale(-1, 1) translate(-101.835749, -17.017812) "></path>
                <path d="M77.1146056,27.2201774 C77.5789615,23.4317606 80.7935791,20.4987277 84.6897364,20.4987277 C88.9049098,20.4987277 92.3221716,23.9319052 92.3221716,28.1671276 C92.3221716,28.8619533 92.2302547,29.5351934 92.057748,30.1752062 C92.1225542,30.1760644 92.1868031,30.1783779 92.2506806,30.1821278 L92.3225426,30.1761764 L92.3225426,30.1869226 C94.5086767,30.3519397 96.2318841,32.186643 96.2318841,34.4255405 C96.2318841,36.6644379 94.5086767,38.4991413 92.3225426,38.6641584 L92.3225426,38.6768448 L64.533687,38.6768448 L64.533687,38.6764159 L64.5335938,38.6764159 C62.8302555,38.6764159 61.4492754,37.2887417 61.4492754,35.5771904 C61.4492754,33.8656387 62.8302555,32.4781516 64.5335938,32.4781516 L64.533687,32.4781516 L64.533687,32.478021 L71.5741221,31.894836 C71.5419606,31.6835693 71.5252854,31.4671907 71.5252854,31.2469129 C71.5252854,28.8993597 73.4193283,26.9962055 75.7558713,26.9962055 C76.2311644,26.9962055 76.6881488,27.0749548 77.1146056,27.2201774 Z" id="Primary-color-Copy-2" fill="#EFF6F9" transform="translate(78.840580, 29.587786) scale(-1, 1) translate(-78.840580, -29.587786) "></path>
                <path d="M16.9988096,25.4293447 C17.4683253,21.5603233 20.7186608,18.5648855 24.6581087,18.5648855 C28.9201174,18.5648855 32.3753484,22.0711093 32.3753484,26.3964428 C32.3753484,27.1060521 32.2824104,27.7936164 32.1079872,28.4472465 C32.1735134,28.448123 32.2384761,28.4504856 32.3030632,28.4543154 L32.3757241,28.4482373 L32.3757241,28.4592121 C34.586148,28.6277403 36.3285024,30.5014798 36.3285024,32.7880132 C36.3285024,35.0745469 34.586148,36.9482865 32.3757241,37.1168146 L32.3757241,37.129771 L4.27810292,37.129771 L4.27810292,37.1293328 L4.27800904,37.1293328 C2.55574446,37.1293328 1.15942029,35.7121339 1.15942029,33.9641664 C1.15942029,32.216199 2.55574446,30.7991907 4.27800904,30.7991907 L4.27810292,30.7991907 L4.27810292,30.7990573 L11.3967653,30.2034642 C11.3642463,29.9877024 11.347386,29.76672 11.347386,29.5417554 C11.347386,27.1442543 13.2624737,25.2006075 15.6249783,25.2006075 C16.1055527,25.2006075 16.5676145,25.2810323 16.9988096,25.4293447 Z" id="Primary-color" fill="#EFF6F9"></path>
                <g id="Group-33" transform="translate(18.937198, 104.814249)">
                    <path d="M10.0483092,26.880245 C10.0483092,27.4142889 7.79832796,27.8473282 5.02406327,27.8473282 C2.24888555,27.8473282 0,27.4142889 0,26.880245 C0,26.3468495 2.24888555,25.913486 5.02406327,25.913486 C7.79832796,25.913486 10.0483092,26.3468495 10.0483092,26.880245" id="Fill-157" fill="#D39E00"></path>
                    <path d="M22.4154589,26.880245 C22.4154589,27.4142889 20.1654777,27.8473282 17.391213,27.8473282 C14.6160353,27.8473282 12.3671498,27.4142889 12.3671498,26.880245 C12.3671498,26.3468495 14.6160353,25.913486 17.391213,25.913486 C20.1654777,25.913486 22.4154589,26.3468495 22.4154589,26.880245" id="Fill-157-Copy" fill="#D39E00"></path>
                    <polygon id="Fill-158" fill="#D39E00" points="0 27.0737913 10.0483092 27.0737913 10.0483092 25.5267176 0 25.5267176"></polygon>
                    <polygon id="Fill-158-Copy" fill="#D39E00" points="12.3671498 27.0737913 22.4154589 27.0737913 22.4154589 25.5267176 12.3671498 25.5267176"></polygon>
                    <path d="M10.0483092,25.332766 C10.0483092,25.867162 7.79832796,26.3002545 5.02406327,26.3002545 C2.24888555,26.3002545 0,25.867162 0,25.332766 C0,24.7993426 2.24888555,24.3664122 5.02406327,24.3664122 C7.79832796,24.3664122 10.0483092,24.7993426 10.0483092,25.332766" id="Fill-159" fill="#FFCC33"></path>
                    <path d="M22.4154589,25.332766 C22.4154589,25.867162 20.1654777,26.3002545 17.391213,26.3002545 C14.6160353,26.3002545 12.3671498,25.867162 12.3671498,25.332766 C12.3671498,24.7993426 14.6160353,24.3664122 17.391213,24.3664122 C20.1654777,24.3664122 22.4154589,24.7993426 22.4154589,25.332766" id="Fill-159-Copy" fill="#FFCC33"></path>
                    <path d="M10.0483092,24.5596343 C10.0483092,25.0936783 7.79832796,25.5267176 5.02406327,25.5267176 C2.24888555,25.5267176 0,25.0936783 0,24.5596343 C0,24.0262388 2.24888555,23.5928753 5.02406327,23.5928753 C7.79832796,23.5928753 10.0483092,24.0262388 10.0483092,24.5596343" id="Fill-160" fill="#D39E00"></path>
                    <path d="M22.4154589,24.5596343 C22.4154589,25.0936783 20.1654777,25.5267176 17.391213,25.5267176 C14.6160353,25.5267176 12.3671498,25.0936783 12.3671498,24.5596343 C12.3671498,24.0262388 14.6160353,23.5928753 17.391213,23.5928753 C20.1654777,23.5928753 22.4154589,24.0262388 22.4154589,24.5596343" id="Fill-160-Copy" fill="#D39E00"></path>
                    <polygon id="Fill-161" fill="#D39E00" points="0 24.3664122 10.0483092 24.3664122 10.0483092 22.8193384 0 22.8193384"></polygon>
                    <polygon id="Fill-161-Copy" fill="#D39E00" points="12.3671498 24.3664122 22.4154589 24.3664122 22.4154589 22.8193384 12.3671498 22.8193384"></polygon>
                    <path d="M10.0483092,23.0121553 C10.0483092,23.5465513 7.79832796,23.9796438 5.02406327,23.9796438 C2.24888555,23.9796438 0,23.5465513 0,23.0121553 C0,22.4787319 2.24888555,22.0458015 5.02406327,22.0458015 C7.79832796,22.0458015 10.0483092,22.4787319 10.0483092,23.0121553" id="Fill-162" fill="#FFCC33"></path>
                    <path d="M22.4154589,23.0121553 C22.4154589,23.5465513 20.1654777,23.9796438 17.391213,23.9796438 C14.6160353,23.9796438 12.3671498,23.5465513 12.3671498,23.0121553 C12.3671498,22.4787319 14.6160353,22.0458015 17.391213,22.0458015 C20.1654777,22.0458015 22.4154589,22.4787319 22.4154589,23.0121553" id="Fill-162-Copy" fill="#FFCC33"></path>
                    <path d="M10.0483092,22.6257921 C10.0483092,23.159836 7.79832796,23.5928753 5.02406327,23.5928753 C2.24888555,23.5928753 0,23.159836 0,22.6257921 C0,22.0923966 2.24888555,21.6590331 5.02406327,21.6590331 C7.79832796,21.6590331 10.0483092,22.0923966 10.0483092,22.6257921" id="Fill-163" fill="#D39E00"></path>
                    <path d="M22.4154589,22.6257921 C22.4154589,23.159836 20.1654777,23.5928753 17.391213,23.5928753 C14.6160353,23.5928753 12.3671498,23.159836 12.3671498,22.6257921 C12.3671498,22.0923966 14.6160353,21.6590331 17.391213,21.6590331 C20.1654777,21.6590331 22.4154589,22.0923966 22.4154589,22.6257921" id="Fill-163-Copy" fill="#D39E00"></path>
                    <polygon id="Fill-164" fill="#D39E00" points="0 22.43257 10.0483092 22.43257 10.0483092 20.8854962 0 20.8854962"></polygon>
                    <polygon id="Fill-164-Copy" fill="#D39E00" points="12.3671498 22.43257 22.4154589 22.43257 22.4154589 20.8854962 12.3671498 20.8854962"></polygon>
                    <path d="M10.0483092,21.0783131 C10.0483092,21.612709 7.79832796,22.0458015 5.02406327,22.0458015 C2.24888555,22.0458015 0,21.612709 0,21.0783131 C0,20.5448897 2.24888555,20.1119593 5.02406327,20.1119593 C7.79832796,20.1119593 10.0483092,20.5448897 10.0483092,21.0783131" id="Fill-165" fill="#FFCC33"></path>
                    <path d="M22.4154589,21.0783131 C22.4154589,21.612709 20.1654777,22.0458015 17.391213,22.0458015 C14.6160353,22.0458015 12.3671498,21.612709 12.3671498,21.0783131 C12.3671498,20.5448897 14.6160353,20.1119593 17.391213,20.1119593 C20.1654777,20.1119593 22.4154589,20.5448897 22.4154589,21.0783131" id="Fill-165-Copy" fill="#FFCC33"></path>
                    <path d="M10.0483092,19.9184129 C10.0483092,20.4524569 7.79832796,20.8854962 5.02406327,20.8854962 C2.24888555,20.8854962 0,20.4524569 0,19.9184129 C0,19.3850175 2.24888555,18.9516539 5.02406327,18.9516539 C7.79832796,18.9516539 10.0483092,19.3850175 10.0483092,19.9184129" id="Fill-166" fill="#D39E00" fill-rule="nonzero"></path>
                    <path d="M22.4154589,19.9184129 C22.4154589,20.4524569 20.1654777,20.8854962 17.391213,20.8854962 C14.6160353,20.8854962 12.3671498,20.4524569 12.3671498,19.9184129 C12.3671498,19.3850175 14.6160353,18.9516539 17.391213,18.9516539 C20.1654777,18.9516539 22.4154589,19.3850175 22.4154589,19.9184129" id="Fill-166-Copy" fill="#D39E00" fill-rule="nonzero"></path>
                    <polygon id="Fill-167" fill="#D39E00" points="0 20.4987277 10.0483092 20.4987277 10.0483092 18.9516539 0 18.9516539"></polygon>
                    <polygon id="Fill-167-Copy" fill="#D39E00" points="12.3671498 20.4987277 22.4154589 20.4987277 22.4154589 18.9516539 12.3671498 18.9516539"></polygon>
                    <path d="M10.0483092,18.7577024 C10.0483092,19.2920984 7.79832796,19.7251908 5.02406327,19.7251908 C2.24888555,19.7251908 0,19.2920984 0,18.7577024 C0,18.224279 2.24888555,17.7913486 5.02406327,17.7913486 C7.79832796,17.7913486 10.0483092,18.224279 10.0483092,18.7577024" id="Fill-168" fill="#FFCC33"></path>
                    <path d="M22.4154589,18.7577024 C22.4154589,19.2920984 20.1654777,19.7251908 17.391213,19.7251908 C14.6160353,19.7251908 12.3671498,19.2920984 12.3671498,18.7577024 C12.3671498,18.224279 14.6160353,17.7913486 17.391213,17.7913486 C20.1654777,17.7913486 22.4154589,18.224279 22.4154589,18.7577024" id="Fill-168-Copy" fill="#FFCC33"></path>
                    <path d="M10.0483092,17.9845707 C10.0483092,18.5186146 7.79832796,18.9516539 5.02406327,18.9516539 C2.24888555,18.9516539 0,18.5186146 0,17.9845707 C0,17.4511752 2.24888555,17.0178117 5.02406327,17.0178117 C7.79832796,17.0178117 10.0483092,17.4511752 10.0483092,17.9845707" id="Fill-169" fill="#D39E00"></path>
                    <path d="M22.4154589,17.9845707 C22.4154589,18.5186146 20.1654777,18.9516539 17.391213,18.9516539 C14.6160353,18.9516539 12.3671498,18.5186146 12.3671498,17.9845707 C12.3671498,17.4511752 14.6160353,17.0178117 17.391213,17.0178117 C20.1654777,17.0178117 22.4154589,17.4511752 22.4154589,17.9845707" id="Fill-169-Copy" fill="#D39E00"></path>
                    <polygon id="Fill-170" fill="#D39E00" points="0 18.178117 10.0483092 18.178117 10.0483092 16.6310433 0 16.6310433"></polygon>
                    <polygon id="Fill-170-Copy" fill="#D39E00" points="12.3671498 18.178117 22.4154589 18.178117 22.4154589 16.6310433 12.3671498 16.6310433"></polygon>
                    <path d="M10.0483092,16.4370917 C10.0483092,16.9714877 7.79832796,17.4045802 5.02406327,17.4045802 C2.24888555,17.4045802 0,16.9714877 0,16.4370917 C0,15.9036683 2.24888555,15.4707379 5.02406327,15.4707379 C7.79832796,15.4707379 10.0483092,15.9036683 10.0483092,16.4370917" id="Fill-171" fill="#FFCC33"></path>
                    <path d="M22.4154589,16.4370917 C22.4154589,16.9714877 20.1654777,17.4045802 17.391213,17.4045802 C14.6160353,17.4045802 12.3671498,16.9714877 12.3671498,16.4370917 C12.3671498,15.9036683 14.6160353,15.4707379 17.391213,15.4707379 C20.1654777,15.4707379 22.4154589,15.9036683 22.4154589,16.4370917" id="Fill-171-Copy" fill="#FFCC33"></path>
                    <path d="M10.0483092,15.66396 C10.0483092,16.198004 7.79832796,16.6310433 5.02406327,16.6310433 C2.24888555,16.6310433 0,16.198004 0,15.66396 C0,15.1305645 2.24888555,14.697201 5.02406327,14.697201 C7.79832796,14.697201 10.0483092,15.1305645 10.0483092,15.66396" id="Fill-172" fill="#D39E00" fill-rule="nonzero"></path>
                    <path d="M22.4154589,15.66396 C22.4154589,16.198004 20.1654777,16.6310433 17.391213,16.6310433 C14.6160353,16.6310433 12.3671498,16.198004 12.3671498,15.66396 C12.3671498,15.1305645 14.6160353,14.697201 17.391213,14.697201 C20.1654777,14.697201 22.4154589,15.1305645 22.4154589,15.66396" id="Fill-172-Copy" fill="#D39E00"></path>
                    <polygon id="Fill-173" fill="#D39E00" points="0 16.2442748 10.0483092 16.2442748 10.0483092 14.697201 0 14.697201"></polygon>
                    <polygon id="Fill-173-Copy" fill="#D39E00" points="12.3671498 16.2442748 22.4154589 16.2442748 22.4154589 14.697201 12.3671498 14.697201"></polygon>
                    <path d="M10.0483092,14.116481 C10.0483092,14.650877 7.79832796,15.0839695 5.02406327,15.0839695 C2.24888555,15.0839695 0,14.650877 0,14.116481 C0,13.5830576 2.24888555,13.1501272 5.02406327,13.1501272 C7.79832796,13.1501272 10.0483092,13.5830576 10.0483092,14.116481" id="Fill-174" fill="#FFCC33"></path>
                    <path d="M22.4154589,14.116481 C22.4154589,14.650877 20.1654777,15.0839695 17.391213,15.0839695 C14.6160353,15.0839695 12.3671498,14.650877 12.3671498,14.116481 C12.3671498,13.5830576 14.6160353,13.1501272 17.391213,13.1501272 C20.1654777,13.1501272 22.4154589,13.5830576 22.4154589,14.116481" id="Fill-174-Copy" fill="#FFCC33"></path>
                    <path d="M10.0483092,13.7301178 C10.0483092,14.2641617 7.79832796,14.697201 5.02406327,14.697201 C2.24888555,14.697201 0,14.2641617 0,13.7301178 C0,13.1967223 2.24888555,12.7633588 5.02406327,12.7633588 C7.79832796,12.7633588 10.0483092,13.1967223 10.0483092,13.7301178" id="Fill-175" fill="#D39E00"></path>
                    <path d="M22.4154589,13.7301178 C22.4154589,14.2641617 20.1654777,14.697201 17.391213,14.697201 C14.6160353,14.697201 12.3671498,14.2641617 12.3671498,13.7301178 C12.3671498,13.1967223 14.6160353,12.7633588 17.391213,12.7633588 C20.1654777,12.7633588 22.4154589,13.1967223 22.4154589,13.7301178" id="Fill-175-Copy" fill="#D39E00"></path>
                    <polygon id="Fill-176" fill="#D39E00" points="0 13.5368957 10.0483092 13.5368957 10.0483092 11.9898219 0 11.9898219"></polygon>
                    <polygon id="Fill-176-Copy" fill="#D39E00" points="12.3671498 13.5368957 22.4154589 13.5368957 22.4154589 11.9898219 12.3671498 11.9898219"></polygon>
                    <path d="M10.0483092,12.1826388 C10.0483092,12.7170347 7.79832796,13.1501272 5.02406327,13.1501272 C2.24888555,13.1501272 0,12.7170347 0,12.1826388 C0,11.6492154 2.24888555,11.216285 5.02406327,11.216285 C7.79832796,11.216285 10.0483092,11.6492154 10.0483092,12.1826388" id="Fill-177" fill="#FFCC33"></path>
                    <path d="M22.4154589,12.1826388 C22.4154589,12.7170347 20.1654777,13.1501272 17.391213,13.1501272 C14.6160353,13.1501272 12.3671498,12.7170347 12.3671498,12.1826388 C12.3671498,11.6492154 14.6160353,11.216285 17.391213,11.216285 C20.1654777,11.216285 22.4154589,11.6492154 22.4154589,12.1826388" id="Fill-177-Copy" fill="#FFCC33"></path>
                    <path d="M10.0483092,11.4095071 C10.0483092,11.943551 7.79832796,12.3765903 5.02406327,12.3765903 C2.24888555,12.3765903 0,11.943551 0,11.4095071 C0,10.8761116 2.24888555,10.4427481 5.02406327,10.4427481 C7.79832796,10.4427481 10.0483092,10.8761116 10.0483092,11.4095071" id="Fill-178" fill="#D39E00"></path>
                    <polygon id="Fill-179" fill="#D39E00" points="0 11.216285 10.0483092 11.216285 10.0483092 9.6692112 0 9.6692112"></polygon>
                    <path d="M10.0483092,9.86202811 C10.0483092,10.3964241 7.79832796,10.8295165 5.02406327,10.8295165 C2.24888555,10.8295165 0,10.3964241 0,9.86202811 C0,9.32860468 2.24888555,8.8956743 5.02406327,8.8956743 C7.79832796,8.8956743 10.0483092,9.32860468 10.0483092,9.86202811" id="Fill-180" fill="#FFCC33"></path>
                    <path d="M10.0483092,9.47566484 C10.0483092,10.0097088 7.79832796,10.4427481 5.02406327,10.4427481 C2.24888555,10.4427481 0,10.0097088 0,9.47566484 C0,8.94226938 2.24888555,8.50890585 5.02406327,8.50890585 C7.79832796,8.50890585 10.0483092,8.94226938 10.0483092,9.47566484" id="Fill-181" fill="#D39E00"></path>
                    <polygon id="Fill-182" fill="#D39E00" fill-rule="nonzero" points="0 8.8956743 10.0483092 8.8956743 10.0483092 7.34860051 0 7.34860051"></polygon>
                    <path d="M10.0483092,7.92818587 C10.0483092,8.46258182 7.79832796,8.8956743 5.02406327,8.8956743 C2.24888555,8.8956743 0,8.46258182 0,7.92818587 C0,7.39476244 2.24888555,6.96183206 5.02406327,6.96183206 C7.79832796,6.96183206 10.0483092,7.39476244 10.0483092,7.92818587" id="Fill-183" fill="#FFCC33"></path>
                    <path d="M10.0483092,6.7682857 C10.0483092,7.30232966 7.79832796,7.73536896 5.02406327,7.73536896 C2.24888555,7.73536896 0,7.30232966 0,6.7682857 C0,6.23489024 2.24888555,5.80152672 5.02406327,5.80152672 C7.79832796,5.80152672 10.0483092,6.23489024 10.0483092,6.7682857" id="Fill-184" fill="#D39E00" fill-rule="nonzero"></path>
                    <polygon id="Fill-185" fill="#D39E00" points="0 7.34860051 10.0483092 7.34860051 10.0483092 5.80152672 0 5.80152672"></polygon>
                    <path d="M10.0483092,5.22080673 C10.0483092,5.75520269 7.79832796,6.18829517 5.02406327,6.18829517 C2.24888555,6.18829517 0,5.75520269 0,5.22080673 C0,4.68738331 2.24888555,4.25445293 5.02406327,4.25445293 C7.79832796,4.25445293 10.0483092,4.68738331 10.0483092,5.22080673" id="Fill-186" fill="#FFCC33"></path>
                    <path d="M10.0483092,4.83444346 C10.0483092,5.36848742 7.79832796,5.80152672 5.02406327,5.80152672 C2.24888555,5.80152672 0,5.36848742 0,4.83444346 C0,4.301048 2.24888555,3.86768448 5.02406327,3.86768448 C7.79832796,3.86768448 10.0483092,4.301048 10.0483092,4.83444346" id="Fill-187" fill="#D39E00"></path>
                    <polygon id="Fill-188" fill="#D39E00" points="0 5.02798982 10.0483092 5.02798982 10.0483092 3.48091603 0 3.48091603"></polygon>
                    <path d="M10.0483092,3.28696451 C10.0483092,3.82136044 7.79832796,4.25445293 5.02406327,4.25445293 C2.24888555,4.25445293 0,3.82136044 0,3.28696451 C0,2.75354109 2.24888555,2.32061069 5.02406327,2.32061069 C7.79832796,2.32061069 10.0483092,2.75354109 10.0483092,3.28696451" id="Fill-189" fill="#FFCC33"></path>
                    <path d="M10.0483092,2.51383279 C10.0483092,3.04787674 7.79832796,3.48091603 5.02406327,3.48091603 C2.24888555,3.48091603 0,3.04787674 0,2.51383279 C0,1.98043733 2.24888555,1.54707379 5.02406327,1.54707379 C7.79832796,1.54707379 10.0483092,1.98043733 10.0483092,2.51383279" id="Fill-190" fill="#D39E00"></path>
                    <polygon id="Fill-191" fill="#D39E00" points="0 2.32061069 10.0483092 2.32061069 10.0483092 0.773536896 0 0.773536896"></polygon>
                    <path d="M10.0483092,0.966353819 C10.0483092,1.50074975 7.79832796,1.93384224 5.02406327,1.93384224 C2.24888555,1.93384224 0,1.50074975 0,0.966353819 C0,0.432930403 2.24888555,0 5.02406327,0 C7.79832796,0 10.0483092,0.432930403 10.0483092,0.966353819" id="Fill-192" fill="#FFCC33"></path>
                </g>
                <g id="Group" transform="translate(86.570048, 46.958524)">
                    <g id="nota3" transform="translate(34.021509, 25.033585) scale(-1, 1) rotate(165.000000) translate(-34.021509, -25.033585) translate(3.521509, 8.020607)">
                        <polygon id="Fill-25" fill="#3A8340" points="59.400577 32.4258675 1.1265504 32.2781709 1.2130193 1.09762323 59.4840383 1.24459933"></polygon>
                        <path d="M56.4000958,23.9419292 L56.4408723,9.17722506 C53.3901813,9.16993815 50.9254643,6.77837963 50.9337708,3.83447455 L9.07058539,3.72881459 C9.06227907,6.67126229 6.58397001,9.04970441 3.53403396,9.04314621 L3.49401252,23.8093077 C6.5439486,23.8158659 9.00715517,26.2074245 8.99960398,29.1506009 L50.8642995,29.2555321 C50.8733612,26.3145418 53.35167,23.9339136 56.4000958,23.9419292" id="Fill-27" fill="#63BA68"></path>
                        <path d="M2.13992693,2.04151131 L58.8543374,2.04151131 L58.8543374,31.9407097 L2.05619836,31.9407097 C2.08335357,21.9733418 2.11201741,12.0081529 2.13992693,2.04151131 M59.7263215,0.360067263 L1.26869727,0.360067263 C1.02882625,0.360067263 0.851563069,0.445773699 0.713524085,0.56634377 C0.693911988,0.580143958 0.674299892,0.59176517 0.656196421,0.607744334 C0.637338636,0.627355127 0.624515343,0.647692247 0.608674802,0.668029368 C0.484967733,0.800946978 0.395958991,0.97018087 0.39520468,1.1996998 C0.367295157,11.7270648 0.338631324,22.2544299 0.309204677,32.7825213 C0.307704557,33.2415591 0.706735285,33.6221538 1.18195146,33.6221538 L59.7263215,33.6221538 C60.2022918,33.6221538 60.5990597,33.2393801 60.5990597,32.7825213 L60.5990597,1.1996998 C60.5990597,0.740661941 60.2022918,0.360067263 59.7263215,0.360067263" id="Fill-29" fill="#3A8340" fill-rule="nonzero"></path>
                    </g>
                    <path d="M36.1061672,74.4867684 L33.3619534,50.2689542 L36.3285024,42.6213229 C35.9126637,41.105951 35.5852109,39.5658517 35.1084947,38.0674382 C34.9406089,37.5396397 34.8964633,37.3893815 34.4059457,37.2324914 C34.0983442,37.134151 33.7914989,37.0335367 33.4842755,36.9339646 C31.8717781,36.4117558 30.2591862,35.8895469 28.6466887,35.3672433 C28.5874182,35.348011 27.6473147,35.0086511 27.6306773,35.03821 C27.2155004,35.7737742 26.7085345,36.5014749 26.3642553,37.2638505 C26.0078761,38.0532272 25.6959262,38.8643941 25.367528,39.6656133 C25.1897166,40.1067243 25.0759967,40.3545651 25.1377249,40.7961498 C25.2023837,41.2582933 26.1422982,45.9596889 26.307159,46.9283145 L28.271309,49.6266146 L27.2203214,73.8235859 L36.1061672,74.4867684" id="Fill-127" fill="#FFC4B8"></path>
                    <path d="M28.0519852,49.7335878 C28.0519852,49.7335878 31.3468635,51.2865056 33.8924067,50.2393626 L34.0096618,51.2194327 C34.0096618,51.2194327 31.3664533,53.0192097 27.826087,51.3333897 L28.0519852,49.7335878" id="Fill-128" fill="#34466B"></path>
                    <polyline id="Fill-129" fill="#767676" points="25.8937198 64.1905851 26.1134792 59.7895674 36.7718102 63.6287533 37.1014493 68.6852417 25.8937198 64.1905851"></polyline>
                    <path d="M42.5120773,104.654707 L37.826585,66.5362464 C37.826585,66.5362464 31.6908213,63.7795496 25.1864655,61.3366412 L20.8695652,104.654707 L42.5120773,104.654707 Z" id="Fill-130" fill="#34466B"></path>
                </g>
                <path d="M51.0144928,112.815485 C50.3490574,113.262415 49.2327026,113.709924 47.8154423,113.709924 C46.0762632,113.709924 44.5302937,113.04995 43.4568417,111.814525 C42.6408081,110.920087 42.1040819,109.685241 41.9105805,108.15196 L40.5797101,108.15196 L40.5797101,107.108159 L41.8031768,107.108159 L41.8031768,106.789172 C41.8031768,106.448185 41.8250663,106.128619 41.8463718,105.830762 L40.5797101,105.830762 L40.5797101,104.765831 L41.9966786,104.765831 C42.2543888,103.2751 42.8982265,102.039965 43.7574551,101.167237 C44.8525043,100.038045 46.2478756,99.3994911 48.008652,99.3994911 C49.2756054,99.3994911 50.2629596,99.7613188 50.8641863,100.081175 L50.4348638,101.486224 C49.8978458,101.167237 48.996298,100.890222 48.0299575,100.890222 C46.8704077,100.890222 45.9256645,101.29489 45.1957291,102.061385 C44.5515992,102.678808 44.1222771,103.637218 43.9074698,104.765831 L49.8978458,104.765831 L49.8978458,105.830762 L43.7142601,105.830762 C43.6929546,106.107488 43.6713569,106.427054 43.6713569,106.724911 L43.6713569,107.108159 L49.8978458,107.108159 L49.8978458,108.15196 L43.8216638,108.15196 C43.9932757,109.386806 44.4231822,110.302664 45.0025194,110.941218 C45.7972475,111.771974 46.8704077,112.176353 48.0299575,112.176353 C49.16791,112.176353 50.1555559,111.750554 50.6496707,111.473828 L51.0144928,112.815485 Z" id="Fill-674" fill="#DEEDF2"></path>
                <path d="M115.987708,77.2112992 C112.155107,74.8746284 111.402621,70.3587378 113.956737,67.2028627 C116.519411,64.0435647 121.276789,63.2734214 124.927972,65.4035803 C128.570027,67.5360208 129.872473,71.912715 127.491217,75.2768142 C125.118518,78.6403425 119.811181,79.5502524 115.987708,77.2112992" id="Fill-24" fill="#3A8340"></path>
            </g>
        </g>
    </g>
</svg>