<?xml version="1.0" encoding="UTF-8"?>
<svg width="147px" height="155px" viewBox="0 0 147 155" version="1.1" xmlns="http://www.w3.org/2000/svg" xmlns:xlink="http://www.w3.org/1999/xlink">
    <title>Concepts/Investments/Invest cohesion</title>
    <defs>
        <filter id="filter-1">
            <feColorMatrix in="SourceGraphic" type="matrix" values="0 0 0 0 0.956863 0 0 0 0 0.643137 0 0 0 0 0.552941 0 0 0 1.000000 0"></feColorMatrix>
        </filter>
    </defs>
    <g id="-↳-💡-Concepts-&amp;-infographics" stroke="none" stroke-width="1" fill="none" fill-rule="evenodd">
        <g id="documentation-/-concepts-/-01" transform="translate(-455.000000, -2887.000000)">
            <g id="investir-conhecimento" transform="translate(453.000000, 2886.000000)">
                <path d="M72.0455817,25.4253399 C54.7361949,40.370704 39.3290468,37.8265653 29.1057913,37.0515866 C8.70690705,35.5041484 2.86077217,55.0136259 11.4485483,68.6844308 C20.0366994,82.3548764 27.705494,99.231544 11.2586577,114.583941 C-5.18780372,129.935978 17.7400064,163.128861 45.3511375,151.003836 C72.9618933,138.878091 105.203507,137.429865 120.754268,146.568117 C136.305404,155.706369 166.466552,128.524444 138.770301,106.230756 C111.074049,83.9370694 126.8378,72.0310721 134.584909,60.1088205 C142.332019,48.1862093 136.962242,27.9344164 111.676602,20.0511079 C111.676602,20.0511079 89.3553439,10.4803352 72.0455817,25.4253399 Z" id="Fill-4" fill="#EFF6F9" transform="translate(77.886831, 85.323674) rotate(5.000000) translate(-77.886831, -85.323674) "></path>
                <g id="Group-680-Copy" transform="translate(42.545455, 60.310421)">
                    <path d="M62.2839661,23.1334399 C62.2764274,23.1513225 62.2702264,23.1701783 62.2643899,23.1897641 C62.2525956,23.2063086 62.2409229,23.2230964 62.2307092,23.2408574 L62.2146589,23.2678638 L62.2108897,23.2747979 L62.1691838,23.3161591 C62.154228,23.3311221 62.136962,23.3485182 62.1395155,23.3418274 C62.1340441,23.3409758 62.1336793,23.3429222 62.1302746,23.3492481 C62.1124005,23.357642 62.09477,23.3668874 62.0771392,23.3775927 C62.0372571,23.3932856 61.9961593,23.4138445 61.9459421,23.4221168 C61.7523688,23.471142 61.5005529,23.4390262 61.3246105,23.3508295 C61.2368215,23.3063054 61.167879,23.2509544 61.1209447,23.1935353 C61.1047731,23.1620277 61.0810629,23.1338048 61.0723081,23.0990127 L61.0664719,23.086726 L61.0634321,23.0807651 L61.0617299,23.0777238 C61.0603922,23.0721279 61.0693902,23.1190851 61.064891,23.0954848 L61.0529751,23.0359977 L61.0411808,22.9763889 L61.0405727,22.9557083 C61.034615,22.9345411 61.0376548,22.8836911 61.041424,22.8597259 C61.0453151,22.8301648 61.0534615,22.8074162 61.0673228,22.7827211 C61.0949242,22.7355206 61.1553551,22.6746953 61.252993,22.6238454 C61.4500926,22.5216588 61.7308469,22.4653346 62.0075891,22.442221 C62.0682632,22.4372333 62.1299098,22.4380849 62.1911919,22.4355302 C62.2135648,22.4835822 62.2338703,22.5319991 62.2501638,22.5800511 C62.3234834,22.7925748 62.3431809,22.993055 62.2839661,23.1334399 M66.2176894,25.5859165 C66.2193568,25.4720515 66.2112452,25.3413988 66.1973839,25.1949314 C66.1691745,24.9029699 66.1150663,24.5441005 65.9700079,24.1516556 C65.8278678,23.7610355 65.6059634,23.3278376 65.2471475,22.9391638 C64.8879664,22.5500034 64.4183808,22.2065837 63.8269604,21.9904105 C63.7604498,21.9675402 63.6930883,21.9445483 63.6256051,21.9211913 L63.5749016,21.9036736 L63.5493672,21.8949148 L63.5076613,21.8831147 L63.3936087,21.853067 C63.3571313,21.8440648 63.3201674,21.8389555 63.2835688,21.8309265 C63.1888491,21.5943161 63.0690815,21.3744934 62.9231719,21.1738915 C62.8066874,21.0150158 62.6826642,20.8622226 62.5286078,20.7270687 C62.4637997,20.6613774 62.354854,20.5807231 62.2595263,20.5111389 C62.2320465,20.4907016 62.2155101,20.4803613 62.2003111,20.4709942 L62.1510669,20.4403382 L62.1020655,20.4096823 L62.090028,20.4022616 L62.042972,20.3756201 L62.009048,20.3591972 C61.2835126,20.0060455 60.5521403,19.9807421 59.9180414,20.068209 C59.2778632,20.1557974 58.7140441,20.373552 58.2352173,20.6403318 C57.9934935,20.7698898 57.7783986,20.9254809 57.5862842,21.0860597 C57.3944131,21.2467602 57.2210237,21.4120834 57.0832608,21.5903016 C56.7973993,21.9370059 56.6270502,22.3007413 56.5444897,22.6080308 C56.4605914,22.9162935 56.4590109,23.1638525 56.4698323,23.3328252 C56.4863687,23.4914577 56.5036347,23.572477 56.5036347,23.572477 L56.6331296,23.5794111 C56.6331296,23.5794111 56.6556241,23.4993649 56.6973299,23.3491264 C56.7453584,23.2140942 56.8250007,23.0127624 56.9706671,22.7942779 C57.1176712,22.5773748 57.3254707,22.3403994 57.6147365,22.1307954 C57.8973149,21.9149871 58.2605081,21.7294699 58.6717301,21.5815428 C59.0840466,21.4377517 59.553997,21.3421343 60.03635,21.3218187 C60.5166358,21.3055175 61.017349,21.3741285 61.4014561,21.5660931 C61.467237,21.5972357 61.5376384,21.6445578 61.6085262,21.7005171 C61.3847981,21.7208327 61.1529232,21.7624373 60.9062146,21.8601227 C60.7170185,21.939074 60.5082461,22.0676587 60.3501774,22.2821287 C60.2722373,22.3883298 60.2120493,22.513265 60.1783685,22.6399033 C60.1448094,22.7712859 60.1293672,22.8832045 60.1366627,23.0228594 C60.1404322,23.22042 60.1991609,23.4881731 60.3329114,23.7045896 C60.4682424,23.9174781 60.6516023,24.0793952 60.8461482,24.1969097 C61.0416672,24.3169788 61.2506828,24.3857114 61.4637107,24.4286541 C61.6774683,24.4718401 61.8979136,24.4786525 62.1240736,24.444347 C62.2361809,24.431817 62.3516925,24.3982415 62.4655019,24.3599215 L62.6360947,24.2869311 C62.702362,24.2503143 62.7700884,24.2067634 62.8336807,24.161631 C62.8719819,24.1349895 62.8838978,24.1234327 62.8992184,24.110781 L62.9459092,24.0710013 L62.969255,24.0511722 L62.9750912,24.0460629 C62.9474902,24.0741642 63.0197153,24.0026336 63.0150949,24.0064048 L63.0296858,23.9888871 L63.0881713,23.9183297 L63.2024672,23.7738087 L63.2929312,23.6114052 C63.3583474,23.5035011 63.3865564,23.3844051 63.4264385,23.2678638 C63.451,23.1522957 63.4754399,23.0317399 63.4804252,22.9177533 C63.4846808,22.803645 63.4889364,22.6874686 63.4741022,22.5805377 C63.4727648,22.5644799 63.4698466,22.5491519 63.468266,22.5332156 C63.5306423,22.548422 63.5927753,22.563385 63.6546655,22.5784697 C64.1382343,22.7043781 64.5841096,22.9610609 64.9194585,23.2645792 C65.2614952,23.5694357 65.4971393,23.9351175 65.660801,24.2793888 C65.8265301,24.6251199 65.9112792,24.9556446 65.9706159,25.2286286 C65.9990682,25.3659722 66.020833,25.4895692 66.03129,25.5986898 C66.0456377,25.7072022 66.0563379,25.8001433 66.0582833,25.8759316 C66.0667945,26.02763 66.0715366,26.1085276 66.0715366,26.1085276 L66.2010315,26.1124205 C66.2010315,26.1124205 66.2054087,26.0295764 66.2139203,25.8738636 C66.2204861,25.7958855 66.2202429,25.6994166 66.2176894,25.5859165" id="Fill-85" fill="#FFC4B8" fill-rule="nonzero"></path>
                    <g id="Group-99" transform="translate(56.394774, 20.978119)" fill="#F4A48D" fill-rule="nonzero">
                        <path d="M5.86306206,1.27335363 C5.847012,1.22517998 5.8269494,1.17688468 5.80433341,1.12871104 C5.74341616,1.1312657 5.68201253,1.13065744 5.62133843,1.13564512 C5.34556925,1.15851544 5.06566597,1.21483968 4.86905275,1.31702621 C4.77202284,1.36787617 4.71183513,1.42882314 4.68423388,1.47590193 C4.67025089,1.50059701 4.66259061,1.52358898 4.65821332,1.55290678 C4.65456558,1.5769936 4.65140421,1.62784357 4.65760538,1.64888912 L4.65797014,1.66969138 L4.66988609,1.72930019 L4.68168047,1.7886657 C4.68630095,1.81226592 4.67718158,1.76543043 4.67864067,1.77102636 L4.68022138,1.77406762 L4.68338275,1.7800285 L4.68921914,1.79231522 C4.68982708,1.79474823 4.69140778,1.79681629 4.69213733,1.799006 C4.72241356,1.75375197 4.77907514,1.69852258 4.86905275,1.65144379 C5.06566597,1.54925726 5.34556925,1.49305467 5.62133843,1.46994105 C5.68201253,1.46495337 5.74341616,1.46568328 5.80433341,1.46325026 C5.8269494,1.51130226 5.847012,1.55971921 5.86306206,1.60789286 C5.88275986,1.66592021 5.89795876,1.72248776 5.90975314,1.77771714 C5.94732485,1.64122514 5.92847818,1.46337192 5.86306206,1.27335363" id="Fill-87"></path>
                        <path d="M6.90276536,2.30476849 L6.812423,2.46717208 L6.69837033,2.61157138 L6.64024966,2.68212875 L6.62578027,2.69952479 C6.63027917,2.69587527 6.5580539,2.76740584 6.5858983,2.73918289 L6.57981874,2.74429221 L6.5565948,2.76412127 L6.5101469,2.80402268 C6.494948,2.81679599 6.48303205,2.82847445 6.44485236,2.85487264 C6.38113848,2.90000502 6.31402005,2.94355595 6.24787435,2.98029444 L6.07752487,3.05316316 C5.96456651,3.09148311 5.84929789,3.12505869 5.73755545,3.13771035 C5.51224667,3.17177253 5.29240952,3.16496009 5.07938145,3.12201742 C4.86696136,3.0789531 4.65867537,3.01034214 4.46388604,2.89015132 C4.26970465,2.77263681 4.08719603,2.61084148 3.95222962,2.39783122 C3.84340536,2.22119451 3.78662221,2.01244203 3.76619486,1.83349395 C3.75683231,1.90246986 3.75245502,1.97254062 3.75658913,2.05051868 C3.7601153,2.2480793 3.81896552,2.51595399 3.95222962,2.73237045 C4.08719603,2.94525905 4.26970465,3.10717604 4.46388604,3.22469055 C4.65867537,3.34475972 4.86696136,3.41337068 5.07938145,3.456435 C5.29240952,3.49949932 5.51224667,3.50631176 5.73755545,3.47212793 C5.84929789,3.45935461 5.96456651,3.42602234 6.07752487,3.38758074 L6.24787435,3.31471202 C6.31402005,3.27797353 6.38113848,3.23454425 6.44485236,3.18929022 C6.48303205,3.16277038 6.494948,3.15109192 6.5101469,3.13856191 L6.5565948,3.0986605 L6.57981874,3.07883145 L6.5858983,3.07372212 C6.5580539,3.10194507 6.63027917,3.0301712 6.62578027,3.03406401 L6.64024966,3.01666797 L6.69837033,2.94598896 L6.812423,2.80146801 L6.90276536,2.63918607 C6.96757358,2.53116031 6.99578277,2.412186 7.03566474,2.29564469 C7.0598614,2.1800766 7.08442286,2.05939917 7.08940809,1.94541253 C7.09317744,1.84456416 7.09487972,1.74298589 7.08527398,1.64663859 C7.07761374,1.74991997 7.05767276,1.85733748 7.03566474,1.96110547 C6.99578277,2.07776842 6.96757358,2.19674273 6.90276536,2.30476849" id="Fill-89"></path>
                        <path d="M5.01750362,0.259286151 C4.63461244,0.0674431088 4.13535837,-0.00128949667 3.65653162,0.0151333383 C3.175881,0.0354489934 2.70738952,0.130944737 2.29628916,0.274979083 C1.88628312,0.422784596 1.52430567,0.608301808 1.24282169,0.824110024 C0.954528592,1.03371406 0.747336929,1.27056783 0.600819347,1.4874709 C0.455760864,1.70607708 0.376361711,1.90728723 0.328576311,2.04231943 C0.286748886,2.19255795 0.26461926,2.27272572 0.26461926,2.27272572 L0.135489244,2.26579163 C0.135489244,2.26579163 0.119803959,2.19024659 0.103875492,2.0465772 C0.0940265926,2.16968763 0.0959720541,2.27515873 0.101565256,2.36043582 C0.117980089,2.51918989 0.135489244,2.60020921 0.135489244,2.60020921 L0.26461926,2.6071433 C0.26461926,2.6071433 0.286748886,2.52709718 0.328576311,2.37685865 C0.376361711,2.24182646 0.455760864,2.04049467 0.600819347,1.82201014 C0.747336929,1.60510706 0.954528592,1.36800999 1.24282169,1.1585276 C1.52430567,0.942719386 1.88628312,0.757202178 2.29628916,0.609275012 C2.70738952,0.465362317 3.175881,0.369866572 3.65653162,0.349550918 C4.02556139,0.337142554 4.40516959,0.376435707 4.73565488,0.482271755 C4.90393729,0.434219757 5.06601856,0.408186522 5.22347936,0.393588445 C5.15307798,0.337872458 5.0826766,0.290550363 5.01750362,0.259286151" id="Fill-91"></path>
                        <path d="M5.85309157,1.93911103 L5.85224041,1.94020589 C5.86063023,1.93144704 5.86598025,1.92609441 5.85309157,1.93911103" id="Fill-93"></path>
                        <path d="M7.08301241,1.60824565 C7.08459308,1.62065401 7.08422832,1.63403558 7.08532262,1.6465656 C7.08629536,1.63488714 7.08897037,1.62260042 7.08945673,1.61092196 C7.08982152,1.59559398 7.08982152,1.58002271 7.09067264,1.56420812 C7.08605217,1.56323492 7.08167488,1.56201841 7.0774192,1.56092355 C7.07899987,1.57685979 7.08167488,1.59218777 7.08301241,1.60824565" id="Fill-95"></path>
                        <path d="M5.85309157,2.27365026 C5.86598025,2.26051199 5.86063023,2.26598627 5.85224041,2.27450181 L5.85309157,2.27365026 Z" id="Fill-97"></path>
                    </g>
                    <path d="M28.4959301,53.3952259 C28.4959301,53.3952259 21.9043413,56.1639943 16.8010307,53.3952259 L16.8010307,37.492569 L28.4959301,37.492569 L28.4959301,53.3952259 Z" id="Fill-100" fill="#FFC4B8"></path>
                    <path d="M26.4828515,37.4926056 L21.3056133,48.2224344 L26.5821917,50.6846432 L26.5821917,51.692762 C26.5821917,51.692762 21.4790026,53.8186068 16.8011402,52.4804498 L16.8409091,55.3436807 C21.9440981,58.1123275 28.5409091,54.4567627 28.5409091,54.4567627 L28.495918,37.4926056 L26.4828515,37.4926056 Z" id="Fill-102" fill="#FFC4B8" fill-rule="nonzero"></path>
                    <path d="M16.8010793,53.6000174 C16.8010793,53.6000174 17.0988565,50.8170157 17.908655,54.3479255 C17.908655,54.3479255 18.7326796,52.150185 19.1288242,54.104624 C19.1288242,54.104624 19.2973498,54.7805151 19.1893767,55.3646812 C19.1893767,55.3646812 17.6516108,55.1048355 16.8010793,54.4594788 L16.8010793,53.6000174 Z" id="Fill-104" fill="#000000"></path>
                    <path d="M52.3109826,53.3952259 C52.3109826,53.3952259 45.7192721,56.1639943 40.40342,53.3952259 L40.40342,37.492569 L52.3109826,37.492569 L52.3109826,53.3952259 Z" id="Fill-106" fill="#FFC4B8"></path>
                    <path d="M42.742424,49.5090725 L45.8083502,47.6455063 L42.7714844,37.4926666 L40.403493,37.4926666 C40.4102996,45.2353185 40.4151958,50.8308892 40.4181818,54.2793792 C40.4184601,54.6006882 40.4184601,54.6598162 40.4181818,54.4567627 C45.7339127,57.2255312 52.3101434,55.5183237 52.3101434,55.5183237 L52.310934,51.7093673 C49.7593395,52.2689604 46.14455,52.6766116 42.742424,50.9630407 L42.742424,49.5090725 Z" id="Fill-108" fill="#FFC4B8" fill-rule="nonzero"></path>
                    <path d="M40.4034565,53.6000174 C40.4034565,53.6000174 40.7845237,50.8170157 41.5945654,54.3479255 C41.5945654,54.3479255 42.4602956,52.150185 42.8564402,54.104624 C42.8564402,54.104624 42.9624681,54.7805151 42.8543732,55.3646812 C42.8543732,55.3646812 41.4666511,55.1048355 40.4034565,54.4594788 L40.4034565,53.6000174 Z" id="Fill-110" fill="#000000"></path>
                    <path d="M6.75366978,23.2732772 L1.04410466,23.0457906 C-1.6322426,31.3548935 2.47888261,38.00602 2.47888261,38.00602 L4.09239987,37.7189247 C4.09215669,37.7191677 6.49419385,40.0476825 9.9436189,39.7175227 C14.6298712,46.032772 23.0849691,50.2488177 32.7374985,50.2488177 C47.4759512,50.2488177 59.423882,40.420055 59.423882,28.2958668 C59.423882,16.1719218 47.4759512,6.34340247 32.7374985,6.34340247 C20.1000229,6.34340247 9.51488779,13.5698148 6.75366978,23.2732772 Z" id="Fill-112" fill="#FFC4B8"></path>
                    <path d="M48.7642843,10.742423 C52.6841463,14.563591 55.0477608,19.4996869 55.0477608,24.8907562 C55.0477608,37.0148229 43.0998296,46.8435853 28.3613771,46.8435853 C22.3467393,46.8435853 16.79731,45.2060463 12.3346642,42.4444555 C17.2298105,47.2166879 24.5526496,50.2488298 32.7374499,50.2488298 C47.4760242,50.2488298 59.4238334,40.4200674 59.4238334,28.295879 C59.4238334,21.11983 55.2373217,14.7482566 48.7642843,10.742423" id="Fill-114" fill="#F4A48D"></path>
                    <path d="M20.001996,9.00010622 C20.001996,9.00010622 31.5813837,3.25722333 44.0015756,8.39063659 C44.0015756,8.39063659 24.0379777,4.50584539 24.0698347,12.0287203 L20.001996,9.00010622 Z" id="Fill-116" fill="#F4A48D"></path>
                    <path d="M2.96513859,35.8169412 C2.96513859,35.8169412 -0.249858355,30.6087129 0.862459334,23.6535814 C-1.42965925,31.6766837 2.47889477,38.0060442 2.47889477,38.0060442 L7.64154197,36.8609469 L10.1430409,35.7825142 L2.96513859,35.8169412 Z" id="Fill-118" fill="#F4A48D"></path>
                    <path d="M6.5171746,38.0060686 C6.5171746,38.0060686 8.99253133,37.0983117 10.6681818,35.8984717 C12.2960468,34.7329368 10.4374014,35.8273061 10.4374014,35.8273061 L4.09215669,37.7192163 C4.09215669,37.7192163 8.3268187,41.823222 13.6250403,38.3587338 C9.27219146,39.8824078 6.5171746,38.0060686 6.5171746,38.0060686" id="Fill-120" fill="#F4A48D"></path>
                    <path d="M15.9341452,0.135765497 C15.9341452,0.135765497 23.8791673,0.979534262 24.0698225,12.0288176 L15.9839976,14.9939301 L15.9341452,0.135765497 Z" id="Fill-122" fill="#FFC4B8"></path>
                    <path d="M2.47888261,38.0060686 C2.47888261,38.0060686 2.52277709,37.9941471 2.60521603,37.9720064 C2.68801974,37.9524208 2.80705767,37.9113029 2.95916845,37.8714015 C3.11127923,37.8318648 3.29390944,37.7750542 3.50414089,37.7117957 C3.7137644,37.6459828 3.95147546,37.5829676 4.20815481,37.501705 C4.4643478,37.4187395 4.74157607,37.3289614 5.0363135,37.2431975 C5.33214527,37.1618132 5.6353941,37.0405275 5.95590893,36.9438155 C6.27459984,36.8407773 6.60399083,36.7343329 6.9387318,36.626064 C7.27116259,36.5106175 7.60918654,36.3937114 7.94708889,36.2766833 C8.28547764,36.1618451 8.62885161,36.0608752 8.95787781,35.9346019 C9.28799834,35.8116129 9.61787566,35.7037087 9.93462114,35.5916686 C10.2508803,35.4792635 10.5611814,35.3810914 10.8549461,35.2862039 C11.142996,35.176475 11.4186436,35.0797628 11.6736206,34.9921743 C12.1824805,34.8135912 12.6138866,34.6780724 12.9173786,34.5858612 C13.2209922,34.4937717 13.3980292,34.4482744 13.3980292,34.4482744 C13.3980292,34.4482744 13.2448241,34.5455949 12.9701492,34.7037407 C12.6957176,34.8618865 12.3009104,35.0847505 11.8188007,35.3349858 C11.5781714,35.4617458 11.3171148,35.5979945 11.0373331,35.7342432 C10.7534173,35.8610033 10.454181,35.9960355 10.1401105,36.1246201 C9.82652644,36.2542996 9.50503891,36.3957793 9.17309449,36.5258239 C8.8452842,36.6668169 8.49728976,36.7709499 8.1551317,36.8904106 C7.81017705,37.0022077 7.46522237,37.1132747 7.12573932,37.2230035 C6.78552672,37.3312727 6.43972091,37.4035331 6.11166745,37.4917297 C5.7817901,37.5749389 5.46443668,37.6580261 5.15559465,37.7103361 C4.84930602,37.7705529 4.55785154,37.8188484 4.28937784,37.8634941 C4.02175527,37.9110595 3.77030437,37.9289423 3.55083197,37.9540023 C3.33160276,37.9811303 3.13815092,37.9931736 2.9781367,37.9984046 C2.65993213,38.0153142 2.47888261,38.0060686 2.47888261,38.0060686" id="Fill-124" fill="#A66555"></path>
                    <path d="M15.9340844,0.135789827 L15.9714129,11.2179189 L18.4302332,14.0969026 C18.7688652,9.29644715 18.0157283,4.49112564 15.9670356,0.140047599 C15.9462435,0.137371285 15.9340844,0.135789827 15.9340844,0.135789827 Z" id="Fill-130" fill="#F4A48D"></path>
                    <path d="M16.9427941,12.3553644 L18.4302211,14.0969148 C18.7106107,10.1239269 18.2402954,6.14862765 16.909478,2.42940296 L16.9427941,12.3553644 Z" id="Fill-132" fill="#A66555"></path>
                    <path d="M36.4272439,15.9170724 L37.4122437,12.1847247 C37.6930647,8.21417458 37.5948838,4.4999416 36.263485,0.78310255 L35.4740758,1.75731876 L36.4272439,15.9170724 Z" id="Fill-132" fill="#A66555" transform="translate(36.507160, 8.350087) rotate(-84.000000) translate(-36.507160, -8.350087) "></path>
                    <path d="M14.4784292,20.7199157 C14.4784292,21.3765858 13.9463454,21.9090506 13.2898737,21.9090506 C12.6337668,21.9090506 12.1014398,21.3765858 12.1014398,20.7199157 C12.1014398,20.0634889 12.6337668,19.5309025 13.2898737,19.5309025 C13.9463454,19.5309025 14.4784292,20.0634889 14.4784292,20.7199157" id="Fill-134" fill="#000000"></path>
                </g>
                <path d="M75.9894858,155.746797 C36.1419382,155.746797 3.83929831,151.775803 3.83929831,146.877713 C3.83929831,141.979048 36.1419382,138.008438 75.9894858,138.008438 C115.837034,138.008438 148.139298,141.979048 148.139298,146.877713 C148.139298,151.775803 115.837034,155.746797 75.9894858,155.746797 Z" id="Fill-1" fill="#9BC3D3"></path>
                <g id="Group" transform="translate(26.378764, 114.363060)">
                    <path d="M90.6260702,16.4609025 L25.9306296,16.4609025 L25.9306296,19.5224676 L25.9306296,33.2082201 L25.9306296,36.2697852 L90.6260702,36.2697852 C94.933232,36.2697852 98.4248627,32.7807143 98.4248627,28.4767105 L98.4248627,24.2539773 C98.4248627,19.9496951 94.933232,16.4609025 90.6260702,16.4609025" id="Fill-1" fill="#34466B"></path>
                    <path d="M65.8024579,34.8747935 L2.78823974,34.8747935 L2.78823974,18.1348926 L65.8024579,18.1348926 C67.9583247,18.1348926 69.7059934,19.8796413 69.7059934,22.0319063 L69.7059934,30.9777797 C69.7059934,33.1300447 67.9583247,34.8747935 65.8024579,34.8747935" id="Fill-3" fill="#FFFFFF"></path>
                    <path d="M64.6954407,16.4609025 L5.03839394e-15,16.4609025 L5.03839394e-15,19.5224676 L64.6951621,19.5224676 C67.3060865,19.5224676 69.4301432,21.6449672 69.4301432,24.2539773 L69.4301432,28.4767105 C69.4301432,31.0857205 67.3060865,33.2082201 64.6951621,33.2082201 L5.03839394e-15,33.2082201 L5.03839394e-15,36.2697852 L64.6954407,36.2697852 C69.0026025,36.2697852 72.4942331,32.7807143 72.4942331,28.4767105 L72.4942331,24.2539773 C72.4942331,19.9496951 69.0026025,16.4609025 64.6954407,16.4609025" id="Fill-5" fill="#0D5691" fill-rule="nonzero"></path>
                    <path d="M64.6954407,16.4609025 L5.03839394e-15,16.4609025 L5.03839394e-15,19.5224676 L64.6951621,19.5224676 C67.3060865,19.5224676 69.4301432,21.6449672 69.4301432,24.2539773 L69.4301432,28.4767105 C69.4301432,31.0857205 67.3060865,33.2082201 64.6951621,33.2082201 L5.03839394e-15,33.2082201 L5.03839394e-15,36.2697852 L64.6954407,36.2697852 C69.0026025,36.2697852 72.4942331,32.7807143 72.4942331,28.4767105 L72.4942331,24.2539773 C72.4942331,19.9496951 69.0026025,16.4609025 64.6954407,16.4609025" id="Fill-7" fill="#34466B"></path>
                    <path d="M11.7467655,-1.26038623e-14 L65.24481,-1.26038623e-14 L65.24481,2.54399593 L65.24481,13.9169066 L65.24481,16.4609025 L11.7467655,16.4609025 C8.18516652,16.4609025 5.29765552,13.5613365 5.29765552,9.98486829 L5.29765552,6.47575358 C5.29765552,2.89928538 8.18516652,-1.26038623e-14 11.7467655,-1.26038623e-14" id="Fill-11" fill="#EC0000"></path>
                    <path d="M32.2181637,15.3449091 L84.2048401,15.3449091 L84.2048401,1.39499174 L32.2181637,1.39499174 C30.4396199,1.39499174 28.9976933,2.84903462 28.9976933,4.64280451 L28.9976933,12.0973778 C28.9976933,13.8908662 30.4396199,15.3449091 32.2181637,15.3449091" id="Fill-13" fill="#FFFFFF"></path>
                    <path d="M32.9373875,-1.26038623e-14 L86.435432,-1.26038623e-14 L86.435432,2.54399593 L32.9373875,2.54399593 C30.7784616,2.54399593 29.0219762,4.30809504 29.0219762,6.47575358 L29.0219762,9.98486829 C29.0219762,12.1530881 30.7784616,13.9169066 32.9373875,13.9169066 L86.435432,13.9169066 L86.435432,16.4609025 L32.9373875,16.4609025 C29.3757885,16.4609025 26.4882775,13.5613365 26.4882775,9.98486829 L26.4882775,6.47575358 C26.4882775,2.89928538 29.3757885,-1.26038623e-14 32.9373875,-1.26038623e-14" id="Fill-15" fill="#E74A38" fill-rule="nonzero"></path>
                    <path d="M32.9373875,-1.26038623e-14 L86.435432,-1.26038623e-14 L86.435432,2.54399593 L32.9373875,2.54399593 C30.7784616,2.54399593 29.0219762,4.30809504 29.0219762,6.47575358 L29.0219762,9.98486829 C29.0219762,12.1530881 30.7784616,13.9169066 32.9373875,13.9169066 L86.435432,13.9169066 L86.435432,16.4609025 L32.9373875,16.4609025 C29.3757885,16.4609025 26.4882775,13.5613365 26.4882775,9.98486829 L26.4882775,6.47575358 C26.4882775,2.89928538 29.3757885,-1.26038623e-14 32.9373875,-1.26038623e-14" id="Fill-17" fill="#EC0000"></path>
                </g>
                <g id="Group-27" transform="translate(83.543967, 33.987141) scale(-1, 1) rotate(15.000000) translate(-83.543967, -33.987141) translate(57.060530, 5.987141)">
                    <g id="g.-illustration/Objects/Banking/Coin" transform="translate(29.367273, 39.875831)">
                        <g id="Group" transform="translate(0.000000, 0.084598)">
                            <path d="M-5.2399297e-13,7.19399784 C-5.2399297e-13,11.1670053 3.21872109,14.3877394 7.18922217,14.3877394 C11.1597233,14.3877394 14.3784909,11.1670053 14.3784909,7.19399784 C14.3784909,3.22101363 11.1597233,0.000279577609 7.18922217,0.000279577609 C3.21872109,0.000279577609 -5.2399297e-13,3.22101363 -5.2399297e-13,7.19399784" id="Shadow" fill="#D39E00"></path>
                            <path d="M0.88677815,7.19427743 C0.88677815,11.1667398 4.10591833,14.3879398 8.07595375,14.3879398 C8.73059471,14.3879398 9.36511861,14.300432 9.96755778,14.1355744 C13.0206861,13.3049493 15.2650828,10.5116987 15.2650828,7.19427743 C15.2650828,3.22115342 12.0465946,-1.00830898e-13 8.07595375,-1.00830898e-13 C6.10192589,-1.00830898e-13 4.31346811,0.796656397 3.01419819,2.08662748 C1.70053902,3.38978531 0.88677815,5.19702159 0.88677815,7.19427743" id="Primary-color" fill="#FFE99F"></path>
                            <path d="M0.88677815,7.19427743 C0.88677815,11.1667398 4.10591833,14.3879398 8.07595375,14.3879398 C8.73059471,14.3879398 9.36511861,14.300432 9.96755778,14.1355744 L3.01419819,2.08662748 C1.70053902,3.38978531 0.88677815,5.19702159 0.88677815,7.19427743" id="Secondary-color" fill="#FFCC33"></path>
                        </g>
                    </g>
                    <g filter="url(#filter-1)" id="g.-illustration/Characters/Body-parts/Upper-body/Hands-&amp;-Arms/Hand-02">
                        <g>
                            <path d="M5.34992519,0.1018091 L15.926673,18.4017449 L33.8668909,19.0623413 L37.7779623,17.4910424 L42.8162528,16.483824 C43.3752781,16.3719418 43.9355113,16.6700777 44.1544463,17.1958312 C44.2172314,17.3467097 44.2467884,17.5021378 44.2467884,17.6545018 C44.2467884,18.160173 43.9221992,18.6325028 43.4122941,18.7931149 L43.344745,18.8122737 L39.6688606,19.7431708 L37.8697091,20.7123634 L41.9393981,21.3785543 L50.6039859,23.2272568 C51.3531326,23.3871416 51.8564365,24.0918138 51.7639551,24.8516843 C51.6663615,25.655797 50.939522,26.231735 50.1332134,26.1435755 L44.3266909,25.508461 L51.634295,29.3698683 C52.4664451,29.8093718 52.7042348,30.8819133 52.1537562,31.6296901 L52.1073916,31.6895901 C51.8094986,32.0555055 51.3689337,32.255547 50.9167499,32.255547 C50.7568053,32.255547 50.5952464,32.2304972 50.43826,32.1788399 L50.344666,32.1446396 L40.8203718,28.3127904 L37.4056091,26.9388823 L38.3488847,29.0387248 C38.8146848,29.8135439 38.9783632,30.7326957 38.8086898,31.6204647 L37.425882,38.8545543 C37.2466575,39.7920231 36.2978598,40.3709552 35.3814217,40.1027697 C35.408298,40.5879858 35.2055823,41.0724218 34.8085624,41.3938161 C34.5226133,41.6247298 34.1771786,41.7388867 33.8323016,41.7388867 C33.4442045,41.7388867 33.0571764,41.594229 32.7580754,41.3080706 L32.7580754,41.3080706 L30.2547543,38.9115633 C29.983026,38.8384451 28.7861107,38.3566088 27.2506388,37.7206446 C25.7146557,37.0851906 23.840023,36.2956552 22.2118837,35.6060708 C19.7027534,34.5434686 17.441139,32.9743787 15.5686441,30.9965705 L15.5686441,30.9965705 L13.4787014,28.78887 L0,16.486888 L1.82723015,9.49926414 L2.90405882,5.38055996 L5.34992519,0.1018091 Z M29.6002268,26.8962503 L27.1032261,31.2106324 L31.1341186,34.2152497 C32.4,35.1584028 33.4652569,36.339851 34.272495,37.6895869 C34.2725652,37.6897039 34.2726355,37.6898214 34.2727058,37.6899388 L34.7151979,31.2105859 L32.8242531,28.2561065 L29.6242999,26.8999642 L29.6002268,26.8962503 Z" id="Skin-tone" fill="#F4A48D" fill-rule="nonzero"></path>
                        </g>
                    </g>
                </g>
            </g>
        </g>
    </g>
</svg>