<?xml version="1.0" encoding="UTF-8"?>
<svg width="160px" height="123px" viewBox="0 0 160 123" version="1.1" xmlns="http://www.w3.org/2000/svg" xmlns:xlink="http://www.w3.org/1999/xlink">
    <title>Concepts/Investments/Major rentability</title>
    <g id="-↳-💡-Concepts-&amp;-infographics" stroke="none" stroke-width="1" fill="none" fill-rule="evenodd">
        <g id="documentation-/-concepts-/-01" transform="translate(-33.000000, -3095.000000)">
            <g id="maior-rentabilidade" transform="translate(33.000000, 3095.000000)">
                <path d="M60.8205324,104.82045 C52.672766,96.1554114 41.8781819,90.5000541 30.1798099,88.3744593 C23.0793091,87.0843188 16.2851658,83.6933963 10.7951951,78.2014554 C-3.58426899,63.8173222 -3.6005948,40.6208349 10.7594677,26.2169086 C17.0942166,19.8630427 25.1717112,16.3124923 33.4544379,15.5643101 C40.5453324,14.92362 47.2075443,11.8281348 52.1271525,6.67798998 C52.1905627,6.61169536 52.2544462,6.54587426 52.3183302,6.4805267 C60.7107472,-2.08615871 74.2867303,-2.17092112 82.7808883,6.2939547 C82.829629,6.34225508 82.8778967,6.39102897 82.9256913,6.43980286 C85.1947435,8.74401443 88.4698447,9.75027205 91.6432052,9.1337321 C109.735998,5.61822312 129.193535,10.8711246 143.206766,24.8933836 C165.597745,47.2990709 165.597745,83.6917863 143.206766,106.09771 C120.797805,128.521155 84.4669431,128.521013 62.0584554,106.097379 C61.63777,105.67655 61.2251289,105.250891 60.8205324,104.82045 Z" id="Primary-color" fill="#DEEDF2" transform="translate(80.000000, 61.457599) scale(-1, 1) translate(-80.000000, -61.457599) "></path>
                <g id="Group" transform="translate(10.251716, 6.223214)">
                    <path d="M92.3467277,71.7357232 L71.2322197,65.0410089 C70.0756064,64.6742054 69.4352403,63.4390804 69.8021053,62.2822946 L73.7610984,49.8003571 C74.1279634,48.6435714 75.3629291,48.0033125 76.5199085,48.3701161 L97.6340503,55.0648304 C98.7913959,55.4316339 99.431762,56.6667589 99.064897,57.8231786 L95.1055378,70.3054821 C94.7386728,71.4622679 93.503341,72.1025268 92.3467277,71.7357232" id="Fill-7" fill="#EC0000"></path>
                    <polyline id="Fill-8" fill="#CC0000" points="72.1402288 54.9103482 97.4440275 62.9335357 98.6529977 59.122 73.3491991 51.0988125 72.1402288 54.9103482"></polyline>
                    <path d="M77.4348741,62.6282321 L73.1782151,61.2785268 C72.8637071,61.1789554 72.6894279,60.8432679 72.7893822,60.5284464 L73.5308009,58.1907143 C73.6307551,57.8762589 73.9664989,57.702375 74.2810069,57.8019464 L77.4659954,58.8115714 C77.6150114,58.8591607 77.7391304,58.9627589 77.8130892,59.1004018 L78.5519451,60.4889107 C78.6273684,60.6309464 78.6423799,60.7971429 78.5936842,60.9505268 L78.1850801,62.2390982 C78.085492,62.5539196 77.7493822,62.7278036 77.4348741,62.6282321" id="Fill-9" fill="#CEDEE7"></path>
                    <polyline id="Fill-10" fill="#CC0000" points="94.2762471 65.2544286 83.6129977 61.8730268 83.8857666 61.0134911 94.5493822 64.3945268 94.2762471 65.2544286"></polyline>
                    <polyline id="Fill-11" fill="#CC0000" points="93.5267735 67.6185179 82.8631579 64.2371161 83.1359268 63.3775804 93.7995423 66.7586161 93.5267735 67.6185179"></polyline>
                    <path d="M25.8434783,109.036938 C25.8434783,108.270018 32.0362471,107.648062 39.6752403,107.648062 C47.3142334,107.648062 53.5066362,108.270018 53.5066362,109.036938 C53.5066362,109.804223 47.3142334,110.426179 39.6752403,110.426179 C32.0362471,110.426179 25.8434783,109.804223 25.8434783,109.036938 Z" id="Fill-12" fill="#CEDEE7"></path>
                    <path d="M49.812357,41.8694196 L28.6378032,48.3712143 C27.4778947,48.7274018 26.2487872,48.0757946 25.8921739,46.9157143 L22.0470481,34.3979018 C21.6908009,33.2381875 22.3425172,32.0092857 23.5027918,31.6527321 L44.6773455,25.1509375 C45.8376201,24.79475 47.0667277,25.4463571 47.4229748,26.6060714 L51.2681007,39.1238839 C51.6243478,40.2839643 50.9726316,41.5128661 49.812357,41.8694196" id="Fill-15" fill="#EC0000"></path>
                    <path d="M30.104897,40.3026339 L27.1066362,41.2233036 C26.72,41.3419107 26.3099314,41.1244643 26.1905721,40.7375268 L25.1763844,37.4344643 C25.0573913,37.0475268 25.2748741,36.6375268 25.6618764,36.5185536 L28.6601373,35.5978839 C29.0467735,35.4792768 29.4568421,35.6963571 29.5762014,36.0832946 L30.590389,39.3867232 C30.7093822,39.7736607 30.4922654,40.1836607 30.104897,40.3026339" id="Fill-16" fill="#CEDEE7"></path>
                    <polyline id="Fill-17" fill="#CC0000" points="32.0505263 43.823875 27.473135 45.2292232 26.9609153 43.5617679 31.5386728 42.1560536 32.0505263 43.823875"></polyline>
                    <polyline id="Fill-18" fill="#CC0000" points="37.7050801 42.0875982 33.1273227 43.4933125 32.6147368 41.8254911 37.1924943 40.4197768 37.7050801 42.0875982"></polyline>
                    <polyline id="Fill-19" fill="#CC0000" points="43.3589016 40.3513214 38.7811442 41.7570357 38.2689245 40.0892143 42.8466819 38.6838661 43.3589016 40.3513214"></polyline>
                    <polyline id="Fill-20" fill="#CC0000" points="49.0127231 38.6150446 44.4353318 40.0207589 43.922746 38.3533036 48.5005034 36.9475893 49.0127231 38.6150446"></polyline>
                    <path d="M107.771533,31.5674375 C115.740412,37.940375 125.077895,43.4416964 135.594325,47.6116161 C133.08778,52.2200893 130.272586,56.75425 127.152403,61.1829821 C115.92238,56.3120357 105.936842,50.0734464 97.3850801,42.9259018 C101.129886,39.2941071 104.595332,35.4975804 107.771533,31.5674375 Z" id="Fill-22" fill="#3A8340"></path>
                    <path d="M101.678352,40.5867054 C103.158261,39.0221161 104.589108,37.4311696 105.970526,35.8156964 C107.570526,37.0804732 109.953684,36.8121429 111.156796,35.2384018 C116.902517,39.4094196 123.271762,43.1415179 130.203387,46.2882679 C129.165767,48.0311339 129.888513,50.1902232 131.949108,51.060375 C130.818124,52.9467411 129.634416,54.8184643 128.39762,56.6729821 C126.291991,55.7581696 123.677803,56.3372946 122.42746,58.0124375 C115.077346,54.4351875 108.317437,50.2583125 102.207414,45.6271429 C103.613364,44.1489464 103.315698,41.9001696 101.678352,40.5867054" id="Fill-23" fill="#63BA68"></path>
                    <path d="M113.26865,50.5061429 C110.80897,49.0067143 110.326041,46.1088929 111.965217,44.0837857 C113.609886,42.0564821 116.663066,41.5622857 119.006316,42.9291964 C121.343707,44.2975714 122.179588,47.1060714 120.65135,49.2647946 C119.128604,51.4231518 115.722471,52.0070357 113.26865,50.5061429" id="Fill-24" fill="#3A8340"></path>
                    <path d="M92.8300244,25.5682589 C92.8314874,27.9462589 90.9045309,29.8750893 88.5257666,29.8765552 C86.1470023,29.8780179 84.217849,27.9513839 84.216749,25.5730179 C84.215286,23.1950179 86.1422426,21.2658214 88.5210069,21.2647215 C90.899405,21.2632589 92.8285584,23.1898929 92.8300244,25.5682589" id="Fill-25" fill="#D39E00"></path>
                    <path d="M88.5169794,22.4284643 L88.5147826,22.4284643 C87.6778032,22.4291964 86.8906178,22.7553661 86.2989474,23.3476696 C85.7072769,23.9399732 85.3817849,24.7270268 85.3821504,25.5642321 C85.3828833,27.2917232 86.7891991,28.6967054 88.5166133,28.6967054 L88.5188101,28.6967054 C90.2469565,28.6956071 91.6521739,27.2891607 91.6510769,25.5609375 C91.6507094,24.7237321 91.324119,23.9366786 90.7317162,23.3454732 C90.1400458,22.7539018 89.3532265,22.4284643 88.5169794,22.4284643 Z M88.5166133,29.2619196 C86.4776201,29.2619196 84.8179405,27.6036161 84.8168415,25.5645982 C84.816476,24.5765714 85.2005492,23.6474821 85.8991304,22.9482857 C86.5973455,22.2490893 87.5262243,21.8639821 88.5147826,21.86325 L88.5169794,21.86325 C89.5040732,21.86325 90.4325858,22.247625 91.1315332,22.9453571 C91.8304805,23.6438214 92.2160183,24.5725446 92.2163854,25.5605714 C92.2174828,27.6003214 90.5589016,29.2608214 88.5188101,29.2619196 L88.5166133,29.2619196 L88.5166133,29.2619196 Z" id="Fill-26" fill="#FFCC33" fill-rule="nonzero"></path>
                    <path d="M47.4599558,70.3706429 C47.4614188,72.7486429 45.5344622,74.6778393 43.1553318,74.6793044 C40.7769336,74.6804018 38.8477803,72.7537679 38.846315,70.3757679 C38.8452174,67.9974018 40.7721739,66.0685714 43.1509382,66.0671056 C45.5293364,66.0656429 47.4584897,67.9926429 47.4599558,70.3706429" id="Fill-27" fill="#F4B551" fill-rule="nonzero"></path>
                    <path d="M43.1469108,67.2312143 L43.144714,67.2312143 C42.3077346,67.2315804 41.5209153,67.55775 40.9288787,68.1504196 C40.3372082,68.7427232 40.0117162,69.5297768 40.0120817,70.3669821 C40.0124485,71.2038214 40.3390389,71.990875 40.9314416,72.5824464 C41.5231121,73.1732857 42.3099314,73.4987232 43.1461785,73.4987232 L43.1483753,73.4987232 C43.9853547,73.4983571 44.77254,73.1718214 45.3642105,72.5795179 C45.955881,71.9875804 46.2817391,71.2005268 46.2810092,70.3633214 C46.2802746,68.6358304 44.8743249,67.2312143 43.1469108,67.2312143 Z M43.1461785,74.0643036 C41.1071854,74.0643036 39.4478719,72.4063661 39.4467728,70.3669821 C39.4464073,69.3789554 39.8304805,68.4498661 40.5290618,67.7510357 C41.2272769,67.0518393 42.1561556,66.6663661 43.144714,66.6656339 L43.1469108,66.6656339 C45.1859039,66.6656339 46.8452174,68.3235714 46.8466819,70.3633214 C46.8466819,71.3509821 46.4626087,72.2804375 45.7640275,72.9792679 C45.0658124,73.6780982 44.1369336,74.0635714 43.1483753,74.0643036 L43.1461785,74.0643036 L43.1461785,74.0643036 Z" id="Fill-28" fill="#F9D96D" fill-rule="nonzero"></path>
                    <path d="M64.3723585,62.5751518 C64.3738215,64.9535179 62.4464989,66.8827143 60.0681007,66.8838141 C57.6897025,66.8852768 55.7601831,64.9586429 55.758717,62.5802768 C55.757254,60.2022768 57.6845767,58.2730804 60.0629748,58.2716152 C62.4417391,58.2705179 64.3708924,60.1971518 64.3723585,62.5751518" id="Fill-29" fill="#D39E00"></path>
                    <path d="M60.0589474,59.4357232 L60.0571167,59.4357232 C58.3286041,59.4368214 56.9233867,60.8436339 56.9244838,62.5714911 C56.9252174,64.2989821 58.3315332,65.7035982 60.0585812,65.7035982 L60.060778,65.7035982 C61.7892906,65.7028661 63.194508,64.2960536 63.193411,62.5678304 C63.1926773,60.8403393 61.7863616,59.4357232 60.0589474,59.4357232 Z M60.0585812,66.2691786 C58.0195881,66.2691786 56.3602746,64.6112411 56.3588092,62.5714911 C56.3577117,60.5321071 58.016659,58.8716071 60.0567506,58.8705089 L60.0585812,58.8705089 C62.0983066,58.8705089 63.7576201,60.5284464 63.7590856,62.5678304 C63.7601831,64.6075804 62.1012357,66.2677143 60.060778,66.2691786 L60.0585812,66.2691786 L60.0585812,66.2691786 Z" id="Fill-30" fill="#FFCC33" fill-rule="nonzero"></path>
                    <path d="M63.4918078,101.607154 C61.1130435,101.608616 59.1838902,99.6819821 59.1827894,97.3036161 C59.1813272,94.9256161 61.1082838,92.9967857 63.4870481,92.995319 C65.8654462,92.9938571 67.7945995,94.9208571 67.7960665,97.2988571 C67.7975286,99.6772232 65.8702059,101.606054 63.4918078,101.607154 Z" id="Fill-31" fill="#D39E00"></path>
                    <path d="M63.4830206,94.1594286 L63.4808238,94.1594286 C62.6438444,94.1597946 61.856659,94.4863304 61.2649886,95.0786339 C60.6733181,95.6705714 60.3478261,96.4579911 60.3481915,97.2951964 C60.3489245,99.0226875 61.7552403,100.427304 63.4826545,100.427304 L63.4848513,100.427304 C65.2129977,100.426571 66.617849,99.0197589 66.6171174,97.2911696 C66.6167506,96.4543304 66.2901602,95.6676429 65.6977574,95.0757054 C65.106087,94.4848661 64.3192677,94.1594286 63.4830206,94.1594286 Z M63.4826545,100.992518 C61.4436613,100.992518 59.7839817,99.3345804 59.7828827,97.2951964 C59.7825172,96.3075357 60.1665904,95.3780804 60.8651716,94.6788839 C61.5633867,93.9800536 62.4922654,93.5945804 63.4808238,93.5938482 L63.4830206,93.5938482 C65.5220137,93.5938482 67.1813272,95.2521518 67.1824265,97.2911696 C67.183524,99.3309196 65.5249428,100.99142 63.4848513,100.992518 L63.4826545,100.992518 L63.4826545,100.992518 Z" id="Fill-32" fill="#FFCC33" fill-rule="nonzero"></path>
                    <path d="M54.1594508,23.0603036 C62.2861327,16.8890714 69.9013272,9.17850893 76.5133181,-3.84961904e-13 C80.3708924,3.55528571 84.0816476,7.39208036 87.6151945,11.4983036 C86.4522099,13.009229 85.2644109,14.482766 84.0536535,15.9186487 C77.4919196,23.7004554 70.2558663,30.3763092 62.6409153,35.9039196 C60.0325858,31.3858661 57.1961556,27.0988036 54.1594508,23.0603036 Z" id="Fill-34" fill="#3A8340"></path>
                    <path d="M61.4198627,31.1695179 C60.2639817,29.3527054 59.0700229,27.5768929 57.8405492,25.8435446 C59.4577574,24.6007321 59.779222,22.2249286 58.5468192,20.6738839 C63.9948741,16.1210536 69.1690618,10.8569464 73.9137757,4.90389286 C75.3508467,6.33559821 77.6208696,6.16208036 78.9678719,4.37638393 C80.5217391,5.93365179 82.0481465,7.53814286 83.544897,9.19022321 C82.1437071,11.0081339 82.0671854,13.6841161 83.3863616,15.3058125 C78.1224714,21.5590446 72.4214188,27.0936786 66.4377117,31.8873839 C65.3477346,30.1631875 63.0938215,29.9025446 61.4198627,31.1695179" id="Fill-35" fill="#63BA68"></path>
                    <path d="M73.8702059,22.3537857 C71.8158352,24.3723036 68.8871396,24.1328929 67.3230206,22.0495804 C65.7585355,19.9600446 66.0243478,16.8788214 67.9220137,14.9404732 C69.8200458,13.0083482 72.7480092,12.8835179 74.468833,14.8921518 C76.190389,16.8952946 75.9249428,20.3407589 73.8702059,22.3537857" id="Fill-36" fill="#3A8340"></path>
                    <path d="M40.6315789,105.195384 C38.9345538,106.892125 36.1830664,106.892125 34.4860412,105.195384 L19.4270023,90.0389286 C17.7299771,88.3421875 18.2352403,86.1962768 19.9322654,84.4995357 L42.2670938,62.1688125 C43.9637529,60.4720714 46.7152403,60.4720714 48.4122654,62.1688125 L62.9664073,76.7201518 C64.6634325,78.4168929 64.6634325,81.1675536 62.9664073,82.8646607 L40.6315789,105.195384 Z" id="Fill-37" fill="#9BC3D3"></path>
                    <path d="M20.3459954,86.7655179 C20.0270938,87.0847321 20.0270938,87.6019911 20.3459954,87.9208393 C20.6652632,88.2400536 21.1822426,88.2400536 21.5015103,87.9208393 L43.2245309,66.2014554 C44.8724943,64.5537679 46.7884668,63.7985625 49.0486041,66.0583214 L61.0522654,78.0603393 C61.3631121,78.3711339 61.8669108,78.3711339 62.1777574,78.0603393 C62.488238,77.7495446 62.488238,77.2458304 62.1777574,76.9354018 L49.2507094,64.0101518 C47.5536842,62.3134107 45.2701144,61.8459375 42.9620137,64.1536518 L20.3459954,86.7655179" id="Fill-38" fill="#34466B"></path>
                    <polyline id="Fill-40" fill="#34466B" points="59.423341 73.1780446 59.0971167 76.1051518 54.0624256 71.0709375 54.3886499 68.1438304 59.423341 73.1780446"></polyline>
                    <path d="M63.9458124,86.9192679 L43.0601373,107.801446 C41.4121739,109.449134 38.7405034,109.449134 37.09254,107.801446 L19.4270023,90.0389286 L43.8410984,65.6285536 C45.1606407,64.3092321 47.2995881,64.3092321 48.6187643,65.6285536 L63.9458124,80.9526696 C65.5937757,82.6003571 65.5937757,85.2715804 63.9458124,86.9192679" id="Fill-41" fill="#9BC3D3"></path>
                    <path d="M44.73373,67.0152321 C44.6634325,67.0152321 44.5949657,66.978625 44.5576201,66.9138304 C44.5016018,66.8164554 44.535286,66.6927232 44.6323112,66.6367143 C45.0054005,66.4221964 45.4312128,66.302125 45.8632494,66.2900446 C45.9654005,66.2856518 46.0686499,66.3749732 46.0715789,66.4869911 C46.0748741,66.5986429 45.9866362,66.6919911 45.8745995,66.6952857 C45.5095652,66.7055357 45.1500229,66.8069375 44.8344165,66.9885089 C44.8025629,67.0068125 44.7677803,67.0152321 44.73373,67.0152321 Z M48.5037986,68.2558482 C48.4518078,68.2558482 48.4001831,68.2360804 48.3602746,68.1965446 L47.5178032,67.3538482 C47.4387185,67.2747768 47.4387185,67.1459196 47.5178032,67.0672143 C47.5968879,66.9877768 47.7250343,66.9877768 47.8044851,67.0672143 L48.6469565,67.9095446 C48.7260412,67.9886161 48.7260412,68.1174732 48.6469565,68.1965446 C48.6074142,68.2360804 48.5554233,68.2558482 48.5037986,68.2558482 Z M42.4322197,69.1981161 C42.3802288,69.1981161 42.3286041,69.1783482 42.2886957,69.1388125 C42.209611,69.0597411 42.209611,68.9308839 42.2886957,68.8521786 L43.1315332,68.0094821 C43.210984,67.9300446 43.3387643,67.9300446 43.4182151,68.0094821 C43.4972998,68.0885536 43.4972998,68.2170446 43.4182151,68.2961161 L42.5753776,69.1388125 C42.5358352,69.1783482 42.4838444,69.1981161 42.4322197,69.1981161 Z M50.7514874,70.5027946 C50.6994966,70.5027946 50.6475057,70.4833929 50.6079634,70.4434911 L49.7651259,69.6011607 C49.6860412,69.5220893 49.6860412,69.3932321 49.7651259,69.3141607 C49.8445767,69.2350893 49.9727231,69.2350893 50.0518078,69.3141607 L50.8946453,70.1568571 C50.97373,70.2359286 50.97373,70.3644196 50.8946453,70.4434911 C50.855103,70.4833929 50.8031121,70.5027946 50.7514874,70.5027946 Z M40.1845309,71.4454286 C40.1329062,71.4454286 40.0809153,71.4256607 40.041373,71.386125 C39.9622883,71.3070536 39.9622883,71.1781964 40.041373,71.099125 L40.8838444,70.2567946 C40.9632952,70.1773571 41.0914416,70.1773571 41.1708924,70.2567946 C41.249611,70.3355 41.249611,70.4643571 41.1708924,70.5434286 L40.3280549,71.386125 C40.2881465,71.4256607 40.2365217,71.4454286 40.1845309,71.4454286 Z M52.9984439,72.7501071 C52.9468192,72.7501071 52.8948284,72.7303393 52.855286,72.6908036 L52.0124485,71.8477411 C51.9333638,71.7683036 51.9333638,71.6401786 52.0124485,71.5611071 C52.0918993,71.4816696 52.2196796,71.4816696 52.2991304,71.5611071 L53.141968,72.4041696 C53.2210526,72.4836071 53.2210526,72.6117321 53.141968,72.6908036 C53.1020595,72.7303393 53.0504348,72.7501071 52.9984439,72.7501071 Z M37.9372082,73.6920089 C37.8855835,73.6920089 37.8335927,73.6726071 37.7940503,73.6327054 C37.7149657,73.5536339 37.7149657,73.4251429 37.7940503,73.3460714 L38.6368879,72.503375 C38.7159725,72.4239375 38.844119,72.4239375 38.9235698,72.503375 C39.0026545,72.5824464 39.0026545,72.7113036 38.9235698,72.7900089 L38.0807323,73.6327054 C38.0411899,73.6726071 37.9891991,73.6920089 37.9372082,73.6920089 Z M55.2461327,74.9970536 C55.1941419,74.9970536 55.1425172,74.9772857 55.1026087,74.93775 L54.2601373,74.0950536 C54.1810526,74.0159821 54.1810526,73.887125 54.2601373,73.8084196 C54.339222,73.7289821 54.4673684,73.7289821 54.5468192,73.8084196 L55.3896568,74.65075 C55.4683753,74.7298214 55.4683753,74.8586786 55.3896568,74.93775 C55.3497483,74.9772857 55.2981236,74.9970536 55.2461327,74.9970536 Z M35.6898856,75.9393214 C35.6378947,75.9393214 35.58627,75.9195536 35.5463616,75.8800179 C35.4672769,75.8009464 35.4672769,75.6720893 35.5463616,75.5933839 L36.3891991,74.7506875 C36.4686499,74.67125 36.5964302,74.67125 36.675881,74.7506875 C36.7549657,74.8297589 36.7549657,74.95825 36.675881,75.0373214 L35.8330435,75.8800179 C35.7935011,75.9195536 35.7415103,75.9393214 35.6898856,75.9393214 Z M57.4934554,77.244 C57.4414645,77.244 57.3894737,77.2245982 57.3499314,77.1846964 L56.5070938,76.3423661 C56.4280092,76.2632946 56.4280092,76.1344375 56.5070938,76.0553661 C56.5865446,75.9762946 56.7146911,75.9762946 56.7937757,76.0553661 L57.6366133,76.8980625 C57.7156979,76.9771339 57.7156979,77.105625 57.6366133,77.1846964 C57.5970709,77.2245982 57.5450801,77.244 57.4934554,77.244 Z M33.4425629,78.1862679 C33.3909382,78.1862679 33.3389474,78.1665 33.299405,78.1269643 C33.2203204,78.0478929 33.2203204,77.9190357 33.299405,77.8399643 L34.1418764,76.9976339 C34.2213272,76.9181964 34.3494737,76.9181964 34.4285584,76.9976339 C34.507643,77.0763393 34.507643,77.2051964 34.4285584,77.2842679 L33.586087,78.1269643 C33.5461785,78.1665 33.4945538,78.1862679 33.4425629,78.1862679 Z M59.7404119,79.4909464 C59.6887872,79.4909464 59.6367963,79.4711786 59.597254,79.4316429 L58.7544165,78.5889464 C58.6753318,78.509875 58.6753318,78.3813839 58.7544165,78.3023125 C58.8338673,78.222875 58.9616476,78.222875 59.0410984,78.3023125 L59.8839359,79.1450089 C59.9630206,79.2240804 59.9630206,79.3525714 59.8839359,79.4316429 C59.8443936,79.4711786 59.7924027,79.4909464 59.7404119,79.4909464 Z M31.1948741,80.4332143 C31.1432494,80.4332143 31.0912586,80.4138125 31.0517162,80.3739107 C30.9726316,80.2948393 30.9726316,80.1663482 31.0517162,80.0872768 L31.8945538,79.2445804 C31.9736384,79.1651429 32.1017849,79.1651429 32.1812357,79.2445804 C32.2603204,79.3236518 32.2603204,79.4525089 32.1812357,79.5312143 L31.3383982,80.3739107 C31.2988558,80.4138125 31.246865,80.4332143 31.1948741,80.4332143 Z M61.9881007,81.7382589 C61.9361098,81.7382589 61.8844851,81.7184911 61.8445767,81.6789554 L61.0021053,80.8362589 C60.9230206,80.7571875 60.9230206,80.6286964 61.0021053,80.549625 C61.0811899,80.4701875 61.2093364,80.4701875 61.2887872,80.549625 L62.1316247,81.3919554 C62.2103432,81.4710268 62.2103432,81.5998839 62.1316247,81.6789554 C62.0917162,81.7184911 62.0400915,81.7382589 61.9881007,81.7382589 Z M28.9479176,82.6801607 C28.8959268,82.6801607 28.8443021,82.6603929 28.8043936,82.6208571 C28.7253089,82.5417857 28.7253089,82.4132946 28.8043936,82.3342232 L29.6472311,81.4915268 C29.7266819,81.4120893 29.8544622,81.4120893 29.933913,81.4915268 C30.0129977,81.5705982 30.0129977,81.6990893 29.933913,81.7781607 L29.0910755,82.6208571 C29.0515332,82.6603929 28.9995423,82.6801607 28.9479176,82.6801607 Z M63.674508,84.3201607 C63.5664989,84.3201607 63.4767963,84.2352321 63.4724027,84.1265089 C63.4555606,83.7608036 63.3482838,83.4031518 63.1622883,83.0912589 C63.1051716,82.9949821 63.136659,82.8705179 63.2325858,82.8130446 C63.329611,82.7552054 63.45373,82.7874196 63.5104805,82.8836964 C63.7308924,83.2523304 63.8572082,83.675875 63.8769794,84.1078393 C63.8824714,84.2198571 63.7956979,84.3146696 63.6840275,84.3197946 L63.674508,84.3201607 Z M26.5567048,84.8681696 C26.4779863,84.7890982 26.4779863,84.6602411 26.5567048,84.5811696 L27.3999085,83.7384732 C27.4793593,83.6590357 27.6075057,83.6590357 27.6865904,83.7384732 C27.7656751,83.8171786 27.7656751,83.9460357 27.6865904,84.0251071 L26.8437529,84.8681696 C26.8038444,84.9077054 26.5966133,84.9077054 26.5567048,84.8681696 Z M62.1254005,86.9840625 C62.0734096,86.9840625 62.0217849,86.9642946 61.9818764,86.9247589 C61.9031579,86.8456875 61.9031579,86.7168304 61.9818764,86.638125 L62.824714,85.7954286 C62.9030664,85.7167232 63.0389016,85.7068393 63.1179863,85.7844464 C63.1978032,85.8613214 63.2091533,85.9791964 63.1333638,86.0597321 L63.1073684,86.0864554 L62.2689245,86.9247589 C62.229016,86.9642946 62.1773913,86.9840625 62.1254005,86.9840625 Z M24.4529062,87.1740536 C24.4012815,87.1740536 24.3492906,87.1546518 24.3097483,87.11475 C24.2306636,87.0356786 24.2306636,86.9071875 24.3097483,86.8281161 L25.1525858,85.9854196 C25.2316705,85.9063482 25.3598169,85.9063482 25.4392677,85.9854196 C25.5183524,86.0644911 25.5183524,86.1933482 25.4392677,86.2724196 L24.5964302,87.11475 C24.5568879,87.1546518 24.504897,87.1740536 24.4529062,87.1740536 Z M59.8780778,89.231375 C59.8264531,89.231375 59.7744622,89.2116071 59.7349199,89.1717054 C59.6558352,89.093 59.6558352,88.9641429 59.7349199,88.8850714 L60.5773913,88.042375 C60.6568421,87.9633036 60.7849886,87.9633036 60.8644394,88.042375 C60.9431579,88.1214464 60.9431579,88.2503036 60.8644394,88.329375 L60.0216018,89.1717054 C59.9816934,89.2116071 59.9300686,89.231375 59.8780778,89.231375 Z M22.648238,89.7014107 L22.6226087,89.6999464 C22.5116705,89.6860357 22.4329519,89.5846339 22.4464989,89.4737143 C22.4999542,89.0443125 22.6599542,88.6321161 22.9092906,88.2814196 C22.9740961,88.1902679 23.1011442,88.1690357 23.1919451,88.2338304 C23.2831121,88.298625 23.304714,88.4249196 23.2395423,88.5164375 C23.0293822,88.8125893 22.8942792,89.1607232 22.8492449,89.5235 C22.8360641,89.6263661 22.7489245,89.7014107 22.648238,89.7014107 Z M57.6307551,91.4779554 C57.5787643,91.4779554 57.5267735,91.4585536 57.4872311,91.4186518 C57.4081465,91.3395804 57.4081465,91.2110893 57.4872311,91.1320179 L58.3300686,90.2893214 C58.4095195,90.2098839 58.5372998,90.2098839 58.6167506,90.2893214 C58.6958352,90.3683929 58.6958352,90.49725 58.6167506,90.5759554 L57.773913,91.4186518 C57.7343707,91.4585536 57.6823799,91.4779554 57.6307551,91.4779554 Z M24.0285584,92.4026518 C23.9769336,92.4026518 23.9249428,92.3828839 23.8854005,92.3433482 L23.1948741,91.6529375 C23.139222,91.5969286 23.0864989,91.5398214 23.0367048,91.4805179 C22.9649428,91.3948571 22.9762929,91.2667321 23.0623341,91.1949821 C23.1480092,91.1232321 23.2761556,91.1345804 23.3479176,91.2202411 C23.3896568,91.2703929 23.4343249,91.3190804 23.4815561,91.3663036 L24.1720824,92.0563482 C24.251167,92.1354196 24.251167,92.2642768 24.1720824,92.3433482 C24.1321739,92.3828839 24.0805492,92.4026518 24.0285584,92.4026518 Z M55.3834325,93.7252679 C55.3314416,93.7252679 55.2798169,93.7055 55.2399085,93.6659643 C55.1608238,93.5868929 55.1608238,93.4580357 55.2399085,93.3793304 L56.082746,92.5366339 C56.1621968,92.4571964 56.2899771,92.4571964 56.3694279,92.5366339 C56.4485126,92.6157054 56.4485126,92.7441964 56.3694279,92.8232679 L55.5269565,93.6659643 C55.4870481,93.7055 55.4354233,93.7252679 55.3834325,93.7252679 Z M26.275881,94.6492321 C26.2238902,94.6492321 26.1722654,94.6298304 26.132357,94.5899286 L25.2898856,93.7472321 C25.2108009,93.6685268 25.2108009,93.5396696 25.2898856,93.4605982 C25.3689703,93.3811607 25.4971167,93.3811607 25.5765675,93.4605982 L26.419405,94.3032946 C26.4981236,94.3823661 26.4981236,94.5108571 26.419405,94.5899286 C26.3794966,94.6298304 26.3278719,94.6492321 26.275881,94.6492321 Z M53.1357437,95.9722143 C53.084119,95.9722143 53.0321281,95.9524464 52.9925858,95.9125446 C52.9135011,95.8338393 52.9135011,95.7049821 52.9925858,95.6259107 L53.8350572,94.7835804 C53.914508,94.7041429 54.0426545,94.7041429 54.1221053,94.7835804 C54.2008238,94.8622857 54.2008238,94.9911429 54.1221053,95.0702143 L53.2792677,95.9125446 C53.2393593,95.9524464 53.1877346,95.9722143 53.1357437,95.9722143 Z M28.5232037,96.8961786 C28.4712128,96.8961786 28.419222,96.8764107 28.3796796,96.836875 L27.5368421,95.9941786 C27.4577574,95.9151071 27.4577574,95.7866161 27.5368421,95.7075446 C27.6162929,95.6281071 27.7444394,95.6281071 27.823524,95.7075446 L28.6663616,96.5502411 C28.7454462,96.6293125 28.7454462,96.7578036 28.6663616,96.836875 C28.6268192,96.8764107 28.5748284,96.8961786 28.5232037,96.8961786 Z M50.8887872,98.2191607 C50.8367963,98.2191607 50.7848055,98.1997589 50.7452632,98.1598571 C50.6661785,98.0807857 50.6661785,97.9522946 50.7452632,97.8732232 L51.5881007,97.0305268 C51.6671854,96.9510893 51.7953318,96.9510893 51.8747826,97.0305268 C51.9538673,97.1095982 51.9538673,97.2384554 51.8747826,97.3171607 L51.0319451,98.1598571 C50.9924027,98.1997589 50.9404119,98.2191607 50.8887872,98.2191607 Z M30.7705263,99.1434911 C30.7189016,99.1434911 30.6669108,99.1237232 30.6273684,99.0841875 L29.7845309,98.2414911 C29.7054462,98.1624196 29.7054462,98.0335625 29.7845309,97.9548571 C29.8639817,97.8754196 29.991762,97.8754196 30.0712128,97.9548571 L30.9140503,98.7971875 C30.993135,98.8762589 30.993135,99.0051161 30.9140503,99.0841875 C30.8741419,99.1237232 30.8225172,99.1434911 30.7705263,99.1434911 Z M48.6410984,100.466107 C48.5891076,100.466107 48.5374828,100.446339 48.4975744,100.406804 C48.4184897,100.327732 48.4184897,100.198875 48.4975744,100.12017 L49.3404119,99.2774732 C49.4198627,99.1980357 49.547643,99.1980357 49.6270938,99.2774732 C49.7061785,99.3565446 49.7061785,99.4850357 49.6270938,99.5641071 L48.7842563,100.406804 C48.744714,100.446339 48.6927231,100.466107 48.6410984,100.466107 Z M33.017849,101.390071 C32.9658581,101.390071 32.9142334,101.37067 32.8743249,101.330768 L32.0318535,100.488438 C31.9527689,100.409366 31.9527689,100.280509 32.0318535,100.201438 C32.1109382,100.122366 32.2390847,100.122366 32.3185355,100.201438 L33.161373,101.044134 C33.2400915,101.123205 33.2400915,101.251696 33.161373,101.330768 C33.1214645,101.37067 33.0698398,101.390071 33.017849,101.390071 Z M46.3937757,102.71342 C46.342151,102.71342 46.2901602,102.693652 46.2506178,102.654116 C46.1715332,102.575045 46.1715332,102.446188 46.2506178,102.367116 L47.0930892,101.524786 C47.17254,101.445348 47.3006865,101.445348 47.3801373,101.524786 C47.4588558,101.603491 47.4588558,101.732348 47.3801373,101.81142 L46.5372998,102.654116 C46.4973913,102.693652 46.4457666,102.71342 46.3937757,102.71342 Z M35.2655378,103.637384 C35.2135469,103.637384 35.1615561,103.617616 35.1220137,103.57808 L34.2791762,102.735384 C34.2000915,102.656313 34.2000915,102.527821 34.2791762,102.44875 C34.358627,102.369313 34.4867735,102.369313 34.5658581,102.44875 L35.4086957,103.291446 C35.4877803,103.370518 35.4877803,103.499009 35.4086957,103.57808 C35.3691533,103.617616 35.3171625,103.637384 35.2655378,103.637384 Z M44.1464531,104.96 C44.0948284,104.96 44.0428375,104.940598 44.0032952,104.900696 C43.9242105,104.821625 43.9242105,104.693134 44.0032952,104.614062 L44.8461327,103.771366 C44.9252174,103.691929 45.0533638,103.691929 45.1328146,103.771366 C45.2118993,103.850438 45.2118993,103.979295 45.1328146,104.058 L44.2899771,104.900696 C44.2504348,104.940598 44.1984439,104.96 44.1464531,104.96 Z M37.5124943,105.88433 C37.4608696,105.88433 37.4088787,105.864563 37.3693364,105.825027 L36.5264989,104.98233 C36.4474142,104.903259 36.4474142,104.774402 36.5264989,104.695696 C36.6059497,104.616259 36.73373,104.616259 36.8131808,104.695696 L37.6560183,105.538027 C37.735103,105.617098 37.735103,105.745955 37.6560183,105.825027 C37.616476,105.864563 37.5644851,105.88433 37.5124943,105.88433 Z M41.8903432,107.197795 C41.831762,107.197795 41.7735469,107.17217 41.7336384,107.123482 C41.6626087,107.036723 41.6750572,106.90933 41.7621968,106.837946 C41.8218764,106.788893 41.8800915,106.736911 41.9361098,106.680902 L42.5984439,106.018679 C42.6778947,105.939241 42.8056751,105.939241 42.8851259,106.018679 C42.9642105,106.09775 42.9642105,106.226241 42.8851259,106.305313 L42.2231579,106.967536 C42.1576201,107.032696 42.0891533,107.094196 42.0188558,107.152036 C41.9811442,107.182786 41.9357437,107.197795 41.8903432,107.197795 Z M40.0289245,107.712125 L40.0003661,107.710295 C39.572357,107.650259 39.1626545,107.483696 38.8159268,107.228911 C38.7258581,107.162652 38.7064531,107.035625 38.7727231,106.945205 C38.8389931,106.855152 38.9664073,106.836116 39.0561098,106.902009 C39.349016,107.117259 39.6950114,107.25783 40.0571167,107.308348 C40.1676888,107.324089 40.2449428,107.426955 40.2295652,107.537509 C40.215286,107.638911 40.1285126,107.712125 40.0289245,107.712125 L40.0289245,107.712125 Z" id="Fill-42" fill="#34466B"></path>
                    <path d="M59.0971167,76.1051518 L51.5207323,83.6802679 C51.1736384,84.0276696 50.6108924,84.0276696 50.2637986,83.6802679 L46.4856751,79.9031429 C46.1385812,79.5561071 46.1385812,78.9934554 46.4856751,78.6460536 L54.0624256,71.0709375 L59.0971167,76.1051518" id="Fill-44" fill="#34466B"></path>
                    <path d="M52.2346911,77.9322143 C52.9530435,78.6504464 52.9530435,79.8152857 52.2346911,80.5335179 C51.5163387,81.25175 50.3516705,81.25175 49.6333181,80.5335179 C48.9149657,79.8152857 48.9149657,78.6504464 49.6333181,77.9322143 C50.3516705,77.2139821 51.5163387,77.2139821 52.2346911,77.9322143" id="Fill-46" fill="#9BC3D3"></path>
                    <path d="M96.0776201,78.0797435 C93.6988558,78.0812054 91.7697025,76.1542054 91.7686017,73.7762054 C91.7671396,71.3978393 93.6944622,69.4690089 96.0728604,69.4675422 C98.4512586,69.4660804 100.380412,71.3930804 100.381879,73.7710804 C100.383341,76.1490804 98.4560183,78.0782768 96.0776201,78.0797435 Z" id="Fill-53" fill="#D39E00"></path>
                    <path d="M96.068833,70.6316518 L96.0666362,70.6316518 C94.3381236,70.6323839 92.9332723,72.0391964 92.9340039,73.7674196 C92.9343707,74.6042589 93.2609611,75.3913125 93.8533638,75.9828839 C94.4450343,76.5737232 95.2314874,76.8991607 96.0681007,76.8991607 L96.0702975,76.8991607 C97.7988101,76.8984286 99.2036613,75.4916161 99.2029297,73.7637589 C99.2025629,72.9265536 98.8759725,72.1398661 98.2835698,71.5482946 C97.6918993,70.9570893 96.9050801,70.6316518 96.068833,70.6316518 Z M96.0677346,77.4647411 C95.0806407,77.4647411 94.1524943,77.0803661 93.4535469,76.383 C92.7545995,75.6845357 92.3690618,74.7558125 92.3686947,73.7674196 C92.3675973,71.7276696 94.0265446,70.0675357 96.0666362,70.0660714 L96.068833,70.0660714 C98.1078261,70.0660714 99.7671396,71.7240089 99.7682389,73.7637589 C99.7693364,75.8031429 98.1107551,77.4632768 96.0706636,77.4647411 L96.0677346,77.4647411 L96.0677346,77.4647411 Z" id="Fill-54" fill="#FFCC33" fill-rule="nonzero"></path>
                    <path d="M75.1084668,76.2237589 C77.2649886,76.8555982 79.2212357,76.6575536 79.5383066,75.5769107 L79.6946453,75.0142589 C79.9209153,73.9453304 78.3124943,73.09275 76.206865,72.4759196 C74.1579863,71.8751964 72.3533181,71.7869732 71.8960183,72.7453482 C71.8714874,72.7955 71.7440732,73.2344196 71.7283295,73.2885982 C71.4116247,74.3692411 72.9515789,75.5919196 75.1084668,76.2237589" id="Fill-57" fill="#D39E00" fill-rule="nonzero"></path>
                    <path d="M75.3167963,75.5388393 C77.4736842,76.1706786 79.4401831,75.9385893 79.7092906,75.01975 C79.9787643,74.1012768 78.4483295,72.8449196 76.2918078,72.2127143 C74.1356522,71.580875 72.1691533,71.8129643 71.8996796,72.7314375 C71.6305721,73.6499107 73.1606407,74.907 75.3167963,75.5388393" id="Fill-58" fill="#D39E00"></path>
                    <path d="M75.4866819,74.9329911 C76.3079176,75.1738661 77.1507551,75.2884464 77.7929519,75.2489107 C78.4062243,75.2112054 78.8023799,75.0380536 78.8796339,74.7741161 C78.957254,74.5101786 78.7170709,74.1506964 78.2216934,73.7879196 C77.7003204,73.4064732 76.9303432,73.0499196 76.1091076,72.8094107 C75.2834783,72.5674375 74.4300229,72.4484643 73.7713501,72.4843393 C73.1390389,72.5183839 72.7329977,72.6882411 72.6561098,72.9503482 C72.4906178,73.5159286 73.8130892,74.4424554 75.4866819,74.9329911 Z M77.5249428,75.6054643 C76.888238,75.6054643 76.1420595,75.4883214 75.3889245,75.2675804 C73.7036156,74.7733839 72.0556522,73.7593661 72.3214645,72.8522411 C72.4455835,72.4275982 72.940595,72.1801339 73.7523112,72.1362054 C74.4505263,72.0999643 75.3449886,72.2222321 76.2072311,72.4748214 C77.078627,72.7299732 77.8669108,73.0964107 78.4270938,73.5064107 C79.0667277,73.9746161 79.3391304,74.4468482 79.2142792,74.8722232 C79.0894279,75.2975982 78.6057666,75.5483571 77.8149199,75.5966786 C77.7211899,75.6025357 77.6241648,75.6054643 77.5249428,75.6054643 L77.5249428,75.6054643 Z" id="Fill-59" fill="#FFCC33" fill-rule="nonzero"></path>
                    <path d="M123.677803,77.5760268 C125.547277,78.8232321 127.473135,79.2189554 128.09849,78.2821786 L128.416293,77.7920089 C128.951945,76.8398571 127.671579,75.5457946 125.846773,74.3275089 C124.07103,73.1421696 122.375103,72.5183839 121.651991,73.2962857 C121.613913,73.3372857 121.361281,73.718 121.33016,73.7648571 C120.704805,74.7012679 121.809062,76.3280893 123.677803,77.5760268" id="Fill-60" fill="#D39E00" fill-rule="nonzero"></path>
                    <path d="M124.082014,76.9844554 C125.950755,78.2320268 127.897117,78.5980982 128.428375,77.8022589 C128.96,77.0060536 127.875515,75.3495804 126.006773,74.1016429 C124.137666,72.8544375 122.19167,72.4883661 121.660046,73.2842054 C121.128421,74.0804107 122.212906,75.7368839 124.082014,76.9844554" id="Fill-61" fill="#D39E00"></path>
                    <path d="M124.42508,76.4573125 C125.872769,77.4230089 127.37611,77.818 127.710389,77.3194107 C127.863066,77.0906161 127.74151,76.6762232 127.377208,76.1816607 C126.993867,75.6622054 126.365584,75.0918661 125.653822,74.6170714 C124.938398,74.1389821 124.160732,73.7714464 123.52,73.6078125 C122.906362,73.4518661 122.467735,73.4917679 122.316522,73.7194643 C122.164577,73.9464286 122.295286,74.3670446 122.674966,74.8733214 C123.071487,75.4022946 123.709291,75.9792232 124.42508,76.4573125 Z M127.14508,77.8769375 C126.345446,77.8769375 125.202746,77.3951875 124.231396,76.746875 C123.484119,76.2482857 122.815195,75.6413393 122.395973,75.0823482 C121.908284,74.4322054 121.78087,73.8937143 122.026545,73.5254464 C122.27222,73.1571786 122.819222,73.0689554 123.606407,73.2702946 C124.283753,73.4430804 125.100229,73.8278214 125.847506,74.3271429 C126.602471,74.8308571 127.245034,75.4158393 127.6573,75.9751964 C128.128146,76.6125268 128.246407,77.1444286 128,77.5134286 C127.830481,77.7671161 127.526957,77.8769375 127.14508,77.8769375 L127.14508,77.8769375 Z" id="Fill-62" fill="#FFCC33" fill-rule="nonzero"></path>
                    <path d="M123.885034,98.8938304 C126.017757,98.1854821 127.51341,96.9089911 127.158261,95.8400625 L126.966407,95.2883929 C126.54389,94.2805982 124.735927,94.4954821 122.65373,95.1869911 C120.627185,95.8598304 119.093455,96.8145446 119.262975,97.8629732 C119.271762,97.9178839 119.417117,98.3513125 119.434691,98.4047589 C119.78984,99.4733214 121.751945,99.6018125 123.885034,98.8938304" id="Fill-63" fill="#D39E00" fill-rule="nonzero"></path>
                    <path d="M123.666453,98.2118393 C125.799176,97.5034911 127.283478,96.1933214 126.981785,95.2850982 C126.680092,94.3765089 124.706636,94.2143393 122.573913,94.9223214 C120.440824,95.6306696 118.956888,96.9412054 119.258581,97.8494286 C119.560275,98.7576518 121.53373,98.9198214 123.666453,98.2118393" id="Fill-64" fill="#D39E00"></path>
                    <path d="M124.963295,95.1167054 C124.351121,95.1167054 123.56833,95.2495893 122.763204,95.5168214 C121.108284,96.0662946 119.818764,97.0396786 120.00476,97.5986696 C120.191121,98.1583929 121.806133,98.1668125 123.460686,97.6169732 C125.112677,97.0685982 126.348741,96.1241339 126.159817,95.5552589 C126.062792,95.2635 125.607323,95.1167054 124.963295,95.1167054 Z M121.212998,98.3732768 C120.433501,98.3732768 119.829748,98.1781607 119.673776,97.7088571 C119.37611,96.8119821 120.986728,95.7397589 122.652998,95.1858929 C124.291442,94.6426429 126.192769,94.5481964 126.490801,95.4450714 C126.788101,96.3419464 125.208604,97.4039196 123.570892,97.9479018 C122.776384,98.2114732 121.921831,98.3732768 121.212998,98.3732768 L121.212998,98.3732768 Z" id="Fill-65" fill="#F9D96D" fill-rule="nonzero"></path>
                    <path d="M20.4430206,77.8403304 C22.2974828,76.5715268 23.3827002,74.9315268 22.7459954,74.0020714 L22.4091533,73.5247143 C21.7248513,72.6728661 20.046865,73.3786518 18.2363387,74.6181696 C16.474508,75.8240089 15.2637071,77.1652946 15.7162471,78.1258661 C15.7400458,78.1760179 15.9996339,78.5527054 16.0307551,78.5988304 C16.66746,79.5282857 18.5889245,79.1098661 20.4430206,77.8403304" id="Fill-66" fill="#D39E00" fill-rule="nonzero"></path>
                    <path d="M20.0446682,77.2450982 C21.8991304,75.9762946 22.9638444,74.3070089 22.4230664,73.5173929 C21.8822883,72.7277768 19.9406865,73.1161786 18.0865904,74.3857143 C16.2321281,75.65525 15.1674142,77.3241696 15.7081922,78.1137857 C16.2489703,78.9037679 18.1905721,78.5146339 20.0446682,77.2450982" id="Fill-67" fill="#D39E00"></path>
                    <path d="M21.1522197,73.7970714 C20.9742792,73.7970714 20.7637529,73.8274554 20.5275973,73.8889554 C19.9026087,74.051125 19.1388558,74.4212232 18.4325858,74.9048036 C16.9936842,75.8899018 16.0234325,77.1806696 16.3562471,77.6671786 C16.5111213,77.8926786 16.9501144,77.9281875 17.5611899,77.7641875 C18.1997254,77.5935982 18.9733638,77.2165446 19.6832952,76.7307679 C21.1192677,75.7475 22.0463158,74.4984643 21.707643,74.0035357 C21.613913,73.8669911 21.420595,73.7970714 21.1522197,73.7970714 Z M16.8955606,78.2148214 C16.5089245,78.2148214 16.2284668,78.0969464 16.068833,77.8637589 C15.5346453,77.0840268 16.7868192,75.609125 18.2359725,74.6174375 C18.984714,74.1042054 19.7678719,73.7260536 20.4397254,73.5514375 C21.2071396,73.3526607 21.7453547,73.4408839 21.9954233,73.8069554 C22.5292449,74.5866875 21.3041648,76.0432857 19.8799085,77.0181339 C19.1388558,77.525875 18.3264073,77.9201339 17.6512586,78.1009732 C17.3675057,78.17675 17.1141419,78.2148214 16.8955606,78.2148214 L16.8955606,78.2148214 Z" id="Fill-68" fill="#FFCC33" fill-rule="nonzero"></path>
                    <path d="M63.8352403,53.1554018 C65.5710755,54.5823482 67.4486041,55.1669643 68.1640275,54.2968125 L68.5286957,53.8406875 C69.155881,52.9460089 68.0106178,51.5311429 66.3154233,50.1382411 C64.6659954,48.7826786 63.0403661,47.9937946 62.2436613,48.6962857 C62.2019222,48.7328929 61.9126773,49.0868839 61.8767963,49.1304464 C61.1617391,50.0002321 62.0990389,51.7288214 63.8352403,53.1554018" id="Fill-69" fill="#D39E00" fill-rule="nonzero"></path>
                    <path d="M64.2958352,52.6070268 C66.0320366,54.0339732 67.9318993,54.5911339 68.5400458,53.8516696 C69.1478261,53.1122054 68.2332265,51.3565268 66.496659,49.9295804 C64.7608238,48.503 62.860595,47.9458393 62.2531808,48.6849375 C61.6450343,49.4244018 62.5596339,51.1804464 64.2958352,52.6070268" id="Fill-70" fill="#D39E00"></path>
                    <path d="M63.3006865,49.0268482 C63.0985812,49.0268482 62.9484668,49.0788304 62.8631579,49.1827946 C62.6892449,49.3940179 62.7774828,49.8256161 63.1051716,50.3670357 C63.4471396,50.93225 64.0245309,51.5699464 64.6897941,52.116125 C66.0338673,53.2209286 67.4921739,53.7634464 67.8729519,53.3003661 C68.25373,52.8369196 67.4398169,51.5117411 66.0946453,50.4065714 C65.4301144,49.8603929 64.6927231,49.4174464 64.0713959,49.1915804 C63.7700686,49.0817589 63.5079176,49.0268482 63.3006865,49.0268482 Z M67.4295652,53.8077412 C66.6240732,53.8081071 65.4385355,53.1828571 64.4679176,52.3855536 C63.7740961,51.8152143 63.1688787,51.1453036 62.8067735,50.5471429 C62.386087,49.8516071 62.3124943,49.3035982 62.5933181,48.9616875 C62.874508,48.6197768 63.4266362,48.5857321 64.1907551,48.8639464 C64.8475973,49.1029911 65.6223341,49.5671696 66.3161556,50.1375089 C67.6492449,51.2327946 68.7425172,52.7911607 68.1427918,53.5214732 C67.9791304,53.72025 67.7308924,53.8077412 67.4295652,53.8077412 L67.4295652,53.8077412 Z" id="Fill-71" fill="#FFCC33" fill-rule="nonzero"></path>
                    <path d="M38.4962929,59.3540893 C35.2212357,63.4145536 32.2434783,67.6046071 29.569611,71.8924018 C20.8834783,66.5364107 10.94627,62.2127411 5.20305893e-15,59.3533571 C1.92695652,54.4743571 4.16951945,49.6312321 6.72732265,44.8554643 C18.4670023,48.323625 29.1375744,53.3007321 38.4962929,59.3540893" id="Fill-73" fill="#3A8340"></path>
                    <path d="M34.5193593,62.1988304 C33.2404577,63.9318125 32.0142792,65.6849286 30.8404577,67.4563482 C29.098032,66.3962054 26.7654005,66.9519018 25.7625629,68.6607232 C19.5514874,65.2200179 12.7758352,62.2910804 5.51212815,60.0108214 C6.32970252,58.1548393 5.34993135,56.0997143 3.1989016,55.4869107 C4.09153318,53.4768125 5.03871854,51.4747679 6.04045767,49.4837054 C8.2416476,50.1356786 10.7661327,49.2428304 11.8033867,47.4278482 C19.5342792,50.0840625 26.7525858,53.4068929 33.3806865,57.2601607 C32.1651259,58.8983304 32.7344622,61.0943929 34.5193593,62.1988304" id="Fill-74" fill="#63BA68"></path>
                    <path d="M21.8079634,53.7634464 C24.4316705,54.9524464 25.263524,57.7700982 23.8835698,59.9789732 C22.4977574,62.1915089 19.5269565,63.0539732 17.0350572,61.9824821 C14.5486499,60.9084286 13.376659,58.2225625 14.6306636,55.8939821 C15.8791762,53.5665 19.1893822,52.5726161 21.8079634,53.7634464" id="Fill-75" fill="#3A8340"></path>
                    <path d="M48.8512601,58.3715536 C48.8527231,60.7499196 46.9254005,62.67875 44.5470023,62.6798498 C42.168238,62.6813125 40.2390847,60.7546786 40.2379847,58.3763125 C40.2365217,55.9983125 42.1631121,54.0694821 44.5422426,54.0680163 C46.9206407,54.0665536 48.8497941,55.9935536 48.8512601,58.3715536" id="Fill-76" fill="#D39E00"></path>
                    <path d="M44.5382151,55.232125 L44.5360183,55.232125 C43.6990389,55.2324911 42.9114874,55.5590268 42.3201831,56.1513304 C41.7285126,56.7432679 41.4026545,57.5306875 41.4033844,58.3675268 C41.404119,60.0953839 42.8104348,61.5 44.537849,61.5 L44.5400458,61.5 C46.2678261,61.4992679 47.6730435,60.0924554 47.6719465,58.3642321 C47.6715789,57.5270268 47.3453547,56.7403393 46.7529519,56.1487679 C46.1609153,55.5575625 45.3744622,55.232125 44.5382151,55.232125 Z M44.537849,62.0655804 C42.4988558,62.0655804 40.8391762,60.4072768 40.837711,58.3678929 C40.8373455,57.3798661 41.2217849,56.4507768 41.92,55.7515804 C42.6185812,55.05275 43.54746,54.6672768 44.5360183,54.6669107 L44.5382151,54.6669107 C45.5253089,54.6669107 46.4538215,55.0509196 47.1524027,55.7486518 C47.8517162,56.4471161 48.2368879,57.3758393 48.237621,58.3638661 C48.2387185,60.4036161 46.5801373,62.0641161 44.5400458,62.0655804 L44.537849,62.0655804 L44.537849,62.0655804 Z" id="Fill-77" fill="#FFCC33" fill-rule="nonzero"></path>
                    <path d="M56.7578963,39.5115536 C56.7593593,41.8895536 54.8320366,43.81875 52.4532723,43.8202151 C50.0748741,43.8213125 48.1453547,41.8946786 48.1438896,39.5163125 C48.1431579,37.1383125 50.0697483,35.2094821 52.4485126,35.2080162 C54.8269108,35.2065536 56.7564302,37.1335536 56.7578963,39.5115536" id="Fill-78" fill="#D39E00"></path>
                    <path d="M52.4448513,36.372125 L52.4426545,36.372125 C51.6056751,36.3724911 50.8181236,36.6990268 50.2268192,37.2913304 C49.6351487,37.8832679 49.3092906,38.6706875 49.3100206,39.5075268 C49.310389,40.3450982 49.6369794,41.1317857 50.2293822,41.7233571 C50.8210526,42.3141964 51.6075057,42.64 52.444119,42.64 L52.4459497,42.64 C53.2836613,42.6392679 54.0704805,42.3130982 54.6617849,41.7207946 C55.2534554,41.1284911 55.5793135,40.3410714 55.5785836,39.5042321 C55.577849,37.7767411 54.1718993,36.372125 52.4448513,36.372125 Z M52.444119,43.2052143 C51.456659,43.2052143 50.5281465,42.8208393 49.8295652,42.1231071 C49.1306178,41.4250089 48.7450801,40.4962857 48.7443472,39.5078929 C48.7439817,38.5198661 49.1284211,37.5907768 49.8266362,36.8915804 C50.5248513,36.19275 51.45373,35.8072768 52.4426545,35.8069107 L52.4448513,35.8069107 C53.4319451,35.8069107 54.3604577,36.1909196 55.0590389,36.8886518 C55.7579863,37.5871161 56.143524,38.5158393 56.1442569,39.5038661 C56.1446224,40.4918929 55.7601831,41.4213482 55.061968,42.1201786 C54.3637529,42.819375 53.4348741,43.2044821 52.4459497,43.2052143 L52.444119,43.2052143 L52.444119,43.2052143 Z" id="Fill-79" fill="#FFCC33" fill-rule="nonzero"></path>
                    <path d="M74.9587194,32.6905446 C74.9598169,35.0685446 73.0328604,36.9977411 70.6540961,36.9988409 C68.2756979,37.0003036 66.3461785,35.0736696 66.3447131,32.6953036 C66.3436156,30.3173036 68.2705721,28.3881071 70.6493364,28.3870073 C73.0277346,28.3855446 74.957254,30.3121786 74.9587194,32.6905446" id="Fill-80" fill="#D39E00"></path>
                    <path d="M70.6453089,29.55075 L70.6434783,29.55075 C69.8061327,29.5514821 69.0189474,29.8776518 68.427643,30.4699554 C67.8359725,31.0622589 67.5101144,31.8496786 67.5108444,32.6868839 C67.5115789,34.4140089 68.9175286,35.8189911 70.6449428,35.8189911 L70.6467735,35.8189911 C71.484119,35.8182589 72.2713043,35.4920893 72.8626087,34.8997857 C73.4542792,34.3074821 73.7801373,33.5204286 73.7794074,32.6832232 C73.7790389,31.8460179 73.4524485,31.0589643 72.8600458,30.4677589 C72.2683753,29.8761875 71.4819222,29.55075 70.6453089,29.55075 Z M70.6449428,36.3842054 C69.6574828,36.3842054 68.7289703,35.9998304 68.030389,35.3020982 C67.3314416,34.6036339 66.9459039,33.6752768 66.945171,32.68725 C66.9448055,31.6988571 67.3292449,30.7697679 68.02746,30.0705714 C68.7256751,29.3717411 69.6545538,28.9862679 70.6434783,28.9855357 L70.6453089,28.9855357 C71.6327689,28.9855357 72.5612815,29.3699107 73.2598627,30.0676429 C73.9588101,30.7661071 74.3443478,31.6948304 74.3450807,32.6828571 C74.3454462,33.6708839 73.9610069,34.5999732 73.2627918,35.2991696 C72.5645767,35.9983661 71.6356979,36.3834732 70.6467735,36.3842054 L70.6449428,36.3842054 L70.6449428,36.3842054 Z" id="Fill-81" fill="#FFCC33" fill-rule="nonzero"></path>
                    <path d="M92.5232052,41.9539821 C92.5246682,44.3323482 90.5977117,46.2611786 88.2193135,46.2626444 C85.8405492,46.2641071 83.9113959,44.3371071 83.9099298,41.9591071 C83.9084668,39.5807411 85.8357895,37.6519107 88.2141876,37.6504449 C90.5929519,37.6489821 92.5217391,39.5759821 92.5232052,41.9539821" id="Fill-82" fill="#D39E00"></path>
                    <path d="M88.2101602,38.8145536 L88.2079634,38.8145536 C87.370984,38.8149196 86.5841648,39.1414554 85.9921281,39.7337589 C85.4004577,40.3260625 85.0753318,41.1131161 85.0760617,41.9503214 C85.0767963,43.6778125 86.4823799,45.0824286 88.2097941,45.0824286 L88.2119908,45.0824286 C89.9405034,45.0813304 91.3457208,43.6748839 91.3446238,41.9466607 C91.3438902,40.2191696 89.9375744,38.8145536 88.2101602,38.8145536 Z M88.2097941,45.6476429 C87.2227002,45.6476429 86.2941876,45.2636339 85.5956064,44.5655357 C84.8962929,43.8674375 84.5111213,42.9387143 84.5103869,41.9506875 C84.5096568,40.9626607 84.89373,40.0335714 85.5923112,39.334375 C86.2908924,38.6351786 87.2197712,38.2497054 88.2079634,38.2493393 L88.2101602,38.2493393 C89.197254,38.2493393 90.1261327,38.6333482 90.824714,39.3314464 C91.5240275,40.0295446 91.9095652,40.9582679 91.9102984,41.9462946 C91.9113959,43.9860446 90.2520824,45.6465446 88.2119908,45.6476429 L88.2097941,45.6476429 L88.2097941,45.6476429 Z" id="Fill-83" fill="#FFCC33" fill-rule="nonzero"></path>
                    <path d="M102.457117,57.8469732 C102.458215,60.2249732 100.531259,62.1541696 98.1524943,62.1556339 C95.7740961,62.1570982 93.8449428,60.2300982 93.8434767,57.8517321 C93.8423799,55.4737321 95.7693364,53.5449018 98.1481007,53.5434348 C100.526499,53.5419732 102.455652,55.4689732 102.457117,57.8469732 L104.347826,62.5982143" id="Fill-84" fill="#D39E00"></path>
                    <path d="M98.1437071,54.7075446 L98.1415103,54.7075446 C96.4133638,54.7086429 95.0081465,56.1150893 95.0092435,57.8433125 C95.009611,58.6801518 95.3362014,59.4672054 95.9286041,60.0587768 C96.5202746,60.6496161 97.3070938,60.9750536 98.143341,60.9750536 L98.1455378,60.9750536 C98.9825172,60.9746875 99.7697025,60.6481518 100.361373,60.0558482 C100.953043,59.4639107 101.278535,58.6768571 101.27817,57.8396518 C101.277437,56.1121607 99.8711213,54.7075446 98.1437071,54.7075446 Z M98.143341,61.5406339 C96.1043478,61.5406339 94.4450343,59.8826964 94.443935,57.8436786 C94.4428375,55.8039286 96.1014188,54.1434286 98.1415103,54.1423304 L98.1437071,54.1423304 C100.1827,54.1423304 101.84238,55.8002679 101.843479,57.8392857 C101.843844,58.8273125 101.459771,59.7564018 100.76119,60.4555982 C100.062975,61.1544286 99.1340961,61.5399018 98.1455378,61.5406339 L98.143341,61.5406339 L98.143341,61.5406339 Z" id="Fill-85" fill="#FFCC33" fill-rule="nonzero"></path>
                    <path d="M44.344631,30.2656984 C44.3650722,30.0654288 44.3225514,29.8602865 44.2169509,29.6807398 L44.0755918,29.4403147 L43.5100364,28.4784956 C43.4561598,28.3867919 43.4187258,28.288437 43.3976749,28.1874695 L43.3686773,28.2380705 C43.1972041,28.5375191 43.1992516,28.9052756 43.3741566,29.2027778 L43.3742163,29.2030154 L43.9610595,30.2009459 C43.9606406,30.2008865 43.9602221,30.200827 43.9598037,30.200827 C44.1145581,30.4916766 44.1100278,30.8421497 43.9453704,31.1297201 L43.9163731,31.1803211 C43.8953222,31.0793536 43.8578882,30.9809987 43.8040113,30.889295 L43.8569911,30.9794544 L43.379815,30.167901 L42.9428817,29.4248877 L42.955678,29.4465663 C42.9017418,29.3548627 42.8643078,29.2565077 42.8432569,29.1555402 L42.8142593,29.2061412 C42.642786,29.5055898 42.6448933,29.8733463 42.8197386,30.170908 L42.819858,30.1710861 L42.8382755,30.2023865 L43.2439949,30.8924208 L43.2440546,30.8924802 L43.3854137,31.1328459 C43.560378,31.430467 43.5624853,31.7982829 43.3909523,32.0977909 L43.3620148,32.1484513 C43.3409639,32.0474243 43.3034702,31.9490694 43.2495933,31.8573658 L43.3026328,31.9475252 L42.5426788,30.6551215 L42.5425594,30.6549433 C42.4731953,30.5369283 42.431156,30.4079269 42.4162029,30.2764914 C41.5833604,30.4687112 41.0041071,30.8953024 41.0069163,31.3874855 C41.0107898,32.0536283 42.0794227,32.5876654 43.3937817,32.580293 C44.7081345,32.5728613 45.770447,32.0268513 45.7666147,31.3607085 C45.7637643,30.8685254 45.1796348,30.4485403 44.344631,30.2656984" id="Flame" fill="#FFFFFF" transform="translate(43.386765, 30.383919) rotate(-14.000000) translate(-43.386765, -30.383919) "></path>
                </g>
            </g>
        </g>
    </g>
</svg>