<?xml version="1.0" encoding="UTF-8"?>
<svg width="160px" height="127px" viewBox="0 0 160 127" version="1.1" xmlns="http://www.w3.org/2000/svg" xmlns:xlink="http://www.w3.org/1999/xlink">
    <title>Concepts/Investments/Portal trade</title>
    <g id="-↳-💡-Concepts-&amp;-infographics" stroke="none" stroke-width="1" fill="none" fill-rule="evenodd">
        <g id="documentation-/-concepts-/-01" transform="translate(-242.000000, -3093.000000)">
            <g id="portal-trade" transform="translate(242.000000, 3093.000000)">
                <path d="M62.0584554,105.770193 C61.63777,105.350662 61.2251289,104.926316 60.8205324,104.497202 C52.672766,95.8588849 41.8781819,90.2209677 30.1798099,88.1019279 C23.0793091,86.815766 16.2851658,83.4353004 10.7951951,77.9602958 C-3.58426899,63.6205207 -3.6005948,40.4955673 10.7594677,26.1360601 C17.0942166,19.8017884 25.1717112,16.2621873 33.4544379,15.5163124 C40.5453324,14.8775981 47.2075443,11.7916588 52.1271525,6.65739611 C52.1905627,6.59130593 52.2544462,6.5256878 52.3183302,6.46054177 C60.7107472,-2.07972549 74.2867303,-2.16422651 82.7808883,6.27454512 C82.829629,6.32269655 82.8778967,6.37132003 82.9256913,6.41994351 C85.1947435,8.7170493 88.4698447,9.7202038 91.6432052,9.10556515 C109.735998,5.60089738 129.193535,10.8375999 143.206766,24.8166166 C165.597745,47.1532087 165.597745,83.4336954 143.206766,105.770523 C120.797805,128.124818 84.4669431,128.124676 62.0584554,105.770193" id="Primary-color" fill="#DEEDF2" transform="translate(80.000000, 61.268075) rotate(180.000000) translate(-80.000000, -61.268075) "></path>
                <polyline id="Fill-141-Copy" fill="#6AA5CD" fill-rule="nonzero" points="109.408146 37.4308195 107.329245 37.2790034 109.408513 37.4308195"></polyline>
                <polyline id="Fill-149-Copy" fill="#6AA5CD" fill-rule="nonzero" points="125.47405 38.602285 119.741144 38.1840609 125.47405 38.602285"></polyline>
                <path d="M148.649886,120.066291 C148.649886,123.895711 117.668462,127 79.4508009,127 C41.2331398,127 10.2517162,123.895711 10.2517162,120.066291 C10.2517162,116.236473 41.2331398,113.132184 79.4508009,113.132184 C117.668462,113.132184 148.649886,116.236473 148.649886,120.066291" id="Fill-1" fill="#CEDEE7"></path>
                <g id="Group-30" transform="translate(41.006865, 112.767241)">
                    <polygon id="Fill-85" fill="#34466B" points="68.0064879 -4.63511732e-14 77.3545065 4.47950897 -1.56091768e-14 4.47950897 10.5863791 -4.63511732e-14"></polygon>
                    <polyline id="Fill-88" fill="#9BC3D3" points="17.2020752 1.64970372 14.2483156 1.64718124 16.1636408 0.812239448 18.879092 0.812239448 17.2020752 1.64970372"></polyline>
                    <polyline id="Fill-89" fill="#9BC3D3" points="13.5996104 1.64634041 10.645429 1.64381793 12.851364 0.812239448 15.567237 0.812239448 13.5996104 1.64634041"></polyline>
                    <polyline id="Fill-90" fill="#9BC3D3" points="24.408692 1.65600993 21.4545106 1.65348745 22.789038 0.812239448 25.5044892 0.812239448 24.408692 1.65600993"></polyline>
                    <polyline id="Fill-91" fill="#9BC3D3" points="20.8062272 1.65306703 17.8520458 1.65012414 19.4767612 0.812239448 22.1926341 0.812239448 20.8062272 1.65306703"></polyline>
                    <polyline id="Fill-92" fill="#9BC3D3" points="31.6726715 1.66231614 28.7184901 1.65937324 29.4667365 0.812239448 32.1821876 0.812239448 31.6726715 1.66231614"></polyline>
                    <polyline id="Fill-93" fill="#9BC3D3" points="28.0697849 1.65895283 25.1156035 1.65685076 26.1548815 0.812239448 28.8703326 0.812239448 28.0697849 1.65895283"></polyline>
                    <polyline id="Fill-94" fill="#9BC3D3" points="38.8788665 1.66862234 35.9251068 1.66609986 36.0917119 0.812239448 38.8075848 0.812239448 38.8788665 1.66862234"></polyline>
                    <polyline id="Fill-95" fill="#9BC3D3" points="35.2764016 1.66567945 32.322642 1.66315697 32.7798568 0.812239448 35.4957298 0.812239448 35.2764016 1.66567945"></polyline>
                    <polyline id="Fill-96" fill="#9BC3D3" points="46.1112121 1.67534897 43.1574524 1.67282648 42.740729 0.812239448 45.4566019 0.812239448 46.1112121 1.67534897"></polyline>
                    <polyline id="Fill-97" fill="#9BC3D3" points="42.5083255 1.67240607 39.5545659 1.66946317 39.4284522 0.812239448 42.1443251 0.812239448 42.5083255 1.67240607"></polyline>
                    <polyline id="Fill-98" fill="#9BC3D3" points="53.317407 1.68123476 50.3636474 1.67871228 49.3657043 0.812239448 52.0815773 0.812239448 53.317407 1.68123476"></polyline>
                    <polyline id="Fill-99" fill="#9BC3D3" points="49.715364 1.67829186 46.7611826 1.67576938 46.0538493 0.812239448 48.7693005 0.812239448 49.715364 1.67829186"></polyline>
                    <polyline id="Fill-100" fill="#9BC3D3" points="60.5813865 1.68796138 57.6276269 1.6854389 56.0434028 0.812239448 58.7592758 0.812239448 60.5813865 1.68796138"></polyline>
                    <polyline id="Fill-101" fill="#9BC3D3" points="56.9789217 1.68459807 54.0251621 1.68207559 52.7315478 0.812239448 55.4474208 0.812239448 56.9789217 1.68459807"></polyline>
                    <polyline id="Fill-102" fill="#9BC3D3" points="67.7880033 1.69426759 64.8342437 1.6917451 62.6683782 0.812239448 65.3842512 0.812239448 67.7880033 1.69426759"></polyline>
                    <polyline id="Fill-103" fill="#9BC3D3" points="64.1855385 1.69132469 61.2313571 1.68880221 59.3565232 0.812239448 62.0723962 0.812239448 64.1855385 1.69132469"></polyline>
                    <polyline id="Fill-104" fill="#9BC3D3" points="15.2930768 2.65659476 12.0525034 2.65070897 13.9602365 1.81618759 16.9625014 1.81871007 15.2930768 2.65659476"></polyline>
                    <polyline id="Fill-105" fill="#9BC3D3" points="11.3413741 2.64944772 8.10080073 2.64356193 10.2991436 1.81156303 13.3014085 1.81492634 11.3413741 2.64944772"></polyline>
                    <polyline id="Fill-106" fill="#9BC3D3" points="23.1985911 2.67046841 19.9580178 2.66458262 21.2841095 1.82333462 24.2863744 1.82627752 23.1985911 2.67046841"></polyline>
                    <polyline id="Fill-107" fill="#9BC3D3" points="19.2464666 2.66332138 16.0063151 2.65743559 17.6230166 1.81913048 20.6252815 1.82291421 19.2464666 2.66332138"></polyline>
                    <polyline id="Fill-108" fill="#9BC3D3" points="31.1665296 2.68434207 27.9259562 2.67887669 28.6666105 1.83090207 31.6684536 1.83384497 31.1665296 2.68434207"></polyline>
                    <polyline id="Fill-109" fill="#9BC3D3" points="27.2144051 2.67761545 23.9742535 2.67172966 25.0050958 1.82753876 28.0073607 1.83048166 27.2144051 2.67761545"></polyline>
                    <polyline id="Fill-110" fill="#9BC3D3" points="39.0716222 2.69863614 35.8310488 2.69275034 35.9900617 1.83846952 38.9923266 1.84141241 39.0716222 2.69863614"></polyline>
                    <polyline id="Fill-111" fill="#9BC3D3" points="35.1199195 2.69190952 31.8793461 2.68560331 32.3289688 1.83468579 35.3312337 1.83762869 35.1199195 2.69190952"></polyline>
                    <polyline id="Fill-112" fill="#9BC3D3" points="47.0053961 2.71208938 43.7648227 2.706624 43.3400853 1.84645738 46.3423502 1.84982069 47.0053961 2.71208938"></polyline>
                    <polyline id="Fill-113" fill="#9BC3D3" points="43.0532716 2.70578317 39.8126982 2.69989738 39.6789924 1.84225324 42.6812573 1.84561655 43.0532716 2.70578317"></polyline>
                    <polyline id="Fill-114" fill="#9BC3D3" points="54.9109104 2.72680386 51.670337 2.72091807 50.6639583 1.85360441 53.6666449 1.85696772 54.9109104 2.72680386"></polyline>
                    <polyline id="Fill-115" fill="#9BC3D3" points="50.9587859 2.71965683 47.7177908 2.71377103 47.0028654 1.8502411 50.0051303 1.853184 50.9587859 2.71965683"></polyline>
                    <polyline id="Fill-116" fill="#9BC3D3" points="62.8784271 2.74067752 59.6382755 2.73479172 58.0460375 1.86159228 61.0483024 1.86495559 62.8784271 2.74067752"></polyline>
                    <polyline id="Fill-117" fill="#9BC3D3" points="58.9267244 2.73353048 55.6865728 2.7280651 54.3849446 1.85780855 57.3867877 1.86075145 58.9267244 2.73353048"></polyline>
                    <polyline id="Fill-118" fill="#9BC3D3" points="70.7839414 2.75497159 67.5433681 2.74908579 65.3703323 1.86915972 68.3721754 1.87210262 70.7839414 2.75497159"></polyline>
                    <polyline id="Fill-119" fill="#9BC3D3" points="66.8318169 2.74740414 63.5916654 2.74193876 61.7088176 1.865376 64.7106607 1.86873931 66.8318169 2.74740414"></polyline>
                    <polyline id="Fill-120" fill="#9BC3D3" points="13.3385256 3.63742014 9.81873062 3.62859145 11.7264637 2.79364966 15.0075284 2.79953545 13.3385256 3.63742014"></polyline>
                    <polyline id="Fill-121" fill="#9BC3D3" points="9.04644247 3.62648938 5.52664751 3.6180811 7.72499039 2.78566179 11.0060551 2.79238841 9.04644247 3.62648938"></polyline>
                    <polyline id="Fill-122" fill="#9BC3D3" points="21.9243789 3.65886124 18.404584 3.65003255 19.7315193 2.80836414 23.012584 2.81467034 21.9243789 3.65886124"></polyline>
                    <polyline id="Fill-123" fill="#9BC3D3" points="17.6322958 3.64793048 14.1125009 3.63910179 15.7296242 2.8012171 19.0111107 2.8071029 17.6322958 3.64793048"></polyline>
                    <polyline id="Fill-124" fill="#9BC3D3" points="39.0488458 3.70174345 27.0591883 3.67189407 27.7994208 2.82391945 38.9771423 2.84494014 39.0488458 3.70174345"></polyline>
                    <polyline id="Fill-125" fill="#9BC3D3" points="26.2864784 3.669792 22.7666834 3.6605429 23.7979475 2.81593159 27.0790122 2.82223779 26.2864784 3.669792"></polyline>
                    <polyline id="Fill-126" fill="#9BC3D3" points="47.7810585 3.72360497 44.2621071 3.71435586 43.8373697 2.85376883 47.1188562 2.86049545 47.7810585 3.72360497"></polyline>
                    <polyline id="Fill-127" fill="#9BC3D3" points="43.4893972 3.71267421 39.9696022 3.70384552 39.8358964 2.84662179 43.1169611 2.85250759 43.4893972 3.71267421"></polyline>
                    <polyline id="Fill-128" fill="#9BC3D3" points="56.3677554 3.74462566 52.8483822 3.73579697 51.8420035 2.86890372 55.12349 2.87520993 56.3677554 3.74462566"></polyline>
                    <polyline id="Fill-129" fill="#9BC3D3" points="52.0756723 3.73411531 48.5554556 3.72528662 47.8405302 2.86175669 51.1215949 2.86722207 52.0756723 3.73411531"></polyline>
                    <polyline id="Fill-130" fill="#9BC3D3" points="65.0219379 3.76648717 61.5025648 3.75765848 59.909905 2.88445903 63.1918133 2.89076524 65.0219379 3.76648717"></polyline>
                    <polyline id="Fill-131" fill="#9BC3D3" points="60.729433 3.75597683 57.2100599 3.74672772 55.9084317 2.87647117 59.1899182 2.88319779 60.729433 3.75597683"></polyline>
                    <polyline id="Fill-132" fill="#9BC3D3" points="73.6077913 3.78792828 70.0884181 3.77867917 67.9149605 2.89917352 71.1960253 2.90547972 73.6077913 3.78792828"></polyline>
                    <polyline id="Fill-133" fill="#9BC3D3" points="69.3157082 3.77741793 65.7959132 3.76816883 63.9134872 2.89202648 67.1949737 2.89791228 69.3157082 3.77741793"></polyline>
                    <polygon id="Fill-86" fill="#9BC3D3" points="-1.56091768e-14 5.70543559 77.3545065 5.70543559 77.3545065 4.47950897 -1.56091768e-14 4.47950897"></polygon>
                </g>
                <g id="Group-83" transform="translate(8.421053, 0.729885)">
                    <path d="M81.1676449,102.069566 C78.9996386,98.8544607 78.8018834,94.5201149 78.8018834,94.5201149 L64.3554028,94.5201149 C64.3554028,94.5201149 64.1582561,98.8544607 61.9896414,102.069566 C59.8204178,105.28405 55.2860412,107.293103 55.2860412,107.293103 L87.8718535,107.293103 C87.8718535,107.293103 83.3368685,105.28405 81.1676449,102.069566" id="Fill-54" fill="#34466B"></path>
                    <path d="M138.065337,1.13317274e-13 C140.675869,1.13317274e-13 142.791762,2.11082077 142.791762,4.71523764 L142.791762,92.3588687 C142.791762,94.9632855 140.675869,97.0747126 138.065337,97.0747126 L4.72581763,97.0747126 C2.11589264,97.0747126 0,94.9632855 0,92.3588687 L0,4.71523764 C0,2.11082077 2.11589264,1.13317274e-13 4.72581763,1.13317274e-13 L138.065337,1.13317274e-13 Z M135.101142,4.74009939 L7.24823876,4.74009939 C6.10461155,4.74009939 5.17792106,5.66483412 5.17792106,6.80544138 L5.17792106,6.80544138 L5.17792106,76.5874416 C5.17792106,77.728049 6.10461155,78.6527835 7.24823876,78.6527835 L7.24823876,78.6527835 L135.101142,78.6527835 C136.24477,78.6527835 137.172068,77.728049 137.172068,76.5874416 L137.172068,76.5874416 L137.172068,6.80544138 C137.172068,5.66483412 136.24477,4.74009939 135.101142,4.74009939 L135.101142,4.74009939 Z" id="Combined-Shape" fill="#34466B"></path>
                    <path d="M0,83.5718391 L0,92.3463662 C0,94.9576876 2.11589264,97.0747126 4.72581763,97.0747126 L138.065337,97.0747126 C140.675869,97.0747126 142.791762,94.9576876 142.791762,92.3463662 L142.791762,83.5718391 L0,83.5718391" id="Fill-56" fill="#9BC3D3"></path>
                    <path d="M88.8055008,108.752874 L54.7185267,108.752874 C54.4254788,108.752874 54.187643,108.515197 54.187643,108.222346 L54.187643,105.633976 C54.187643,105.341125 54.4254788,105.103448 54.7185267,105.103448 L88.8055008,105.103448 C89.0985486,105.103448 89.3363844,105.341125 89.3363844,105.633976 L89.3363844,108.222346 C89.3363844,108.515197 89.0985486,108.752874 88.8055008,108.752874" id="Fill-80" fill="#9BC3D3"></path>
                    <path d="M71.9561505,93.7902299 L71.2017443,93.7902299 C69.2870913,93.7902299 67.7345538,92.2422491 67.7345538,90.3339734 L67.7345538,89.5826932 C67.7345538,87.6738037 69.2870913,86.1264368 71.2017443,86.1264368 L71.9561505,86.1264368 C73.8708035,86.1264368 75.423341,87.6738037 75.423341,89.5826932 L75.423341,90.3339734 C75.423341,92.2422491 73.8708035,93.7902299 71.9561505,93.7902299" id="Fill-87" fill="#34466B"></path>
                </g>
                <g id="Group-86" transform="translate(39.908467, 20.071839)">
                    <g id="Fill-24-+-Fill-27-Mask" transform="translate(29.217391, 0.000000)">
                        <g id="Mask" fill="#34466B">
                            <path d="M50.5263158,25.1810345 C50.5263158,11.2739203 39.2155606,0 25.2630084,0 C11.3107551,0 0,11.2739203 0,25.1810345 C0,39.0881487 11.3107551,50.362069 25.2630084,50.362069 C39.2155606,50.362069 50.5263158,39.0881487 50.5263158,25.1810345" id="Fill-8"></path>
                        </g>
                        <path d="M45.8473022,10.2605753 C44.9218362,10.6497224 43.6593988,11.5903736 43.7583934,12.7307808 C43.9237928,14.6309853 45.1350283,14.2398818 44.9147877,15.3016771 C44.6945472,16.3636503 43.3731035,16.3636503 43.0428302,17.4814699 C42.7123819,18.5992896 41.9966437,21.0586707 42.9876386,22.2323369 C43.978634,23.4061809 45.3002526,22.4000543 45.9057831,23.29431 C46.5114885,24.1885658 46.7317291,25.3063855 47.8329322,25.138668 C48.34525,25.0607675 49.4498175,24.4660797 50.5263162,23.8672414 C50.5264381,21.7090537 49.9918129,19.5517809 49.3180778,17.5172414 C48.4156401,14.7920668 47.0798294,12.2841117 45.8473022,10.2605753 Z M19.9792014,17.6140861 C19.3516268,17.8216117 19.2249672,18.4775243 19.9792014,18.7077623 C20.7334356,18.9378171 21.719756,18.7077623 21.6617806,18.3048001 C21.6038052,17.9018378 20.5013493,17.4413618 19.9792014,17.6140861 Z M14.3171395,16.5945049 C14.2624052,17.1851265 18.4802577,18.5433872 18.4802577,17.8937597 C18.4802577,17.2441323 16.0700313,16.2402822 15.5770741,16.1812764 C14.6992336,16.0760431 14.3718738,16.0040711 14.3171395,16.5945049 Z M28.0219231,6.60231203 C28.1338685,6.22394706 27.294901,5.79138247 27.0711882,5.6831553 C26.2646119,5.29326216 26.1202754,6.33217424 26.5678789,6.81876638 C27.0153045,7.30535852 27.9101557,6.9810211 28.0219231,6.60231203 Z M30.270167,25.3478202 C28.102995,25.0150567 27.4917096,25.5697214 27.4917096,25.5697214 L23.4351582,22.0193022 C23.4351582,22.0193022 17.2116116,23.4061406 16.4335799,23.2396706 C15.6555481,23.073377 13.6551224,22.9623382 13.5995993,21.8528322 C13.5438993,20.7433261 14.5999005,19.578389 13.2105834,18.6906076 C11.8214431,17.8030028 8.76519297,18.4687064 8.3761771,17.9140417 C7.98716123,17.3592004 8.0983844,14.529916 9.37647835,13.5314488 C10.6543955,12.5328052 13.2661066,12.1444339 14.0441383,12.8657452 C14.8219932,13.58688 14.1551847,15.0847572 14.9887396,15.1956196 C15.8222945,15.3066584 15.0444396,12.2554728 16.044564,11.534338 C17.0448652,10.8130267 17.6561506,10.9794967 18.2672592,10.3692243 C18.8785446,9.7591284 18.4340056,8.92695477 19.3786068,8.538407 C20.3233849,8.1502123 24.2687131,8.03917343 24.5466827,6.98527509 C24.8244754,5.93120027 22.1015411,5.8201614 22.2682874,5.37635899 C22.4350338,4.93255661 25.9358229,6.09749378 26.1023925,4.82169426 C26.2693156,3.54571822 22.3795106,1.38213737 21.0457166,1.82593977 C19.7120995,2.26974218 18.8230214,5.26532012 17.767197,4.93255661 C16.7113726,4.59961651 14.8219932,2.88001461 15.8222945,2.15870331 C16.8225957,1.43756854 18.8230214,2.43621221 19.2120373,1.54843087 C19.3938138,1.13357978 19.3260556,1.18105387 19.0022883,0.76637931 C15.3034994,1.54878361 11.234234,3.84770637 8.23798627,6.56896552 C6.17544447,8.44221209 4.61327231,10.4008621 3.40503432,12.4810345 C3.31379242,14.6223722 3.13507238,17.2580474 3.70834032,17.081868 C4.43067204,16.8599669 4.26410252,11.7006315 4.81968791,12.5328052 C5.37545014,13.3649788 4.70864157,16.4161644 5.37545014,17.5811016 C6.04225871,18.7462153 6.59802091,18.4132753 6.59802091,18.4132753 C6.59802091,18.4132753 7.82041486,19.7446825 8.59844661,19.2454489 C8.3761771,19.6892513 9.82084057,21.797401 11.2101577,22.4631046 C12.599298,23.1288082 14.7109469,22.740437 15.6555481,24.016413 C16.6003262,25.292389 16.2113104,26.5129339 16.2113104,26.5129339 C16.2113104,26.5129339 14.6554237,28.0662423 14.9332164,30.007922 C14.8775164,30.0633531 13.8218688,29.5086884 14.0996615,31.2837215 C14.3774542,33.0591076 19.48983,35.6664909 19.7676227,37.2197991 C20.0454154,38.7731077 19.48983,46.595434 19.7676227,47.9822725 C19.9281704,48.7837827 20.2105263,49.8146552 20.5400458,49.9241379 C20.8695652,50.0336207 21.4408934,50.0968952 21.8581236,50.1431034 C22.0790644,50.1675725 22.4072641,50.2399128 22.5171625,50.1431034 C22.8989838,49.8067575 22.5460801,48.8144459 22.5460801,48.8144459 L26.6581547,44.4318532 C26.6581547,44.4318532 28.8808499,43.9324429 30.6590061,42.1016258 C32.4373391,40.2709851 38.3830931,32.8926376 37.4940148,30.6181944 C36.6049368,28.3435747 33.3819403,28.5100448 33.3819403,28.5100448 C33.3819403,28.5100448 32.4373391,25.6807603 30.270167,25.3478202 Z" id="Fill-24" fill="#9BC3D3"></path>
                        <path d="M30.2553171,25.1813503 C28.0893242,24.8475708 27.4783714,25.4039291 27.4783714,25.4039291 L23.4240272,21.8426694 C23.4240272,21.8426694 17.2038669,23.2337422 16.4262585,23.0667638 C15.6486501,22.8999626 13.6493128,22.7885847 13.5938199,21.6756911 C13.5381502,20.5627974 14.5935769,19.3943033 13.2050157,18.5038114 C11.8166312,17.6134964 8.76204397,18.2812326 8.3732398,17.7248743 C7.98443559,17.168339 8.09559824,14.3304159 9.37299676,13.3289001 C10.6502186,12.3272073 13.2605086,11.9376503 14.038117,12.6611639 C14.8155487,13.3845005 14.1491029,14.8869512 14.9822043,14.9981521 C15.8153057,15.10953 15.037874,12.0490281 16.0374543,11.3256915 C17.0372113,10.6021779 17.6481641,10.7691562 18.2589401,10.1570204 C18.8698929,9.54506169 18.4255957,8.71034719 19.369683,8.32061309 C20.3139471,7.9312331 24.2571286,7.81985519 24.5349469,6.76273905 C24.8125884,5.7054458 22.0911357,5.5940679 22.2577913,5.14891046 C22.424447,4.70375297 25.9233313,5.87224706 26.0898102,4.59255214 C26.238086,3.453629 23.1776667,1.61155539 21.5620085,1.53275862 C21.3739687,1.55365304 21.1866358,1.57667232 20.999833,1.60199353 C19.6870887,2.08876277 18.8048566,5.03452232 17.75915,4.70375297 C17.0753848,4.48737176 4.26340262,11.4924928 4.81868573,12.3272073 C5.37414554,13.1619218 4.70769981,16.2224236 5.37414554,17.3909177 C6.0405913,18.5595888 6.59605111,18.2256322 6.59605111,18.2256322 C6.59605111,18.2256322 7.81777995,19.5611046 8.59538838,19.0603467 C8.3732398,19.5055042 9.81711722,21.6200906 11.2056784,22.2878268 C12.5940629,22.955563 14.7045628,22.566006 15.6486501,23.845878 C16.5929141,25.1257499 16.2041099,26.3500215 16.2041099,26.3500215 C16.2041099,26.3500215 14.6490698,27.9080726 14.9267114,29.8556807 C14.8710417,29.9112812 13.8159684,29.3549229 14.09361,31.1353757 C14.3712516,32.9161826 19.4808457,35.5315269 19.7584872,37.0895781 C20.0361288,38.6476291 19.4808457,46.4938391 19.7584872,47.8849121 C19.9102976,48.6449023 20.2361626,49.1962692 20.6498856,49.7051724 C21.2141819,49.7905208 21.8311855,50.0972419 22.4073227,50.1431034 C22.8562148,49.6168472 22.5354329,48.7196265 22.5354329,48.7196265 L26.64527,44.3236525 C26.64527,44.3236525 28.8667559,43.8227174 30.6439446,41.9863102 C32.4213099,40.15008 38.3638286,32.7492042 37.4752344,30.4678165 C36.5866401,28.1862517 33.3653972,28.35323 33.3653972,28.35323 C33.3653972,28.35323 32.4213099,25.515307 30.2553171,25.1813503 Z" id="Fill-27" fill="#9BC3D3"></path>
                    </g>
                    <path d="M35.3136621,10.2202901 C35.1131464,10.5173174 34.9131236,10.7989262 34.7139742,11.065712 L34.4995725,10.7399002 C34.6955123,10.4776717 34.892586,10.2003673 35.0902681,9.90741218 L35.3136621,10.2202901 Z M33.8060416,11.7801544 C33.5852624,12.0150604 33.3659539,12.2337952 33.1482199,12.4370955 L32.9682336,12.1315483 C33.1815356,11.9326252 33.3965276,11.7180638 33.6131577,11.4874955 L33.8060416,11.7801544 Z M31.8492725,13.3975982 C31.6115891,13.6163715 31.3757575,13.8131026 31.141867,13.9884259 L30.9910338,13.6040924 C31.218374,13.4335688 31.4481618,13.2422135 31.6800495,13.0285655 L31.8492725,13.3975982 Z M29.8870347,14.4745549 C29.6194328,14.6232285 29.3551461,14.7458919 29.0946278,14.8437381 L28.9953273,14.4436815 C29.2461028,14.3495035 29.5011816,14.2312708 29.7600238,14.0871745 L29.8870347,14.4745549 Z M27.7559565,15.1684719 C27.6894585,15.1805561 27.6233419,15.1912024 27.5574636,15.2004309 C27.3276055,15.2326304 27.1014652,15.2476955 26.8796092,15.2465359 L26.8557214,14.8564989 C27.0672178,14.8577253 27.2829372,14.8433287 27.5027704,14.8125337 C27.5657845,14.8037064 27.6290641,14.7936553 27.6926978,14.7819723 L27.7559565,15.1684719 Z M25.2924547,15.2394515 C24.9997397,15.1885968 24.7168491,15.1110312 24.4450447,15.0096803 L24.5143741,14.6850958 C24.7716637,14.7808969 25.0394212,14.8545503 25.3173086,14.9026564 L25.2924547,15.2394515 Z M23.2153889,14.6570571 C22.928016,14.4570694 22.6549402,14.2284789 22.3974222,13.9759647 L22.5548012,13.6440078 C22.7985488,13.88304 23.0569979,14.099535 23.3288588,14.2886068 L23.2153889,14.6570571 Z M21.519181,13.2013391 C21.2556404,12.9427888 21.0147818,12.6657312 20.7977132,12.3742084 L21.0806553,12.1571824 C21.2866579,12.4338303 21.515295,12.6967225 21.7651067,12.9418659 L21.519181,13.2013391 Z M20.0634174,11.1454662 C19.8751956,10.761807 19.7158581,10.3666851 19.5872811,9.96534703 L19.9410962,9.83589699 C20.0627933,10.2153136 20.2137549,10.5899951 20.3921439,10.9536299 L20.0634174,11.1454662 Z M19.6952323,8.96563711 L19.3417545,9.02111812 L19.327426,8.92462195 C19.2802188,8.58981692 19.2619555,8.25529506 19.2744511,7.92495919 L19.6321085,7.93883908 C19.6204365,8.24682861 19.6373702,8.56039011 19.6817285,8.87498988 C19.6859769,8.90512055 19.6904274,8.93540367 19.6952323,8.96563711 Z M19.3426439,6.67214721 C19.4448001,6.31527065 19.5907601,5.97046794 19.7832946,5.64528415 L20.1095281,5.81774461 C19.9332664,6.11576773 19.7988666,6.43226691 19.7046259,6.76189144 L19.3426439,6.67214721 Z M20.5375072,4.82106401 C20.7296022,4.56613307 20.9536554,4.33620764 21.2103243,4.13698008 L21.3732563,4.45506858 C21.1351362,4.63975552 20.9291158,4.85148073 20.7529338,5.08552282 L20.5375072,4.82106401 Z M22.5264023,3.72956316 C22.7839772,3.62725031 23.0629205,3.54461042 23.3638708,3.48412614 L23.4232418,3.79683536 C23.1364571,3.85453153 22.8723273,3.93284571 22.6301918,4.02913762 L22.5264023,3.72956316 Z M24.7234643,3.14854093 C24.9975018,3.13315536 25.2861508,3.13337994 25.5897098,3.15030681 L25.584729,3.47012638 C25.2901679,3.45355897 25.0110603,3.4534557 24.7472046,3.4683869 L24.7234643,3.14854093 Z M26.9312012,3.44181791 C27.2472517,3.56361083 27.5256827,3.74446249 27.7647784,3.97538732 L27.5799396,4.23540971 C27.3710262,4.03385308 27.1289292,3.8761116 26.8481345,3.76765769 L26.9312012,3.44181791 Z M28.7041941,4.69804411 C28.8925772,4.99936708 29.0348079,5.33688297 29.1355462,5.70356876 L28.747829,5.79751865 C28.6540514,5.45586953 28.5227081,5.14691006 28.3533458,4.87601234 L28.7041941,4.69804411 Z M29.3211236,7.12640768 C29.3501549,7.47156828 29.3590154,7.83250213 29.3486898,8.20583443 L29.0266742,8.18476666 C29.0365373,7.82426702 29.0280994,7.47784007 29.0004008,7.14903703 L29.3211236,7.12640768 Z M29.2472232,9.19310127 C29.2086307,9.5963709 29.1553143,10.0082532 29.087936,10.4259085 L28.7417247,10.3279816 C28.8077835,9.91980793 28.8597237,9.5182605 28.8972012,9.12592294 L29.2472232,9.19310127 Z M28.9925351,11.4973277 C28.8775226,11.8333235 28.7493618,12.1724024 28.6088016,12.5126863 L28.2329183,12.4032715 C28.3707091,12.0692271 28.4965226,11.7365059 28.6092123,11.4070417 L28.9925351,11.4973277 Z M27.9809045,13.6299197 C27.8435227,13.9595746 27.6964748,14.2884155 27.5401512,14.6153034 L27.2111419,14.463908 C27.3647427,14.1424606 27.509428,13.8190097 27.6444972,13.4950992 L27.9809045,13.6299197 Z M27.0549167,15.9627032 C26.9000955,16.2854753 26.7374225,16.6045122 26.5675016,16.9180555 L26.2751331,16.7256202 C26.4422145,16.4173099 26.6020737,16.1036884 26.7544152,15.7862848 L27.0549167,15.9627032 Z M25.8720136,17.695007 C25.7012533,18.0099331 25.5236686,18.3172732 25.3397256,18.6157975 L25.0807634,18.3765993 C25.2610688,18.0840203 25.4353025,17.7823912 25.6028954,17.4733445 L25.8720136,17.695007 Z M24.2864099,19.6107055 C24.0987801,19.9152056 23.9048654,20.2072783 23.7051478,20.4849848 L23.4800695,20.1852752 C23.6748713,19.9144954 23.8643146,19.629287 24.0478887,19.3313851 L24.2864099,19.6107055 Z M22.8991405,20.9116148 C22.6837708,21.1490763 22.462896,21.3700033 22.2364609,21.5719583 L22.0611466,21.2616901 C22.2797584,21.0666623 22.4938263,20.8527082 22.7029549,20.6221403 L22.8991405,20.9116148 Z M20.7058327,22.574796 C20.4564721,22.7422154 20.2016455,22.8859468 19.9419979,23.0035274 L19.8309473,22.6632277 C20.0779467,22.5514337 20.3213379,22.414049 20.5606149,22.2535168 L20.7058327,22.574796 Z M18.784372,23.2356482 C18.6808969,23.2595271 18.5766447,23.2789229 18.4718721,23.2935998 C18.2863521,23.3195882 18.0989038,23.3308726 17.9098434,23.3266102 L17.8885681,22.9330766 C18.0660072,22.9371701 18.2420868,22.92648 18.4166604,22.902025 C18.51532,22.8882044 18.6135145,22.8700565 18.7112163,22.8473856 L18.784372,23.2356482 Z M16.4829247,23.2404864 C16.2003378,23.1510163 15.9147029,23.0217892 15.6271487,22.8507338 L15.7071346,22.4646925 C15.9783021,22.6263498 16.2465826,22.7473772 16.5117792,22.8314168 L16.4829247,23.2404864 Z M14.4261526,22.6514821 C14.159888,22.4476142 13.8930623,22.2125098 13.6261765,21.9442687 L13.800814,21.6334949 C14.0567886,21.8908605 14.3116759,22.1154366 14.565003,22.3093227 L14.4261526,22.6514821 Z M12.6308772,20.9960587 C12.3493386,20.7215878 12.1209409,20.4273027 11.9370662,20.1156656 L12.2763787,19.9401312 C12.4456167,20.2267482 12.6542845,20.4958303 12.9136479,20.7484884 L12.6308772,20.9960587 Z M11.5005455,19.0185698 C11.4053605,18.6963927 11.3373826,18.3613167 11.288479,18.0144812 L11.2787374,17.9440545 L11.648769,17.8949453 L11.6581336,17.9626986 C11.7051524,18.2961668 11.7700037,18.6144145 11.8593916,18.9168659 L11.5005455,19.0185698 Z M11.2610822,16.925885 C11.2415164,16.5798824 11.2299502,16.2239189 11.2208745,15.8582248 L11.5539251,15.8561324 C11.562916,16.2200342 11.5742627,16.5720594 11.5934245,16.9116236 L11.2610822,16.925885 Z M11.4121181,14.4705399 C11.4034369,14.1263501 11.3923265,13.7743925 11.3751152,13.4146409 L11.7054453,13.4042228 C11.7229027,13.7680842 11.7340846,14.1229146 11.7428266,14.4687175 L11.4121181,14.4705399 Z M10.759229,12.3924555 C10.7320854,12.0423963 10.6951045,11.6861667 10.6446379,11.3239094 L11.044398,11.2682777 C11.0959338,11.6381179 11.1336822,12.0012362 11.1610409,12.3571567 L10.759229,12.3924555 Z M10.7251569,9.83988625 C10.6566401,9.50402226 10.5758959,9.16318594 10.4806812,8.81733016 L10.8081354,8.7226752 C10.9059238,9.07702381 10.988542,9.42627031 11.0586641,9.76985936 L10.7251569,9.83988625 Z" id="Shape" fill="#34466B"></path>
                    <g id="Group-3" transform="translate(0.000000, 0.656897)">
                        <polygon id="Fill-4" fill="#EC0000" transform="translate(9.775808, 1.705132) rotate(3.000000) translate(-9.775808, -1.705132) " points="4.52826428 2.87151459 19.3720913 0.538748559 0.179319022 0.665614037"></polygon>
                        <polygon id="Fill-5" fill="#990000" transform="translate(11.495676, 5.566201) rotate(3.000000) translate(-11.495676, -5.566201) " points="3.87256549 10.5016498 19.1188516 0.63075182 3.87250058 8.44724987"></polygon>
                        <polyline id="Fill-6" fill="#990000" transform="translate(9.775778, 2.692258) rotate(3.000000) translate(-9.775778, -2.692258) " points="0.179288451 0.663851275 3.77803112 3.50624378 3.77807345 4.84576687 4.5282538 3.5062675 19.3720608 0.538748565 4.52823272 2.83924907 0.179288451 0.663851275"></polyline>
                        <polyline id="Fill-26" fill="#EC0000" transform="translate(9.865518, 5.384403) rotate(3.000000) translate(-9.865518, -5.384403) " points="19.1926068 0.538747281 0.538251843 10.2300579 4.27422934 3.53295247 19.1926068 0.538747281"></polyline>
                    </g>
                </g>
                <g id="Group-84" transform="translate(13.546911, 5.109195)">
                    <path d="M132.173913,1.43234979 C132.173913,0.641131034 131.178819,0 129.950776,0 L2.22313756,0 C0.995093862,0 0,0.641131034 0,1.43234979 L0,5.45655062 L132.173913,5.45655062 L132.173913,1.43234979" id="Fill-82" fill="#CCCCCC"></path>
                    <path d="M121.010087,2.76884524 C121.010087,3.32757517 120.555825,3.78078124 119.995272,3.78078124 C119.43472,3.78078124 118.980458,3.32757517 118.980458,2.76884524 C118.980458,2.21053572 119.43472,1.75775007 119.995272,1.75775007 C120.555825,1.75775007 121.010087,2.21053572 121.010087,2.76884524" id="Fill-157" fill="#34466B"></path>
                    <path d="M125.146953,2.76884524 C125.146953,3.32757517 124.692691,3.78078124 124.132139,3.78078124 C123.571165,3.78078124 123.116903,3.32757517 123.116903,2.76884524 C123.116903,2.21053572 123.571165,1.75775007 124.132139,1.75775007 C124.692691,1.75775007 125.146953,2.21053572 125.146953,2.76884524" id="Fill-158" fill="#34466B"></path>
                    <path d="M128.268161,3.78078124 C127.708031,3.78078124 127.253769,3.32757517 127.253769,2.76884524 C127.253769,2.21053572 127.708031,1.75775007 128.268161,1.75775007 C128.828714,1.75775007 129.283398,2.21053572 129.283398,2.76884524 C129.283398,3.32757517 128.828714,3.78078124 128.268161,3.78078124 Z" id="Fill-159" fill="#34466B"></path>
                </g>
            </g>
        </g>
    </g>
</svg>