<?xml version="1.0" encoding="UTF-8"?>
<svg width="158px" height="141px" viewBox="0 0 158 141" version="1.1" xmlns="http://www.w3.org/2000/svg" xmlns:xlink="http://www.w3.org/1999/xlink">
    <title>Concepts/Investments/Reform value</title>
    <defs>
        <filter id="filter-1">
            <feColorMatrix in="SourceGraphic" type="matrix" values="0 0 0 0 0.925490 0 0 0 0 0.000000 0 0 0 0 0.000000 0 0 0 1.000000 0"></feColorMatrix>
        </filter>
        <polygon id="path-2" points="0 0.00830969331 2.17358985 0.00830969331 2.17358985 2.18571429 0 2.18571429"></polygon>
    </defs>
    <g id="-↳-💡-Concepts-&amp;-infographics" stroke="none" stroke-width="1" fill="none" fill-rule="evenodd">
        <g id="documentation-/-concepts-/-01" transform="translate(-839.000000, -3072.000000)">
            <g id="valor-reforma" transform="translate(837.000000, 3065.000000)">
                <path d="M73.8245135,14.8135351 C56.0726828,30.1579664 40.2700777,27.5439995 29.7845151,26.7471792 C8.86223844,25.1561302 2.86816446,45.1882738 11.6776293,59.2266346 C20.4874786,73.2646264 28.354721,90.5947405 11.4876076,106.357211 C-5.37912119,122.119312 18.1402163,156.20484 46.4583224,143.757456 C74.776044,131.309334 107.844507,129.825593 123.79509,139.210552 C139.746057,148.59551 170.678033,120.687643 142.269069,97.79315 C113.860105,74.8986571 130.026967,62.674953 137.97156,50.4337308 C145.916152,38.1921392 140.406549,17.3966119 114.471517,9.29925156 C114.471517,9.29925156 91.5767285,-0.530526834 73.8245135,14.8135351 Z" id="Fill-4" fill="#DEEDF2" transform="translate(79.826052, 76.317634) rotate(5.000000) translate(-79.826052, -76.317634) "></path>
                <path d="M159.602256,138.650064 C159.602256,143.377928 124.770079,147.210533 81.8022556,147.210533 C38.8344324,147.210533 4.00225567,143.377928 4.00225567,138.650064 C4.00225567,133.92171 38.8344324,130.089105 81.8022556,130.089105 C124.770079,130.089105 159.602256,133.92171 159.602256,138.650064" id="Fill-1" fill="#CEDEE7"></path>
                <g id="Group" transform="translate(69.818182, 30.964286)">
                    <g id="Group-73">
                        <g id="g.-illustration/Characters/Body-parts/Head/Male/Model-B-00" transform="translate(31.318182, 14.571429) scale(-1, 1) translate(-31.318182, -14.571429) translate(24.818182, 2.550000)">
                            <path d="M2.48049025,10.8754041 C1.02559193,9.80447864 0.080572,8.07825749 0.080572,6.13265915 C0.080572,2.88646496 2.71141124,0.250857784 5.95187138,0.250857784 C8.9439364,0.250857784 11.4162675,2.49784594 11.7776855,5.39778408 C11.8408896,5.69992659 11.8868466,6.00539517 11.9184573,6.31081118 L11.9185447,6.31131885 L11.9195408,6.3180409 L11.9197504,6.32040414 C11.9291341,6.41178211 11.9372421,6.50310759 11.9441444,6.59427552 L12.3485313,11.132978 L11.4280976,11.4415975 L11.4185043,11.4437857 L11.4184518,11.4438032 C11.3955956,11.5228749 11.3829443,11.565623 11.3829443,11.565623 L11.3579213,12.1795886 L11.3127157,13.3271525 C11.2970763,13.7068788 11.2178135,14.0789903 11.0797852,14.4288524 C10.9833453,14.6758005 10.8558888,14.912298 10.7001591,15.1318152 C10.517292,15.3894066 10.2988301,15.6205474 10.0549433,15.8157321 C9.92787124,15.9181735 9.79283095,16.0095515 9.65172713,16.0909339 C9.57706007,16.1341547 9.5025852,16.1738568 9.42520964,16.2110907 L9.42468542,16.2113533 L9.82007316,23.3804289 C9.82007316,23.3804289 7.73098524,24.0110245 5.44332098,23.5106688 C4.06055596,23.2107669 2.60384033,22.4947101 1.49258876,20.9789559 C1.49258876,20.9789559 2.80792102,15.2679019 2.48049025,10.8754041 Z" id="Skin-tone" fill="#FFC4B8" fill-rule="nonzero"></path>
                            <path d="M5.46521611,23.4257678 C4.08234625,23.1258659 2.62571796,22.4098091 1.51448389,20.8940549 C1.51448389,20.8940549 2.93712495,14.7745658 2.45489062,10.3273638 C2.45489062,10.3273638 5.69110455,18.2312619 5.46521611,23.4257678 Z M11.4271015,11.4672429 C11.104913,11.5619294 10.7876872,11.3083642 10.8087086,10.973014 L10.9442032,8.81113693 L11.4271015,11.4672429 Z" id="Shadows" fill="#F4A48D"></path>
                        </g>
                        <g id="Hair" transform="translate(32.272727, 8.515179) scale(-1, 1) translate(-32.272727, -8.515179) translate(25.272727, 0.000000)" fill="#3B101C">
                            <path d="M5.47036724,2.27824565 C8.01985564,2.18880506 7.70680884,0 7.70680884,0 C10.4351283,0.0894405976 11.5981585,1.11680878 11.5981585,1.11680878 C13.7899846,2.85859527 12.9209067,6.35306709 12.9209067,6.35306709 C12.5864571,3.71611853 8.54582298,4.84035918 6.96404291,5.10510335 C6.31772833,5.73873005 6.56719444,7.2853885 6.23952204,8.58898981 C6.23359425,8.6126132 5.53067935,10.3769535 5.53067935,10.3769535 L5.52982989,10.3790742 L5.49020044,10.5623998 C5.47860338,10.5323957 5.4664708,10.5023916 5.45380265,10.4724059 C5.02860785,9.46622686 4.16248465,8.87108728 3.51980801,9.14171426 C2.87668817,9.41276538 2.70042392,10.4478052 3.12561872,11.4539842 C3.27372132,11.8044807 3.64789949,12.1051486 3.87489164,12.3367168 C4.05121131,13.8140911 4.01819291,15.1862943 3.89378305,16.3643468 L3.2343504,16.3928571 L0.0140457904,5.51948054 C-0.162236929,4.01274761 1.35898739,2.94250345 2.43450404,2.61295635 C3.27178232,2.35625261 4.35365149,2.31734134 5.47036724,2.27824565 Z" id="Hair-color"></path>
                        </g>
                        <polyline id="Fill-6" fill="#AFBECC" fill-rule="nonzero" points="12.736864 4.73571429 12.7176814 4.71504825 12.7176814 1.45714286 12.736864 1.45714286 12.736864 4.73571429"></polyline>
                        <path d="M0.325342246,10.8937197 L0.31397479,10.9634232 C0.346798319,10.948629 0.380332316,10.9341192 0.413297938,10.9194673 C0.384026738,10.9107899 0.354755539,10.9021126 0.325342246,10.8937197" id="Fill-11" fill="#FFFFFF" fill-rule="nonzero"></path>
                    </g>
                    <path d="M37.9263676,38.6264099 C37.5557135,39.386511 36.9896465,40.5319746 36.0359058,40.4286315 C36.0009205,40.4250903 35.9659353,40.4073834 35.9274832,40.3787309 C34.8126844,39.5291303 32.6010521,28.0007705 32,24.7597976 C32.6533723,25.0241106 33.5305239,25.1490234 34.6030883,24.7884503 C35.4487217,24.5064306 36.0036985,23.9852093 36.3636364,23.3142857 L40.6832647,23.3142857 C44.072732,23.539322 45.6763782,24.0747087 46.4558233,25.9126658 C47.5633731,28.5326159 46.6339011,33.9470077 43.7477793,40.4357143 L37.9263676,38.6264099 Z" id="Fill-36" fill="#34466B"></path>
                    <path d="M42.5454545,63.75 L20.7375833,63.75 L21.5423474,36.4922409 L17.5854056,39.4226769 L16.9039393,38.8028502 L16.7844451,38.6935627 L11.8683791,34.2308742 L11.6363636,33.9525717 L17.5118707,27.3451114 C20.6462985,24.5414362 23.8859574,23.8793559 28.0606514,23.6785714 C28.2714305,24.3406518 28.5877577,24.9642908 28.9532137,25.376026 C29.8105934,26.3484962 29.7931605,33.9420877 30.1164608,36.4391853 C30.7348518,41.173187 32.7871747,46.5057295 35.5840389,46.843759 C36.0832526,46.9069808 36.6033858,46.8084947 37.1409516,46.5232029 C38.6801145,45.7095813 39.8782273,41.9937982 42.5454545,41.018151 L42.5454545,63.75 Z" id="Fill-39" fill="#34466B"></path>
                    <path d="M20.926814,54.864451 C19.5280386,55.2418747 18.0835577,54.787491 17.9927817,54.4610534 C17.8969274,54.1346155 19.7045122,53.7110157 19.6083404,53.2928675 C19.5581915,53.05814 18.7450163,53.0837933 18.028013,53.1498507 C17.3919463,53.2110977 16.780954,52.9103132 16.4527639,52.3696706 L16.4073759,52.298162 L16.0487156,51.6555478 C16.0487156,51.6555478 15.4983465,51.2117462 14.6600969,50.5024334 C13.4028812,49.4416706 9.31254542,45.3516057 7.63636364,43.7142857 C7.66651651,42.6378105 7.70720495,42.0249573 8.54545455,41.3464286 C9.08058851,40.9176982 10.2527107,40.5120329 10.9090909,40.4357143 C11.6130809,41.3614765 15.1174682,46.2061523 16.7707973,47.773246 C17.0789913,48.0182347 17.4170208,48.2786156 17.7756811,48.5386755 C17.7756811,48.5386755 18.4672926,48.2731644 19.2499975,48.3549342 C19.7346651,48.40592 20.6820997,48.7827021 21.0909091,49.2470265 L20.926814,54.864451 Z" id="Fill-44" fill="#FFC4B8"></path>
                    <path d="M15.3018347,38.7135397 C14.7975813,39.0116562 14.0606061,39.4642856 13.0909091,40.0714286 C11.6363636,40.9821429 11.0281662,41.3656603 9.81818182,42.075 C8.60819742,42.7843397 8.03660636,42.7499347 7.63636364,43.7142857 C7.06634055,43.0746299 6.53651909,42.4902413 6.30056956,42.0207834 C5.30964604,40.0374422 10.8242806,34.9971298 11.5737674,34.3175936 C11.630576,34.2676646 11.8181818,34.2428571 11.8181818,34.2428571 L16,38.0678571 L15.3018347,38.7135397 Z" id="Fill-45" fill="#FFC4B8"></path>
                    <path d="M13.6367273,63.9321429 C13.6363636,63.9321429 13.636,63.9321429 13.636,63.9321429 C13.636,63.9321429 13.6363636,63.9321429 13.6367273,63.9321429" id="Fill-47" fill="#ECEEEB" fill-rule="nonzero"></path>
                    <path d="M13.8181818,42.3090117 C13.6164874,42.2756438 13.4163639,42.2581341 13.2190678,42.2581341 C13.0701532,42.2581341 12.9228095,42.2680452 12.7779791,42.288859 C12.9265795,42.2677148 13.0780073,42.2571429 13.2310061,42.2571429 C13.4217047,42.2571429 13.6149166,42.2733313 13.8096993,42.3050472 C13.8125268,42.3063688 13.8153543,42.3076904 13.8181818,42.3090117" id="Fill-49" fill="#ECEEEB" fill-rule="nonzero"></path>
                    <path d="M17.6405455,48.2707714 C17.6401818,48.2707714 17.6401818,48.2707714 17.6401818,48.2707714 C17.6376364,48.26895 17.6350909,48.2671286 17.6325455,48.2653071 C17.6325455,48.2649429 17.6321818,48.2649429 17.6321818,48.2649429 C17.6347273,48.2667643 17.6376364,48.26895 17.6405455,48.2707714" id="Fill-51" fill="#ECEEEB" fill-rule="nonzero"></path>
                    <path d="M17.6401818,48.2705893 C17.6376364,48.2687679 17.6350909,48.2669464 17.6325455,48.265125 C17.6350909,48.2669464 17.6376364,48.2687679 17.6401818,48.2705893" id="Fill-52" fill="#EAB99F" fill-rule="nonzero"></path>
                    <path d="M17.6392727,48.2698607 C17.6389091,48.2698607 17.6389091,48.2694964 17.6389091,48.2694964 C17.6370909,48.2684036 17.6356364,48.2669464 17.6338182,48.2658536 C17.6338182,48.2658536 17.6338182,48.2658536 17.6334545,48.2658536 C17.6352727,48.2669464 17.6374545,48.2684036 17.6392727,48.2698607" id="Fill-53" fill="#ECEEEB" fill-rule="nonzero"></path>
                    <path d="M17.6389091,48.2696786 C17.6370909,48.2685857 17.6356364,48.2674929 17.6338182,48.2660357 C17.6356364,48.2671286 17.6370909,48.2685857 17.6389091,48.2696786" id="Fill-54" fill="#EAB99F" fill-rule="nonzero"></path>
                    <path d="M14.73,40.2541179 C14.7281818,40.2537536 14.7263636,40.2533893 14.7245455,40.253025 C14.7263636,40.2533893 14.7281818,40.2537536 14.73,40.2541179" id="Fill-55" fill="#ECEEEB" fill-rule="nonzero"></path>
                    <path d="M29.4050221,24.7975677 C29.0390335,24.3865718 28.7222453,23.7640525 28.5111591,23.1031609 C28.2191299,22.2240863 28.1169197,21.2784151 28.3353067,20.6701666 C28.5146507,20.1779863 29.0568091,19.1476423 28.5146507,18.9367532 C28.2442063,18.8308329 27.8395143,18.7736238 27.6363636,19.125 C27.4351175,19.4725706 27.4360474,20.2284094 27.0614883,20.1323201 C26.6916905,20.0406705 26.8853186,17.2318812 28.884131,16.8132743 C29.0460167,16.7780732 29.2183774,16.7571429 29.4050221,16.7571429 C31.8929834,16.7571429 32.8538227,18.7505999 32.8538227,18.9123344 C32.8538227,19.0775574 32.0010376,23.304946 31.6363636,23.6785714 C31.2716897,24.0521968 30.2636513,25.7682919 29.4050221,24.7975677 Z" id="Fill-61" fill="#F4A48D" fill-rule="nonzero"></path>
                    <path d="M13.2730909,59.925 C13.2727273,59.925 13.2727273,59.925 13.2723636,59.925 C13.2727273,59.925 13.2727273,59.925 13.2730909,59.925" id="Fill-57" fill="#ECEEEB" fill-rule="nonzero"></path>
                    <path d="M42.9667316,40.6845608 C42.5512247,41.4402729 41.8897153,42.4563463 40.9009429,43.4971554 C39.9823207,44.471051 38.6323149,45.9985535 37.0909091,46.8107143 C33.5046644,48.7023739 30.3574214,42.1963028 29.6292531,36.6342213 C29.3054817,34.1412899 29.9000149,26.1325776 29.0413857,25.1618535 C28.6753971,24.7508575 28.3586089,24.1283382 28.1475227,23.4674467 C27.8554935,22.588372 27.7532833,21.6427009 27.9716704,21.0344523 C28.1510143,20.542272 28.6931728,19.511928 28.1510143,19.3010389 C27.88057,19.1951187 27.7050351,19.5461777 27.5018844,19.8975538 C27.3006382,20.2451244 27.0724111,20.5926951 26.697852,20.4966058 C26.3280542,20.4049562 26.5216822,17.5961669 28.5204947,17.17756 C28.6823804,17.1423589 28.8547411,17.1214286 29.0413857,17.1214286 C31.529347,17.1214286 32.4901864,19.1148856 32.4901864,19.2766202 C32.4901864,19.4418431 32.0010376,24.0335174 32.0010376,24.0335174 C32.0010376,24.0335174 32.0537297,24.335739 32.15594,24.8666087 C32.7822155,28.1647242 36.2205411,40.3011548 36.2205411,40.3011548 C36.2205411,40.3011548 37.103612,39.5838147 37.7654385,38.9019927 C37.8522011,38.8104488 37.930388,38.7145466 38,38.6142857 L43.2727273,40.2535714 C43.1508367,40.3907909 43.0488382,40.5344543 42.9667316,40.6845608 Z" id="Fill-61" fill="#FFC4B8"></path>
                    <polygon id="Fill-74" fill="#3B101C" transform="translate(26.000027, 110.742795) rotate(1.000000) translate(-26.000027, -110.742795) " points="25.5104224 108.557129 29.818117 108.557263 29.8182192 111.843192 29.8182435 112.625559 24.4875569 112.691932 22.4417997 112.92846 22.1818095 110.494309 22.7342825 110.07284"></polygon>
                    <polygon id="Fill-78" fill="#3B101C" transform="translate(37.272937, 110.742802) rotate(7.000000) translate(-37.272937, -110.742802) " points="36.8230982 108.759505 33.4545583 111.232875 33.8575609 113.292077 41.0913151 112.118633 39.9449839 108.193527"></polygon>
                    <path d="M40.7272727,63.75 L40.7272727,109.285714 L34.8023652,109.285714 C34.8023652,109.285714 32.0622495,73.6152007 31.4314224,65.4206962 C30.888456,65.4206962 30.1489092,65.4206962 30.1489092,65.4206962 L30.1489092,109.285714 L24.2277942,109.285714 L20.7272727,63.75 L40.7272727,63.75" id="Fill-38" fill="#9BC3D3"></path>
                </g>
                <g id="Group-11" transform="translate(120.805788, 34.718453) rotate(4.000000) translate(-120.805788, -34.718453) translate(116.305788, 27.705953)">
                    <g filter="url(#filter-1)" id="Group-3">
                        <g transform="translate(0.275644, 10.093215)">
                            <g id="Fill-1-Clipped" transform="translate(0.000000, -0.000000)">
                                <mask id="mask-3" fill="white">
                                    <use xlink:href="#path-2"></use>
                                </mask>
                                <g id="path-1"></g>
                                <path d="M1.34076136,0.0413270759 C1.04836364,-0.0292305134 0.772056818,0.013425067 0.519647727,0.168064353 C0.267204545,0.322703638 0.103465909,0.549710556 0.0330340909,0.842664574 C-0.0375340909,1.13592596 0.00507954545,1.41269203 0.159545455,1.66527864 C0.313943182,1.91813846 0.540477273,2.08213533 0.832943182,2.15272707 C0.948886364,2.18069739 1.06230682,2.19087462 1.17276136,2.18329292 C1.340625,2.17174962 1.50163636,2.11922417 1.65405682,2.0259898 C1.9065,1.87128221 2.07020455,1.64434359 2.14067045,1.35138957 C2.21103409,1.05874292 2.16848864,0.782011003 2.01409091,0.528707208 C1.85942045,0.275813237 1.63285227,0.111816362 1.34076136,0.0413270759" id="Fill-1" fill="#EC0000" fill-rule="nonzero" mask="url(#mask-3)"></path>
                            </g>
                        </g>
                    </g>
                    <path d="M7.66839931,1.82161668 C7.13057625,1.00999252 6.28187007,0.458671392 5.1458508,0.182973907 C4.01008815,-0.0925759093 2.99994704,0.00735889113 2.14335971,0.480046436 C1.39879441,0.891008461 0.876513673,1.53698524 0.591106753,2.40007194 C0.542976865,2.54552562 0.557786062,2.70589384 0.631612102,2.83997703 C0.705474796,2.97409714 0.832672589,3.07159541 0.98061792,3.10747891 L1.65703892,3.27161268 C1.92697684,3.33702992 2.20226659,3.18788452 2.29720673,2.92440662 C2.46553303,2.45718282 2.72707662,2.13002278 3.09679332,1.92424644 C3.54433161,1.67516624 4.10161924,1.62905668 4.75318716,1.78713604 C5.40266571,1.94477239 5.87227116,2.24797317 6.14877058,2.68835818 C6.42402367,3.12734035 6.48575309,3.67515435 6.33234596,4.31651647 C6.1208384,5.20057215 5.72692844,5.73513287 5.16153975,5.90532107 C4.56620276,6.08448014 3.70943215,6.03467886 2.61351501,5.75709861 L2.32077681,5.68603302 C2.02855179,5.61511512 1.7336142,5.79689533 1.66323386,6.09108832 L1.04901881,8.65856729 C1.01489168,8.8011045 1.03794857,8.94847789 1.11393734,9.07355327 C1.18992611,9.1986656 1.30968264,9.28645463 1.45124976,9.32078761 L2.13734806,9.48728407 C2.1926626,9.50068501 2.2480138,9.50504125 2.30197206,9.50134954 C2.53309082,9.48536439 2.73781695,9.32075071 2.79492766,9.08222881 L3.19268652,7.41951603 C3.19759848,7.39891625 3.21830936,7.38577374 3.23861703,7.39009303 C4.52540415,7.66586435 5.57601393,7.61831505 6.36130455,7.24862643 C7.19644785,6.85545847 7.76528225,6.04848587 8.05197215,4.85008044 C8.33756236,3.65640041 8.20849509,2.63748631 7.66839931,1.82161668" id="Fill-7" fill="#EC0000"></path>
                </g>
                <g id="Group-2" transform="translate(28.000000, 81.600000)">
                    <g id="Group">
                        <path d="M5.41010102,18.8749915 C5.41010102,18.8749915 5.56517047,17.3436437 9.93145229,17.4912764 C14.2980461,17.6390606 20.6207928,16.4919518 24.7087608,16.401614 C29.4360393,16.2973314 34.1252525,17.1588755 34.1252525,17.1588755 L27.0567995,27.3214286 L12.1737193,27.3214286 L5.41010102,18.8749915 Z" id="Fill-4" fill="#6F7779" fill-rule="nonzero"></path>
                        <path d="M34.3333333,7.35576923 C30.0012604,14.3569316 24.7425269,20.6752295 22.3811622,28.1620879 C18.5362217,27.0923667 14.6973011,26.022348 10.820202,24.9486103 C12.8121381,17.3849926 13.419826,9.72453327 15.1369085,1.68131868 C21.4796107,2.62608289 27.4270624,4.30407695 33.2929293,6.58989757 L34.3333333,7.35576923 Z" id="Fill-5" fill="#63BA68"></path>
                        <path d="M33.9788887,6.45942434 C29.4821736,13.2554142 25.0712355,20.1675243 22.5860055,27.5285364 L23.3400864,27.7244262 L23.5634022,27.0627573 C19.5752687,26.0253205 15.5928864,24.9877395 11.5705736,23.946408 L11.3480794,24.6083654 L12.1113625,24.7741072 C13.1548173,21.0699443 13.8319948,17.3572708 14.4713779,13.6039191 C15.1105967,9.85027897 15.7120211,6.05567217 16.5965749,2.18216133 L15.8257329,2.04642329 L15.7024903,2.72814273 C22.2143055,3.63503442 28.3204059,5.24470587 34.3573259,7.4437776 L34.6586954,6.80619826 L33.9788887,6.45942434 L34.6586954,6.80619826 L34.9600649,6.16861892 C28.8278371,3.934639 22.5955363,2.29005937 15.9489757,1.36470384 L15.2031109,1.26098901 L15.0547267,1.91082949 C14.1583415,5.83655836 13.5539593,9.65583171 12.9162195,13.399663 C12.2786439,17.1439269 11.6075464,20.8124604 10.5847964,24.4427679 L10.4040404,25.0836649 L11.1255853,25.270467 C15.1464192,26.3113657 19.1281442,27.3488025 23.1166064,28.3862393 L23.870523,28.5824176 L24.0938388,27.9204602 C25.7551945,22.9931577 28.3293043,18.2231659 31.236903,13.5167906 C32.5536941,11.385371 33.9388836,9.26699915 35.3386664,7.15297218 L35.789899,6.47096422 L34.9600649,6.16861892 L34.6586954,6.80619826 L33.9788887,6.45942434 Z" id="Fill-6" fill="#3A8340"></path>
                        <path d="M22.6562469,11.2105173 C26.1104975,12.1727963 27.8659441,15.0401372 26.682016,17.4250234 C25.4894961,19.8222881 22.4541788,21.1475687 19.7100305,20.3766933 C16.9797246,19.5973076 15.0401892,16.918121 15.4535536,14.3424501 C15.8764647,11.7791578 19.1994505,10.269127 22.6562469,11.2105173" id="Fill-7" fill="#165E34" fill-rule="nonzero"></path>
                        <path d="M11.6525252,25.3897733 C12.4571401,25.613756 13.2578023,25.8366899 14.0575999,26.0604395 C14.4358208,24.8135015 13.6126777,23.4953598 12.2105925,23.1181319 C12.0435923,23.878298 11.8597932,24.6356672 11.6525252,25.3897733" id="Fill-8" fill="#165E34" fill-rule="nonzero"></path>
                        <path d="M19.7720022,13.4810704 C19.2825604,13.3926852 18.9440811,13.6701032 18.7604306,14.3058394 C18.5732653,14.9457162 18.7012055,15.3186857 19.1347613,15.427933 C19.4008348,15.4937043 19.6250818,15.441151 19.8069748,15.2661324 C19.9939644,15.0915916 20.260741,14.7149593 20.6220667,14.1348022 C20.9818108,13.5551228 21.40078,13.1660688 21.8807317,12.9724177 C22.3585744,12.7795629 22.9074171,12.7612488 23.5151332,12.9224124 C24.2214408,13.1104897 24.6739767,13.48967 24.8562212,14.0481688 C25.0418049,14.6061898 24.9966392,15.1758362 24.7435705,15.7607708 C24.1293519,17.1704745 23.1137383,17.7875782 21.683549,17.6297589 C21.7865339,17.2236649 21.8911005,16.8183671 21.9951398,16.4125916 C22.7592664,16.5183353 23.2887774,16.1960081 23.5957989,15.4419472 C23.8836644,14.7355028 23.7066921,14.2927807 23.0578523,14.1211064 C22.7715684,14.04578 22.5258809,14.0758787 22.3221959,14.2137914 C22.1193895,14.3507487 21.8160586,14.7190998 21.4301289,15.3186857 C21.0431448,15.9169976 20.6421013,16.3167215 20.2254168,16.518813 C19.8076778,16.7201083 19.3641048,16.7597621 18.8813412,16.6384117 C18.3679985,16.5070283 17.979257,16.2127296 17.7158196,15.752649 C17.4518549,15.2933646 17.4052833,14.7095447 17.5915699,14.0011893 C17.9544773,12.5951484 18.8010271,11.9995438 20.0922043,12.242404 C19.9848259,12.6555051 19.8786776,13.0682878 19.7720022,13.4810704" id="Fill-9" fill="#85BF43" fill-rule="nonzero"></path>
                        <path d="M18.3111111,14.4790943 C18.2091904,14.6970163 18.106748,14.9148481 18.0067405,15.1318681 C17.5555763,15.0696305 17.1024988,15.0078438 16.6464647,14.9467788 C16.7369062,14.728496 16.8273478,14.5103034 16.9158761,14.2912088 C17.3856505,14.3536268 17.8507288,14.4161351 18.3111111,14.4790943" id="Fill-10" fill="#85BF43" fill-rule="nonzero"></path>
                        <path d="M25.8020202,16.1859263 C25.6471509,16.3950735 25.4937112,16.6040397 25.3418598,16.8131868 C24.9390408,16.7433505 24.5381279,16.6748711 24.1373737,16.6071154 C24.2784239,16.3955258 24.4216979,16.1841171 24.5670368,15.9725275 C24.9773213,16.0430875 25.3888765,16.1139189 25.8020202,16.1859263" id="Fill-11" fill="#85BF43" fill-rule="nonzero"></path>
                        <path d="M22.7972439,28.1620879 C23.0849632,27.3536278 23.3933901,26.5502009 23.7212121,25.7516814 C22.121038,25.3416002 20.43745,26.0972116 19.9757576,27.4400733 C20.9154753,27.6807867 21.8562137,27.9216261 22.7972439,28.1620879" id="Fill-12" fill="#165E34" fill-rule="nonzero"></path>
                        <path d="M35.3737374,6.49270545 C33.3877536,5.97132017 31.4005624,5.48836085 29.3986811,5.04395603 C28.4315479,6.44631155 30.1684033,8.08153617 33.313498,8.82692307 C34.0009153,8.04799376 34.6925584,7.26996406 35.3737374,6.49270545" id="Fill-13" fill="#3A8340"></path>
                        <path d="M14.8151571,2.10164835 C14.5817938,2.9182142 14.3599656,3.72841077 14.1494949,4.53365345 C17.0809996,4.88691282 19.7864168,4.17614786 20.3919192,2.8190185 C18.5576658,2.53947768 16.6980353,2.29945002 14.8151571,2.10164835" id="Fill-14" fill="#165E34" fill-rule="nonzero"></path>
                        <path d="M18.5351797,22.3144843 C18.984894,22.4516529 19.2397516,22.9209716 19.1093403,23.3635139 C18.9778764,23.8055693 18.5211444,24.0566597 18.0845297,23.9227773 C17.647798,23.78926 17.3903673,23.3207932 17.5067433,22.8747213 C17.6252246,22.429258 18.0854654,22.1784111 18.5351797,22.3144843" id="Fill-15" fill="#165E34" fill-rule="nonzero"></path>
                        <path d="M24.8595806,7.62507852 C25.546346,7.79968562 25.9421506,8.2966796 25.7561624,8.72373899 C25.5678557,9.1499959 24.8953872,9.35395258 24.2455877,9.19161266 C23.5982353,9.02835562 23.1867171,8.55039301 23.3354819,8.11221285 C23.4884971,7.67598173 24.1729441,7.45081535 24.8595806,7.62507852" id="Fill-16" fill="#165E34" fill-rule="nonzero"></path>
                        <path d="M23.6576889,26.0604395 C19.6650531,25.5274104 15.6773585,24.9935041 11.6525252,24.4623756 C12.4749932,16.8426613 11.9043662,9.31081066 12.3804732,1.26098901 C16.8403526,1.31599611 22.3454437,0.949936947 26.6343434,1.68131868 C28.5578231,2.00932773 29.2950684,3.1866315 31.2121212,3.63462063 C26.9776862,13.5219259 24.4595421,20.9971989 23.6576889,26.0604395 Z" id="Fill-17" fill="#63BA68"></path>
                        <path d="M30.7363841,2.84026905 C27.5270163,10.2809614 24.415079,17.827634 23.2053287,25.580968 L23.9531916,25.6822379 L24.0619917,24.9851238 C20.1066559,24.4485991 16.1557415,23.911044 12.1672445,23.3761385 L12.0597077,24.0732526 L12.8116763,24.1427285 C13.2230324,20.2681223 13.2849333,16.4316394 13.3045141,12.5589467 C13.3239371,8.68610682 13.3010401,4.77676262 13.5353789,0.751428976 L12.7808837,0.713305548 L12.7706196,1.41763222 C16.9934554,1.47062231 22.9820436,1.94483459 30.7363841,2.84026905 L31.4373477,3.1031588 L31.6238397,2.42061695 C25.4418115,0.952202556 19.2567829,0.0899359657 12.79099,0.0091260718 L12.0653924,0 L12.0262307,0.675182119 C11.7890495,4.75483058 11.8128939,8.68949227 11.7933131,12.5523229 C11.774048,16.4155952 11.7111997,20.2065949 11.3077391,24.0039239 L11.2363636,24.674543 L11.9521708,24.7705139 C15.938457,25.3051251 19.8885818,25.842533 23.8442335,26.3792049 L24.5922543,26.4807692 L24.7008966,25.7833607 C25.8743276,18.2433119 28.9325753,10.7918743 32.1383112,3.36590135 L32.4606061,2.6191826 L31.6238397,2.42061695 L31.4373477,3.1031588 L30.7363841,2.84026905 Z" id="Fill-18" fill="#3A8340"></path>
                        <path d="M11.6525252,24.4789312 C12.479642,24.5858078 13.3041712,24.692574 14.127838,24.7994506 C14.312162,23.5827358 13.2997356,22.4521407 11.8590272,22.2774725 C11.8092499,23.0110345 11.7428391,23.7448172 11.6525252,24.4789312" id="Fill-20" fill="#165E34" fill-rule="nonzero"></path>
                        <path d="M23.2833188,26.0604395 C23.4123808,25.2268396 23.557808,24.3954989 23.7212121,23.5669199 C22.3169036,23.3590533 21.0066949,24.312277 20.8080808,25.6952924 C21.6329122,25.8167989 22.4591073,25.9381799 23.2833188,26.0604395" id="Fill-24" fill="#165E34" fill-rule="nonzero"></path>
                        <path d="M26.010101,1.26098901 C25.4622137,2.91192626 27.5456831,4.54175287 30.3382293,5.04395603 C30.7689324,4.11192902 31.2023767,3.45070203 31.6282828,2.52197802 C29.8554443,2.14859277 27.7813976,1.547634 26.010101,1.26098901 Z" id="Fill-25" fill="#3A8340"></path>
                        <path d="M12.1952834,0.420329669 C12.1419013,1.26700602 12.1004186,2.10586615 12.0686869,2.93859357 C14.8420764,3.01050274 17.1920451,2.0313115 17.4787879,0.603349329 C15.7320533,0.499213307 13.9697833,0.436803846 12.1952834,0.420329669" id="Fill-26" fill="#3A8340"></path>
                        <path d="M5.41010102,18.8676025 C5.41010102,18.8676025 5.56517047,16.2511262 9.93145229,16.398888 C14.2980461,16.5469532 18.9526261,18.3737989 23.0371619,18.5594873 C28.8893961,18.8252765 34.1252525,17.1499853 34.1252525,17.1499853 L27.0567995,27.3214286 L12.1737193,27.3214286 L5.41010102,18.8676025 Z" id="Fill-30" fill="#9BC3D3"></path>
                        <path d="M35.3902863,42.0317986 C33.1705921,36.9737093 29.7573941,31.6880294 26.6107824,26.9010989 L11.4093033,26.9010989 C8.29726975,31.6880294 5.15782865,37.0404651 2.6994337,42.0317986 C-2.54497222,52.6815818 0.443727265,56.1915836 6.59816,58.7074839 C11.1634319,60.573696 26.9256507,60.573696 31.4909227,58.7074839 C37.6463116,56.1915836 39.1981851,50.7088854 35.3902863,42.0317986" id="Fill-31" fill="#9BC3D3"></path>
                        <path d="M27.8828283,27.0235258 C27.8828283,27.1879426 27.5773631,27.3214286 27.201332,27.3214286 L10.2540135,27.3214286 C9.87670233,27.3214286 9.57171716,27.1879426 9.57171716,27.0235258 L9.57171716,26.7786719 C9.57171716,26.6142552 9.87670233,26.4807692 10.2540135,26.4807692 L27.201332,26.4807692 C27.5773631,26.4807692 27.8828283,26.6142552 27.8828283,26.7786719 L27.8828283,27.0235258" id="Fill-35" fill="#E8F4F6" fill-rule="nonzero"></path>
                    </g>
                    <path d="M23.6363636,50.157555 C23.0102496,50.578505 21.959861,51 20.626348,51 C18.9899385,51 17.5353219,50.3783901 16.5253011,49.2147803 C15.7574876,48.3723357 15.2524772,47.2092709 15.0704099,45.7651188 L13.8181818,45.7651188 L13.8181818,44.781994 L14.9693529,44.781994 L14.9693529,44.4815494 C14.9693529,44.1603842 14.9899487,43.8593942 15.0099953,43.5788519 L13.8181818,43.5788519 L13.8181818,42.5758247 L15.1514202,42.5758247 C15.3939021,41.1717499 15.9996949,40.008413 16.8081509,39.1864157 C17.8384929,38.1228632 19.15141,37.5214286 20.8081407,37.5214286 C22.0002288,37.5214286 22.9292392,37.8622233 23.4949388,38.1634862 L23.0909854,39.4868604 C22.5857004,39.1864157 21.7374257,38.9255034 20.8281873,38.9255034 C19.7371562,38.9255034 18.8482391,39.3066482 18.1614359,40.0285878 C17.5553685,40.6101201 17.1514151,41.5128175 16.9493011,42.5758247 L22.5857004,42.5758247 L22.5857004,43.5788519 L16.7675084,43.5788519 C16.7474617,43.8394918 16.7271405,44.1404818 16.7271405,44.421024 L16.7271405,44.781994 L22.5857004,44.781994 L22.5857004,45.7651188 L16.8685654,45.7651188 C17.0300369,46.9281837 17.4345395,47.7908035 17.9796432,48.3922381 C18.72741,49.1747031 19.7371562,49.5555751 20.8281873,49.5555751 C21.8988972,49.5555751 22.8281823,49.1545278 23.2930994,48.893888 L23.6363636,50.157555 Z" id="Fill-674" fill="#DEEDF2"></path>
                </g>
                <g id="Group-33" transform="translate(18.909091, 118.392857)">
                    <path d="M8.36363636,22.4034187 C8.36363636,22.9064189 6.49088102,23.3142857 4.18174218,23.3142857 C1.87184338,23.3142857 0,22.9064189 0,22.4034187 C0,21.9010294 1.87184338,21.4928571 4.18174218,21.4928571 C6.49088102,21.4928571 8.36363636,21.9010294 8.36363636,22.4034187" id="Fill-157" fill="#D39E00"></path>
                    <path d="M18.5454545,22.4034187 C18.5454545,22.9064189 16.6726992,23.3142857 14.3635604,23.3142857 C12.0536616,23.3142857 10.1818182,22.9064189 10.1818182,22.4034187 C10.1818182,21.9010294 12.0536616,21.4928571 14.3635604,21.4928571 C16.6726992,21.4928571 18.5454545,21.9010294 18.5454545,22.4034187" id="Fill-157-Copy" fill="#D39E00"></path>
                    <polygon id="Fill-158" fill="#D39E00" points="0 22.2214286 8.36363636 22.2214286 8.36363636 21.1285714 0 21.1285714"></polygon>
                    <polygon id="Fill-158-Copy" fill="#D39E00" points="10.1818182 22.2214286 18.5454545 22.2214286 18.5454545 21.1285714 10.1818182 21.1285714"></polygon>
                    <path d="M8.36363636,21.31018 C8.36363636,21.8135116 6.49088102,22.2214286 4.18174218,22.2214286 C1.87184338,22.2214286 0,21.8135116 0,21.31018 C0,20.8077643 1.87184338,20.4 4.18174218,20.4 C6.49088102,20.4 8.36363636,20.8077643 8.36363636,21.31018" id="Fill-159" fill="#FFCC33"></path>
                    <path d="M18.5454545,21.31018 C18.5454545,21.8135116 16.6726992,22.2214286 14.3635604,22.2214286 C12.0536616,22.2214286 10.1818182,21.8135116 10.1818182,21.31018 C10.1818182,20.8077643 12.0536616,20.4 14.3635604,20.4 C16.6726992,20.4 18.5454545,20.8077643 18.5454545,21.31018" id="Fill-159-Copy" fill="#FFCC33"></path>
                    <path d="M8.36363636,20.5819901 C8.36363636,21.0849903 6.49088102,21.4928571 4.18174218,21.4928571 C1.87184338,21.4928571 0,21.0849903 0,20.5819901 C0,20.0796008 1.87184338,19.6714286 4.18174218,19.6714286 C6.49088102,19.6714286 8.36363636,20.0796008 8.36363636,20.5819901" id="Fill-160" fill="#D39E00"></path>
                    <path d="M18.5454545,20.5819901 C18.5454545,21.0849903 16.6726992,21.4928571 14.3635604,21.4928571 C12.0536616,21.4928571 10.1818182,21.0849903 10.1818182,20.5819901 C10.1818182,20.0796008 12.0536616,19.6714286 14.3635604,19.6714286 C16.6726992,19.6714286 18.5454545,20.0796008 18.5454545,20.5819901" id="Fill-160-Copy" fill="#D39E00"></path>
                    <polygon id="Fill-161" fill="#D39E00" points="0 20.7642857 8.36363636 20.7642857 8.36363636 19.6714286 0 19.6714286"></polygon>
                    <polygon id="Fill-161-Copy" fill="#D39E00" points="10.1818182 20.7642857 18.5454545 20.7642857 18.5454545 19.6714286 10.1818182 19.6714286"></polygon>
                    <path d="M8.36363636,19.4887514 C8.36363636,19.9920831 6.49088102,20.4 4.18174218,20.4 C1.87184338,20.4 0,19.9920831 0,19.4887514 C0,18.9863357 1.87184338,18.5785714 4.18174218,18.5785714 C6.49088102,18.5785714 8.36363636,18.9863357 8.36363636,19.4887514" id="Fill-162" fill="#FFCC33"></path>
                    <path d="M18.5454545,19.4887514 C18.5454545,19.9920831 16.6726992,20.4 14.3635604,20.4 C12.0536616,20.4 10.1818182,19.9920831 10.1818182,19.4887514 C10.1818182,18.9863357 12.0536616,18.5785714 14.3635604,18.5785714 C16.6726992,18.5785714 18.5454545,18.9863357 18.5454545,19.4887514" id="Fill-162-Copy" fill="#FFCC33"></path>
                    <path d="M8.36363636,18.7605616 C8.36363636,19.2635617 6.49088102,19.6714286 4.18174218,19.6714286 C1.87184338,19.6714286 0,19.2635617 0,18.7605616 C0,18.2581722 1.87184338,17.85 4.18174218,17.85 C6.49088102,17.85 8.36363636,18.2581722 8.36363636,18.7605616" id="Fill-163" fill="#D39E00"></path>
                    <path d="M18.5454545,18.7605616 C18.5454545,19.2635617 16.6726992,19.6714286 14.3635604,19.6714286 C12.0536616,19.6714286 10.1818182,19.2635617 10.1818182,18.7605616 C10.1818182,18.2581722 12.0536616,17.85 14.3635604,17.85 C16.6726992,17.85 18.5454545,18.2581722 18.5454545,18.7605616" id="Fill-163-Copy" fill="#D39E00"></path>
                    <polygon id="Fill-164" fill="#D39E00" points="0 18.5785714 8.36363636 18.5785714 8.36363636 17.4857143 0 17.4857143"></polygon>
                    <polygon id="Fill-164-Copy" fill="#D39E00" points="10.1818182 18.5785714 18.5454545 18.5785714 18.5454545 17.4857143 10.1818182 17.4857143"></polygon>
                    <path d="M8.36363636,17.6673228 C8.36363636,18.1706545 6.49088102,18.5785714 4.18174218,18.5785714 C1.87184338,18.5785714 0,18.1706545 0,17.6673228 C0,17.1649071 1.87184338,16.7571429 4.18174218,16.7571429 C6.49088102,16.7571429 8.36363636,17.1649071 8.36363636,17.6673228" id="Fill-165" fill="#FFCC33"></path>
                    <path d="M18.5454545,17.6673228 C18.5454545,18.1706545 16.6726992,18.5785714 14.3635604,18.5785714 C12.0536616,18.5785714 10.1818182,18.1706545 10.1818182,17.6673228 C10.1818182,17.1649071 12.0536616,16.7571429 14.3635604,16.7571429 C16.6726992,16.7571429 18.5454545,17.1649071 18.5454545,17.6673228" id="Fill-165-Copy" fill="#FFCC33"></path>
                    <path d="M8.36363636,16.939133 C8.36363636,17.4421331 6.49088102,17.85 4.18174218,17.85 C1.87184338,17.85 0,17.4421331 0,16.939133 C0,16.4367437 1.87184338,16.0285714 4.18174218,16.0285714 C6.49088102,16.0285714 8.36363636,16.4367437 8.36363636,16.939133" id="Fill-166" fill="#D39E00"></path>
                    <path d="M18.5454545,16.939133 C18.5454545,17.4421331 16.6726992,17.85 14.3635604,17.85 C12.0536616,17.85 10.1818182,17.4421331 10.1818182,16.939133 C10.1818182,16.4367437 12.0536616,16.0285714 14.3635604,16.0285714 C16.6726992,16.0285714 18.5454545,16.4367437 18.5454545,16.939133" id="Fill-166-Copy" fill="#D39E00"></path>
                    <polygon id="Fill-167" fill="#D39E00" points="0 16.7571429 8.36363636 16.7571429 8.36363636 15.6642857 0 15.6642857"></polygon>
                    <polygon id="Fill-167-Copy" fill="#D39E00" points="10.1818182 16.7571429 18.5454545 16.7571429 18.5454545 15.6642857 10.1818182 15.6642857"></polygon>
                    <path d="M8.36363636,15.8458942 C8.36363636,16.3492259 6.49088102,16.7571429 4.18174218,16.7571429 C1.87184338,16.7571429 0,16.3492259 0,15.8458942 C0,15.3434786 1.87184338,14.9357143 4.18174218,14.9357143 C6.49088102,14.9357143 8.36363636,15.3434786 8.36363636,15.8458942" id="Fill-168" fill="#FFCC33"></path>
                    <path d="M18.5454545,15.8458942 C18.5454545,16.3492259 16.6726992,16.7571429 14.3635604,16.7571429 C12.0536616,16.7571429 10.1818182,16.3492259 10.1818182,15.8458942 C10.1818182,15.3434786 12.0536616,14.9357143 14.3635604,14.9357143 C16.6726992,14.9357143 18.5454545,15.3434786 18.5454545,15.8458942" id="Fill-168-Copy" fill="#FFCC33"></path>
                    <path d="M8.36363636,15.1177044 C8.36363636,15.6207046 6.49088102,16.0285714 4.18174218,16.0285714 C1.87184338,16.0285714 0,15.6207046 0,15.1177044 C0,14.6153151 1.87184338,14.2071429 4.18174218,14.2071429 C6.49088102,14.2071429 8.36363636,14.6153151 8.36363636,15.1177044" id="Fill-169" fill="#D39E00"></path>
                    <path d="M18.5454545,15.1177044 C18.5454545,15.6207046 16.6726992,16.0285714 14.3635604,16.0285714 C12.0536616,16.0285714 10.1818182,15.6207046 10.1818182,15.1177044 C10.1818182,14.6153151 12.0536616,14.2071429 14.3635604,14.2071429 C16.6726992,14.2071429 18.5454545,14.6153151 18.5454545,15.1177044" id="Fill-169-Copy" fill="#D39E00"></path>
                    <polygon id="Fill-170" fill="#D39E00" points="0 14.9357143 8.36363636 14.9357143 8.36363636 13.8428571 0 13.8428571"></polygon>
                    <polygon id="Fill-170-Copy" fill="#D39E00" points="10.1818182 14.9357143 18.5454545 14.9357143 18.5454545 13.8428571 10.1818182 13.8428571"></polygon>
                    <path d="M8.36363636,13.66018 C8.36363636,14.1635116 6.49088102,14.5714286 4.18174218,14.5714286 C1.87184338,14.5714286 0,14.1635116 0,13.66018 C0,13.1577643 1.87184338,12.75 4.18174218,12.75 C6.49088102,12.75 8.36363636,13.1577643 8.36363636,13.66018" id="Fill-171" fill="#FFCC33"></path>
                    <path d="M18.5454545,13.66018 C18.5454545,14.1635116 16.6726992,14.5714286 14.3635604,14.5714286 C12.0536616,14.5714286 10.1818182,14.1635116 10.1818182,13.66018 C10.1818182,13.1577643 12.0536616,12.75 14.3635604,12.75 C16.6726992,12.75 18.5454545,13.1577643 18.5454545,13.66018" id="Fill-171-Copy" fill="#FFCC33"></path>
                    <path d="M8.36363636,13.2962759 C8.36363636,13.799276 6.49088102,14.2071429 4.18174218,14.2071429 C1.87184338,14.2071429 0,13.799276 0,13.2962759 C0,12.7938865 1.87184338,12.3857143 4.18174218,12.3857143 C6.49088102,12.3857143 8.36363636,12.7938865 8.36363636,13.2962759" id="Fill-172" fill="#D39E00"></path>
                    <path d="M18.5454545,13.2962759 C18.5454545,13.799276 16.6726992,14.2071429 14.3635604,14.2071429 C12.0536616,14.2071429 10.1818182,13.799276 10.1818182,13.2962759 C10.1818182,12.7938865 12.0536616,12.3857143 14.3635604,12.3857143 C16.6726992,12.3857143 18.5454545,12.7938865 18.5454545,13.2962759" id="Fill-172-Copy" fill="#D39E00"></path>
                    <polygon id="Fill-173" fill="#D39E00" points="0 13.1142857 8.36363636 13.1142857 8.36363636 12.0214286 0 12.0214286"></polygon>
                    <polygon id="Fill-173-Copy" fill="#D39E00" fill-rule="nonzero" points="10.1818182 13.1142857 18.5454545 13.1142857 18.5454545 12.0214286 10.1818182 12.0214286"></polygon>
                    <path d="M8.36363636,12.2030371 C8.36363636,12.7063688 6.49088102,13.1142857 4.18174218,13.1142857 C1.87184338,13.1142857 0,12.7063688 0,12.2030371 C0,11.7006214 1.87184338,11.2928571 4.18174218,11.2928571 C6.49088102,11.2928571 8.36363636,11.7006214 8.36363636,12.2030371" id="Fill-174" fill="#FFCC33"></path>
                    <path d="M18.5454545,12.2030371 C18.5454545,12.7063688 16.6726992,13.1142857 14.3635604,13.1142857 C12.0536616,13.1142857 10.1818182,12.7063688 10.1818182,12.2030371 C10.1818182,11.7006214 12.0536616,11.2928571 14.3635604,11.2928571 C16.6726992,11.2928571 18.5454545,11.7006214 18.5454545,12.2030371" id="Fill-174-Copy" fill="#FFCC33"></path>
                    <path d="M8.36363636,11.1105616 C8.36363636,11.6135617 6.49088102,12.0214286 4.18174218,12.0214286 C1.87184338,12.0214286 0,11.6135617 0,11.1105616 C0,10.6081722 1.87184338,10.2 4.18174218,10.2 C6.49088102,10.2 8.36363636,10.6081722 8.36363636,11.1105616" id="Fill-175" fill="#D39E00"></path>
                    <path d="M18.5454545,11.1105616 C18.5454545,11.6135617 16.6726992,12.0214286 14.3635604,12.0214286 C12.0536616,12.0214286 10.1818182,11.6135617 10.1818182,11.1105616 C10.1818182,10.6081722 12.0536616,10.2 14.3635604,10.2 C16.6726992,10.2 18.5454545,10.6081722 18.5454545,11.1105616" id="Fill-175-Copy" fill="#D39E00"></path>
                    <polygon id="Fill-176" fill="#D39E00" points="0 11.2928571 8.36363636 11.2928571 8.36363636 10.2 0 10.2"></polygon>
                    <polygon id="Fill-176-Copy" fill="#D39E00" points="10.1818182 11.2928571 18.5454545 11.2928571 18.5454545 10.2 10.1818182 10.2"></polygon>
                    <path d="M8.36363636,10.3816085 C8.36363636,10.8849402 6.49088102,11.2928571 4.18174218,11.2928571 C1.87184338,11.2928571 0,10.8849402 0,10.3816085 C0,9.87919284 1.87184338,9.47142857 4.18174218,9.47142857 C6.49088102,9.47142857 8.36363636,9.87919284 8.36363636,10.3816085" id="Fill-177" fill="#FFCC33"></path>
                    <path d="M18.5454545,10.3816085 C18.5454545,10.8849402 16.6726992,11.2928571 14.3635604,11.2928571 C12.0536616,11.2928571 10.1818182,10.8849402 10.1818182,10.3816085 C10.1818182,9.87919284 12.0536616,9.47142857 14.3635604,9.47142857 C16.6726992,9.47142857 18.5454545,9.87919284 18.5454545,10.3816085" id="Fill-177-Copy" fill="#FFCC33"></path>
                    <path d="M8.36363636,9.65341872 C8.36363636,10.1564189 6.49088102,10.5642857 4.18174218,10.5642857 C1.87184338,10.5642857 0,10.1564189 0,9.65341872 C0,9.15102938 1.87184338,8.74285714 4.18174218,8.74285714 C6.49088102,8.74285714 8.36363636,9.15102938 8.36363636,9.65341872" id="Fill-178" fill="#D39E00"></path>
                    <polygon id="Fill-179" fill="#D39E00" points="0 9.47142857 8.36363636 9.47142857 8.36363636 8.37857143 0 8.37857143"></polygon>
                    <path d="M8.36363636,8.19589424 C8.36363636,8.69922591 6.49088102,9.10714286 4.18174218,9.10714286 C1.87184338,9.10714286 0,8.69922591 0,8.19589424 C0,7.69347856 1.87184338,7.28571429 4.18174218,7.28571429 C6.49088102,7.28571429 8.36363636,7.69347856 8.36363636,8.19589424" id="Fill-180" fill="#FFCC33"></path>
                    <path d="M8.36363636,7.83199015 C8.36363636,8.33499029 6.49088102,8.74285714 4.18174218,8.74285714 C1.87184338,8.74285714 0,8.33499029 0,7.83199015 C0,7.32960081 1.87184338,6.92142857 4.18174218,6.92142857 C6.49088102,6.92142857 8.36363636,7.32960081 8.36363636,7.83199015" id="Fill-181" fill="#D39E00"></path>
                    <polygon id="Fill-182" fill="#D39E00" points="0 7.65 8.36363636 7.65 8.36363636 6.55714286 0 6.55714286"></polygon>
                    <path d="M8.36363636,6.37446567 C8.36363636,6.87779734 6.49088102,7.28571429 4.18174218,7.28571429 C1.87184338,7.28571429 0,6.87779734 0,6.37446567 C0,5.87204999 1.87184338,5.46428571 4.18174218,5.46428571 C6.49088102,5.46428571 8.36363636,5.87204999 8.36363636,6.37446567" id="Fill-183" fill="#FFCC33"></path>
                    <path d="M8.36363636,6.01056158 C8.36363636,6.51356172 6.49088102,6.92142857 4.18174218,6.92142857 C1.87184338,6.92142857 0,6.51356172 0,6.01056158 C0,5.50817223 1.87184338,5.1 4.18174218,5.1 C6.49088102,5.1 8.36363636,5.50817223 8.36363636,6.01056158" id="Fill-184" fill="#D39E00"></path>
                    <polygon id="Fill-185" fill="#D39E00" points="0 5.82857143 8.36363636 5.82857143 8.36363636 4.73571429 0 4.73571429"></polygon>
                    <path d="M8.36363636,4.55303709 C8.36363636,5.05636877 6.49088102,5.46428571 4.18174218,5.46428571 C1.87184338,5.46428571 0,5.05636877 0,4.55303709 C0,4.05062141 1.87184338,3.64285714 4.18174218,3.64285714 C6.49088102,3.64285714 8.36363636,4.05062141 8.36363636,4.55303709" id="Fill-186" fill="#FFCC33"></path>
                    <path d="M8.36363636,3.82484729 C8.36363636,4.32784743 6.49088102,4.73571429 4.18174218,4.73571429 C1.87184338,4.73571429 0,4.32784743 0,3.82484729 C0,3.32245796 1.87184338,2.91428571 4.18174218,2.91428571 C6.49088102,2.91428571 8.36363636,3.32245796 8.36363636,3.82484729" id="Fill-187" fill="#D39E00"></path>
                    <polygon id="Fill-188" fill="#D39E00" points="0 3.64285714 8.36363636 3.64285714 8.36363636 2.55 0 2.55"></polygon>
                    <path d="M8.36363636,2.73160853 C8.36363636,3.23494019 6.49088102,3.64285714 4.18174218,3.64285714 C1.87184338,3.64285714 0,3.23494019 0,2.73160853 C0,2.22919286 1.87184338,1.82142857 4.18174218,1.82142857 C6.49088102,1.82142857 8.36363636,2.22919286 8.36363636,2.73160853" id="Fill-189" fill="#FFCC33"></path>
                    <path d="M8.36363636,2.00341873 C8.36363636,2.50641887 6.49088102,2.91428571 4.18174218,2.91428571 C1.87184338,2.91428571 0,2.50641887 0,2.00341873 C0,1.50102939 1.87184338,1.09285714 4.18174218,1.09285714 C6.49088102,1.09285714 8.36363636,1.50102939 8.36363636,2.00341873" id="Fill-190" fill="#D39E00"></path>
                    <polygon id="Fill-191" fill="#D39E00" points="0 2.18571429 8.36363636 2.18571429 8.36363636 1.09285714 0 1.09285714"></polygon>
                    <path d="M8.36363636,0.910179962 C8.36363636,1.41351162 6.49088102,1.82142857 4.18174218,1.82142857 C1.87184338,1.82142857 0,1.41351162 0,0.910179962 C0,0.407764289 1.87184338,0 4.18174218,0 C6.49088102,0 8.36363636,0.407764289 8.36363636,0.910179962" id="Fill-192" fill="#FFCC33"></path>
                </g>
            </g>
        </g>
    </g>
</svg>